<?xml version="1.0" encoding="UTF-8" standalone="no"?>
<svg
   role="img"
   viewBox="-2.50 -2.50 130.00 57.00"
   version="1.1"
   id="svg6"
   xmlns:xlink="http://www.w3.org/1999/xlink"
   xmlns="http://www.w3.org/2000/svg"
   xmlns:svg="http://www.w3.org/2000/svg">
  <defs
     id="defs1">
    <path
       id="path-1"
       d="M125.13 52.048L125.13 0 0 0 0 52.048z" />
  </defs>
  <g
     id="Symbol"
     fill="none"
     fill-rule="evenodd">
    <g
       id="Header/Dark-Inactive"
       transform="translate(-18 -15)">
      <g
         id="Logo/Full-Colour"
         transform="translate(18 15)">
        <path
           fill="#0c033b"
           d="m57.983 4.2694h-1.6925l-3.9523 11.732h2.0955l0.70334-2.3537h4.0019l0.70839 2.3537h2.0928zm-2.2868 7.4939 1.4316-4.7947 1.4417 4.7947z"
           id="path1" />
        <g
           fill="#0c033b"
           id="g2">
          <path
             d="M62.852 13.103v-4.9115h1.8268v4.4592c0 1.2427.40263 1.9882 1.5909 1.9882 1.3918 0 1.894-.92204 1.894-2.0455v-4.4019h1.8268v7.8095h-1.8268v-1.0884c-.46978.83765-1.2902 1.2899-2.4137 1.2899-1.7074 0-2.898-.99424-2.898-3.0995M71.547 13.605h1.8268c0 .66857.65372 1.1384 1.5933 1.1384.6861 0 1.1211-.36786 1.1211-.92203 0-.43502-.18393-.70364-1.0216-.91966l-1.5585-.42016c-1.0887-.30071-1.7077-1.0887-1.7077-2.1947 0-1.325 1.2551-2.2966 2.9976-2.2966 1.9115 0 3.0846.92203 3.0846 2.4309h-1.7944c0-.65371-.49712-1.0391-1.3573-1.0391-.65104 0-1.1208.33547-1.1208.80526 0 .41778.24841.70364.97166.9048l1.5585.45255c1.1063.31794 1.8096 1.1208 1.8096 2.2369 0 1.5261-1.1907 2.4309-3.0846 2.4309-1.894 0-3.3182-1.1063-3.3182-2.5976M83.93 14.393v1.6081c-.44928.06775-.90302.10103-1.3571.09959-.88727 0-2.5305-.11682-2.5305-2.7344v-3.6486h-1.3223v-1.5261h1.3149v-2.3614h1.8268v2.3614h1.7921v1.5261h-1.7921v3.2163c0 1.3571.42016 1.5261 1.141 1.5261.30754-.0027.61479-.02496.91966-.06715M85.304 8.1917h1.8268v1.5086c.11232-.46414.37915-.87627.75682-1.1684.37767-.29239.84359-.4475 1.3211-.43977.24217-.00624.48405.016343.72087.067154v1.6878c-.2392-.026743-.48018-.037737-.72087-.032389-1.2899 0-2.0779.97195-2.0779 2.7343v3.4522h-1.8268zM90.415 12.097c0-2.2966 1.4566-4.1062 3.8875-4.1062.48345-.01664.96334.089737 1.3945.30992.43086.22018.79872.54615 1.0685.94789v-1.0563h1.8096v7.8095h-1.8096v-1.0563c-.48464.78802-1.5585 1.2578-2.5129 1.2578-2.5129 0-3.8376-1.8096-3.8376-4.1062m6.4177 0c0-1.3398-.74553-2.4856-2.3115-2.4856-1.4269 0-2.2794 1.0563-2.2794 2.4856s.8525 2.4856 2.2794 2.4856c1.5585 0 2.3115-1.141 2.3115-2.4856"
             id="path2" />
        </g>
        <g
           fill="#0c033b"
           id="g3">
          <path
             d="M102.42 4.272L100.59 4.272 100.59 16.001 102.42 16.001zM104.09 5.7136c0-.35984.14292-.70512.39757-.95977.25436-.25435.59964-.39728.95948-.39728.36014 0 .70512.14293.95977.39728.25435.25465.39728.59993.39728.95977s-.14293.70512-.39728.95977c-.25465.25435-.59963.39728-.95977.39728-.35984 0-.70512-.14293-.95948-.39728-.25465-.25465-.39757-.59993-.39757-.95977zm.45225 10.288h1.8096v-7.8021h-1.8096zM117.91 8.1917h1.8268v1.0911c.48464-.84002 1.3921-1.2926 2.5477-1.2926 1.8768 0 2.8484 1.0566 2.8484 3.1022v4.9088h-1.8268v-4.0712c0-1.6604-.43501-2.3813-1.71-2.3813-1.188 0-1.8592.78802-1.8592 2.1626v4.2899h-1.8268zM107.93 12.097c0-2.2966 1.459-4.1062 3.8875-4.1062.48345-.01664.96334.089737 1.3945.30992.43086.22018.79872.54615 1.0685.94789v-1.0563h1.7995v7.8095h-1.8093v-1.0563c-.48464.78802-1.5585 1.2578-2.5129 1.2578-2.5129 0-3.8376-1.8096-3.8376-4.1062m6.4177 0c0-1.3398-.74583-2.4856-2.3118-2.4856-1.4242 0-2.2791 1.0563-2.2791 2.4856s.85488 2.4856 2.2791 2.4856c1.5585 0 2.3118-1.141 2.3118-2.4856M60.682 24.37c0 2.3962-1.6753 4.1062-4.0215 4.1062h-2.3962v3.517h-1.9264v-11.729h4.3323c2.3465 0 4.0215 1.7101 4.0215 4.1062m-1.9261 0c0-1.3746-.93957-2.3786-2.2122-2.3786h-2.2794v4.7573h2.2794c1.2727 0 2.2122-.99424 2.2122-2.3786M61.336 28.091c0-2.2966 1.4566-4.1062 3.8848-4.1062.48375-.01723.96393.08885 1.3954.30843.43145.21959.79961.54555 1.0703.9467v-1.0537h1.8096v7.8071h-1.8096v-1.054c-.49712.78535-1.5585 1.2429-2.5153 1.2429-2.5129 0-3.8352-1.8096-3.8352-4.1038m6.4177 0c0-1.3422-.74553-2.4856-2.3141-2.4856-1.4242 0-2.2791 1.054-2.2791 2.4856s.85488 2.4856 2.2791 2.4856c1.5585 0 2.3141-1.1384 2.3141-2.4856M78.668 24.186v7.8419c0 1.223-.36786 2.1451-1.0216 2.7813-.63618.58686-1.541.9048-2.6472.9048-1.1556 0-2.0604-.28585-2.6817-.80526-.28199-.25554-.50544-.56873-.6555-.91817s-.22315-.72741-.21454-1.1075h1.8444c.08201.8525.49712 1.3223 1.6726 1.3223 1.0914 0 1.8791-.65371 1.8791-2.3118v-.99424c-.49712.83764-1.3571 1.2902-2.5153 1.2902-1.9264 0-2.8808-1.3746-2.8808-3.251v-4.7525h1.8268v4.3722c0 1.1583.3854 2.0283 1.6901 2.0283 1.3051 0 1.8791-1.0216 1.8791-2.3638v-4.0367zM80.622 24.186h1.8245v1.0887c.20503-.39847.51822-.73097.90391-.95948.38569-.2282.82784-.3426 1.2759-.33072 1.4242 0 2.1275.61895 2.463 1.3894.22999-.43115.57527-.78951.99781-1.0349.42254-.24544.9051-.36816 1.3933-.35449 2.3465 0 2.8163 1.6084 2.8163 3.0674v4.9412h-1.8221v-4.5909c0-1.2899-.49712-1.8592-1.459-1.8592-.91966 0-1.6429.45255-1.6429 2.3118v4.1383h-1.8245v-4.6081c0-1.2902-.46978-1.842-1.4242-1.842s-1.6777.45255-1.6777 2.3118v4.1383h-1.8245zM101.27 28.693h-5.7964c.04962 1.2427.8525 1.9115 2.1775 1.9115.9048 0 1.4414-.28585 1.7398-.88994h1.8444c-.23623 1.459-1.7101 2.4856-3.5868 2.4856-2.463 0-3.9767-1.5734-3.9767-4.1062s1.541-4.1035 3.9196-4.1035c2.2369 0 3.7283 1.5086 3.7283 3.7033 0 .31824-.0172.56933-.052.99424zm-1.7425-1.3945c-.01486-1.2079-.72087-1.8765-1.976-1.8765-1.2551 0-2.0604.77049-2.0779 1.8765zM102.69 24.186h1.8245v1.0887c.49712-.83765 1.3918-1.2902 2.5477-1.2902 1.8765 0 2.8484 1.054 2.8484 3.0995v4.9091h-1.8244v-4.0715c0-1.6578-.4374-2.3786-1.7101-2.3786-1.1906 0-1.8616.78802-1.8616 2.1599v4.2901h-1.8245zM116.26 30.385v1.6081c-.44898.06983-.90272.104-1.357.10201-.88727 0-2.5305-.11687-2.5305-2.7493v-3.6361h-1.3223v-1.5237h1.3223v-2.3638h1.8271v2.3638h1.7921v1.5237h-1.7921v3.2311c0 1.3571.41749 1.5237 1.1384 1.5237.30843-.0012.61657-.02377.92203-.06715M117.15 29.597h1.8268c0 .67125.65372 1.1407 1.5933 1.1407.6861 0 1.1211-.37024 1.1211-.92203 0-.43502-.18393-.70334-1.0216-.92204l-1.5585-.4053c-1.0887-.30308-1.7101-1.0911-1.7101-2.1971 0-1.3223 1.2575-2.2942 3-2.2942 1.9115 0 3.0846.92203 3.0846 2.4283h-1.7944c0-.65372-.49712-1.0388-1.3574-1.0388-.65371 0-1.1208.33547-1.1208.80526 0 .42016.24841.70334.96928.9048l1.5609.45225c1.1036.31824 1.8096 1.1235 1.8096 2.2372 0 1.5235-1.1906 2.4283-3.0846 2.4283s-3.3182-1.106-3.3182-2.5973M60.593 40.25c0 2.3962-1.6777 4.1062-4.0215 4.1062h-2.3864v3.5194h-1.9386v-11.729h4.3249c2.3439 0 4.0215 1.7074 4.0215 4.1035m-1.9288 0c0-1.3746-.93956-2.3786-2.2122-2.3786h-2.2669v4.7599h2.2794c1.2727 0 2.2122-1.0067 2.2122-2.3813M63.951 36.147L62.125 36.147 62.125 47.876 63.951 47.876zM65.719 44.978v-4.9115h1.8268v4.4592c0 1.2427.40263 1.9882 1.5909 1.9882 1.3918 0 1.894-.92204 1.894-2.0455v-4.4019h1.8268v7.8095h-1.8268v-1.0884c-.46978.83765-1.2902 1.2899-2.4137 1.2899-1.7074 0-2.898-1.0067-2.898-3.0995M74.318 45.48h1.8268c0 .66857.65371 1.1384 1.5909 1.1384.68848 0 1.1235-.36786 1.1235-.92203 0-.43502-.18393-.70363-1.0216-.91966l-1.5585-.42016c-1.0887-.30071-1.7101-1.0887-1.7101-2.1947 0-1.325 1.2575-2.2966 3-2.2966 1.9115 0 3.0823.92203 3.0823 2.4309h-1.7921c0-.65371-.49712-1.0391-1.3573-1.0391-.65372 0-1.1235.33547-1.1235.80526 0 .41778.24871.70363.97196.9048l1.5585.45255c1.106.31794 1.8096 1.1208 1.8096 2.2369 0 1.5261-1.1883 2.4309-3.0823 2.4309-1.894 0-3.3182-1.1161-3.3182-2.6074"
             id="path3" />
        </g>
        <g
           fill="#9e8aef"
           id="g6">
          <path
             d="m42.521 26.172c-0.0027 2.6027-1.0376 5.0981-2.8775 6.9386-1.8402 1.8405-4.3353 2.876-6.938 2.8793h-6.3381v-4.4741h6.3381c1.4174 0 2.7765-0.56279 3.7788-1.5651s1.5653-2.3614 1.5653-3.7788-0.56309-2.7765-1.5653-3.7788-2.3614-1.5651-3.7788-1.5651h-32.705v-4.4741h32.705c2.6024 0.0018 5.0972 1.0364 6.9377 2.876 1.8402 1.8399 2.8752 4.3347 2.8778 6.9368"
             id="path4" />
          <path
             d="M26.367 19.71L21.893 19.71 21.893 31.516 26.367 31.516zM26.347 9.9515v7.5587h-4.4741v-7.5587c.015452-.70839-.11083-1.4126-.37143-2.0714-.2606-.65906-.64985-1.2593-1.1455-1.7656-.49563-.50633-1.0872-.90866-1.7404-1.1835-.65312-.27456-1.3544-.416-2.0631-.416-.70839 0-1.4099.14144-2.0631.416-.65312.27486-1.2447.67719-1.7404 1.1835-.49534.50633-.88489 1.1066-1.1455 1.7656-.2603.65877-.38658 1.363-.37143 2.0714v7.5587h-4.4741v-7.5587c-.020503-1.2994.21751-2.5899.70037-3.7963.48286-1.2064 1.2011-2.3046 2.1127-3.2308.91163-.92619 1.9983-1.6616 3.197-2.1638 1.1984-.50217 2.485-.76069 3.7844-.76069 1.2997 0 2.586.25851 3.7847.76069 1.1987.50217 2.2853 1.2376 3.197 2.1638.91134.92619 1.6295 2.0244 2.1124 3.2308.48315 1.2064.72116 2.4969.70036 3.7963M7.929 31.516L0 31.516 0 35.99 7.929 35.99zM10.111 35.99L21.895 35.99 21.895 31.516 21.875 31.516 10.111 31.516z"
             id="path5" />
          <path
             d="m26.367 35.99v6.4177c-0.04101 2.5706-1.0908 5.022-2.9233 6.8254-1.8322 1.8034-4.3003 2.8142-6.8711 2.8142s-5.0387-1.0109-6.8711-2.8142c-1.8322-1.8034-2.8823-4.2548-2.9233-6.8254v-22.701h4.4741v22.701c0.03001 1.3912 0.6038 2.7153 1.5983 3.6884s2.3305 1.5181 3.722 1.5181 2.7278-0.54496 3.722-1.5181c0.99454-0.97314 1.5683-2.2972 1.5983-3.6884v-6.4177z"
             id="path6" />
        </g>
      </g>
    </g>
  </g>
</svg>
