<?xml version="1.0" encoding="utf-8"?>
<!-- Generator: Adobe Illustrator 24.3.0, SVG Export Plug-In . SVG Version: 6.00 Build 0)  -->
<svg version="1.1" id="Layer_1" xmlns="http://www.w3.org/2000/svg" xmlns:xlink="http://www.w3.org/1999/xlink" x="0px" y="0px"
	 viewBox="0 0 417.4 360.3" style="enable-background:new 0 0 417.4 360.3;" xml:space="preserve">
<style type="text/css">
	.st0{fill:#E155ED;}
	.st1{fill:#FFFFFF;}
	.st2{fill:#F3AB58;}
	.st3{fill:#EA1572;}
	.st4{fill:#2E55D1;}
</style>
<g id="Layer_2_1_">
	<g id="Layer_1-2">
		<path class="st0" d="M272.6,284.4c-26,0-44.9-17.5-63.1-34.3c-4.8-4.4-9.3-8.6-13.9-12.4c-2.4-2-4.6-3.7-6.6-5.2
			c-3.2-2.4-6.6-4.5-10.2-6.4c-6.2-3.3-13.2-5-20.2-5.1c-11.4,0-21.7,4.7-29.9,10.5c5.5-7.2,11.5-14.6,17-20.4
			c0.1,0,0.1-0.1,0.2-0.2l1.4-1.4c12.9-10.8,28.3-16.6,44.7-16.6c6.7,0,13.4,1,19.9,2.9h0.1h0.1c15.8,3.1,38.1,20.3,53.4,33
			c5.5,4.5,10.6,8.9,15.2,12.9c6.2,5.3,11.5,9.9,15.1,12.5l0.1,0.1c5.7,3.9,12.4,6,19.3,6l0,0c2.2,0,4.4-0.2,6.6-0.6
			c-1.5,1.9-3.2,4-4.7,5.7c-0.9,1.2-1.9,2.2-3,3.2c-0.4,0.3-0.8,0.6-1.4,1.2c-3.5,3-13,11-30.4,13.8
			C279.1,284.1,275.8,284.4,272.6,284.4L272.6,284.4z"/>
		<path class="st1" d="M191.9,195.4c6.5,0,13,1,19.2,2.8l0.2,0.1l0.2,0c15.3,3,37.2,20,52.3,32.5c5.4,4.5,10.6,8.9,15.2,12.8
			c6.5,5.6,11.6,10,15.3,12.6l0.1,0.1l0.1,0.1c6.1,4.1,13.3,6.4,20.7,6.4h0.9l-0.9,1c-0.8,1-1.7,2-2.6,2.9c-0.4,0.3-0.9,0.8-1.5,1.2
			c-3.4,2.9-12.4,10.5-29.2,13.3c-3.1,0.5-6.2,0.8-9.3,0.8c-25,0-43.6-17.1-61.5-33.7c-4.8-4.4-9.3-8.6-14-12.5
			c-2.5-2-4.7-3.8-6.7-5.3c-3.3-2.5-6.9-4.6-10.5-6.6c-6.6-3.4-13.9-5.3-21.3-5.3c-7,0.1-13.9,1.6-20.2,4.5c3-3.7,6.1-7.2,9-10.3
			c0.1-0.1,0.1-0.1,0.2-0.2l1.3-1.3C160.9,201.1,176.1,195.4,191.9,195.4L191.9,195.4 M191.9,190.5c-17,0.1-33.4,6.1-46.4,17.2
			l-1.5,1.6c0,0,0,0-0.1,0.1c-10.3,10.9-22.1,26.9-28.9,36.5c-2.4,3.4-4.2,6-5.1,7.3c0.5-0.8,1.4-1.8,2.5-3.2
			c6.8-8.3,24.2-26.5,46.1-26.5c6.7,0,13.2,1.7,19.1,4.8c3.4,1.8,6.7,3.9,9.9,6.2c2.2,1.6,4.3,3.3,6.5,5.1
			c22.5,18.8,44.8,47.3,78.6,47.3c3.4,0,6.8-0.3,10.1-0.8c20.7-3.3,30.5-13.7,32.8-15.4c1.2-1.1,2.4-2.3,3.4-3.6
			c3.7-4.3,8.7-10.8,9.6-11.9l0.1-0.1c-4.2,2-8.8,3-13.4,2.9c-6.4,0-12.7-2-18-5.6c-6.1-4.5-17.3-14.6-30.2-25.3
			c-17.8-14.7-39-30.4-54.5-33.5C205.8,191.5,198.9,190.5,191.9,190.5L191.9,190.5z"/>
		<path class="st2" d="M79.8,302.1c-4.9,0-8.7-1.4-10.5-2.6c-3-2.1-9-8.2-12.4-18c-4.4-13.1-3.1-28.3,4.1-45.2
			c10.9-20.9,65.5-125.8,84.2-158.9c3.8-6.8,10.2-11.7,17.7-13.7l0.9-0.2c2.5-0.7,5-1,7.6-1c10.1,0,19.4,5.4,24.5,14.1
			c5.3,8.6,5.6,19.3,0.8,28.2c-35.4,67.2-95.3,180.8-98.6,186.8C93.1,300.7,84.5,302.1,79.8,302.1z"/>
		<path class="st1" d="M171.4,64.8c9.2,0,17.8,4.9,22.4,12.9c4.8,7.8,5.1,17.7,0.7,25.8c-35.4,67.1-95.3,180.7-98.6,186.8
			c-4.4,8.2-12,9.4-16.1,9.4c-4.1,0-7.5-1.1-9-2.2c-2.8-1.9-8.3-7.6-11.4-16.8c-4.2-12.4-2.9-27,3.9-43.4
			c11-21.1,65.5-125.6,84.1-158.8c3.5-6.2,9.3-10.7,16.2-12.6l0.9-0.2C166.8,65.1,169.1,64.8,171.4,64.8L171.4,64.8 M171.5,59.9
			c-2.8,0-5.5,0.4-8.2,1.1l-0.9,0.2c-8.1,2.2-15.1,7.5-19.2,14.9c-18.9,33.5-74.7,140.6-84.3,159.1c-17.3,41.1,3.2,62.2,9.2,66.3
			c2.5,1.7,6.9,3.1,11.8,3.1c7.2,0,15.6-2.9,20.4-11.9c3.3-6,61.8-116.9,98.7-186.9C210.2,84.2,193.8,59.9,171.5,59.9L171.5,59.9z"
			/>
		<path class="st3" d="M336.8,313c-2.1,0-4.1-1.1-5.3-2.9l-30.1-46.9l-37.3-59.3L237,161.8c-0.2-0.3-17-25.8-36-56.5
			c-0.1-0.2-0.2-0.4-0.3-0.6c-12.8-27.6-36.7-30.6-46.4-30.6c-2.2,0-4.5,0.2-6.7,0.5c12.1-19.3,36-28,50.4-28h0.1c1,0,2.1,0,3.1,0
			c12.7,0,25.6,1.5,44.2,19c9.4,9.4,89.9,128.6,111.1,172.5c18.6,36.6-1.9,61.8-15.7,73.5C339.8,312.5,338.3,313,336.8,313z"/>
		<path class="st1" d="M201.2,48.9c12.2,0,24.6,1.4,42.5,18.3c4.2,4.2,25.5,34.4,50.8,72.9c29,44.2,50.8,80.2,59.8,98.9v0v0
			c17.8,35-1.8,59.2-15.1,70.5c-1.6,1.4-4,1.2-5.4-0.4c-0.1-0.1-0.2-0.3-0.3-0.4l-9.5-14.8l-20.6-32.1l-37.3-59.3l0,0l0,0l-27-42.1
			l0,0l0,0c-0.2-0.2-17-25.7-35.9-56.4c-0.1-0.1-0.1-0.2-0.2-0.3c-5.3-11.5-13.1-20.1-23.1-25.6c-7.8-4.2-16.6-6.4-25.5-6.4
			c-0.6,0-1.1,0-1.7,0c4.9-6.1,10.9-11.1,17.8-14.9c8.9-4.9,19.2-7.9,27.6-7.9h0.1C199.3,48.9,200.3,48.9,201.2,48.9L201.2,48.9
			 M201.2,44.1c-1.1,0-2.1,0-3.2,0l0,0c-17.2,0-44.2,11.3-55.2,34.1c3.7-1.2,7.6-1.8,11.5-1.7c13.6,0,33.4,5.8,44.2,29.2
			c0.1,0.3,0.3,0.6,0.5,0.8c19.2,31.1,36,56.5,36,56.5l27,42.1l37.3,59.3l20.6,32.1l9.5,14.7c2.6,4.1,8,5.2,12.1,2.6
			c0.3-0.2,0.6-0.4,0.9-0.7c13.1-11.2,35.9-37.7,16.3-76.4C337.6,193.1,256.7,73.2,247.1,63.7C228.5,46.1,214.9,44,201.2,44.1
			L201.2,44.1z"/>
		<path class="st4" d="M105,313c-5.9,0-11.8-1-17.4-2.9c-0.8-0.2-1.2-0.4-1.7-0.5c-0.1,0-1.5-0.4-8.1-4.1l-1.9-1.1
			c8.6-1.8,16-7,20.7-14.4l0.2-0.3l0.1-0.2c0.1-0.1,0.1-0.1,1.2-2.4c3.5-7.1,14.1-28.6,18.4-36.4c5.2-9.6,20.5-27.5,41.3-27.5
			c5.8,0,11.5,1.3,16.7,3.8c2.6,1.2,5.1,2.5,7.5,4c-0.9,1.5-1.8,3.2-2.8,5.1c-2.8,5.5-5.4,11.3-8.2,17.5
			c-9.8,21.9-19.9,44.6-42.2,54.4c-3.1,1.3-6.3,2.4-9.6,3.2C114.6,312.3,109.8,312.9,105,313z"/>
		<path class="st1" d="M157.9,225.6c5.4,0.1,10.8,1.3,15.7,3.6c1.7,0.8,3.4,1.7,5.2,2.7c-0.5,1-1.1,2-1.7,3.1
			c-2.9,5.6-5.5,11.4-8.2,17.6c-9.6,21.5-19.5,43.7-40.9,53.2c-3,1.3-6,2.3-9.2,3.1c-4.5,1.1-9.2,1.7-13.8,1.7
			c-5.6,0-11.2-0.9-16.6-2.8c-0.7-0.2-1.3-0.4-1.8-0.5c-1.5-0.6-3-1.3-4.4-2.1c6.8-2.7,12.6-7.5,16.5-13.7l0,0l0,0L99,291v0l0.1-0.1
			l0.1-0.1c0.1-0.2,0.1-0.2,1.3-2.5c3.5-7.1,14-28.5,18.4-36.2l0,0l0,0c5-9.1,19.5-26.2,39.1-26.2l0,0 M157.9,220.8
			c-21.3,0-37.3,17.6-43.4,28.8C109.2,259,95,288,94.9,288.4c-0.1,0.2-0.2,0.3-0.3,0.4c-8.4,12.8-20.9,14-25.2,14
			c-0.5,0-1,0-1.5-0.1c0,0,4.1,2.4,8.4,4.8l0,0l0,0c3.8,2.1,7.7,4.1,9,4.5c1.9,0.5,8.8,3.5,19.6,3.5c5,0,10.1-0.6,15-1.8
			c3.4-0.8,6.8-1.9,10-3.4c29.5-13,38.5-47.9,51.5-73c1.3-2.4,2.6-4.8,3.9-7c-3.1-2.1-6.4-3.9-9.8-5.5c-5.5-2.6-11.6-4-17.7-4
			L157.9,220.8z"/>
	</g>
</g>
</svg>
