<svg xmlns="http://www.w3.org/2000/svg" xmlns:xlink="http://www.w3.org/1999/xlink" width="949" height="105" viewBox="0 0 949 105">
  <defs>
    <clipPath id="clip-Kombo-logo">
      <rect width="949" height="105"/>
    </clipPath>
  </defs>
  <g id="Kombo-logo" clip-path="url(#clip-Kombo-logo)">
    <rect width="949" height="105" fill="#fff"/>
    <g id="nBankAxept" transform="translate(474.762 11.262)">
      <path id="Path_94" data-name="Path 94" d="M46.592,38.933c0,16.953-10.133,25.188-20.507,25.188a16.112,16.112,0,0,1-14.211-8.076v6.863H.5V.336H11.847V23.664a17.089,17.089,0,0,1,15.2-8.559C36.027,15.111,46.592,22.7,46.592,38.933Zm-34.746.549c0,9.53,5.466,14.533,11.582,14.533,5.712,0,11.74-4.685,11.74-14.533,0-9.689-5.952-14.369-11.658-14.369-6.193.022-11.664,4.45-11.664,14.374Z" transform="translate(0 0)"/>
      <path id="Path_95" data-name="Path 95" d="M18.521,29.529c0-16.229,10.3-24.058,20.671-24.058a16.472,16.472,0,0,1,14.074,7.264V6.761H64.608v46.5H53.267V46.729a18.288,18.288,0,0,1-15.359,7.752C28.9,54.476,18.521,46.564,18.521,29.529Zm11.423.548c0,9.936,5.952,14.265,11.664,14.265,6.193,0,11.658-4.115,11.658-14.265,0-9.876-5.466-14.616-11.582-14.616-5.712.022-11.74,4.543-11.74,14.632Z" transform="translate(33.864 9.64)"/>
      <path id="Path_96" data-name="Path 96" d="M49.671,26.7V53.268H38.33V6.76H49.671v6.863A16,16,0,0,1,63.986,5.47c8.046,0,15.681,4.115,15.681,16.629V53.263H68.326v-26.8c0-7.752-3.783-10.578-8.746-10.578a9.447,9.447,0,0,0-9.587,6.661A9.51,9.51,0,0,0,49.671,26.7Z" transform="translate(71.086 9.64)"/>
      <path id="Path_97" data-name="Path 97" d="M56.362.336H67.621V37.88l16.4-21.474H96.726L80.717,35.7,99.23,62.908H86.658l-12.7-19.12L67.6,51.469V62.936H56.34Z" transform="translate(104.929 0)"/>
      <path id="Path_98" data-name="Path 98" d="M71.039,29.076c0-16.229,10.3-24.058,20.671-24.058a16.477,16.477,0,0,1,14.074,7.264V6.307h11.341V52.8H105.785V46.276a18.291,18.291,0,0,1-15.364,7.752C81.424,54.022,71.039,46.111,71.039,29.076Zm11.423.548c0,9.936,5.952,14.265,11.664,14.265,6.193,0,11.664-4.115,11.664-14.265,0-9.875-5.466-14.616-11.582-14.616-5.717.022-11.746,4.543-11.746,14.632Z" transform="translate(135.551 8.788)"/>
      <path id="Path_99" data-name="Path 99" d="M123.58,55.143l-6.275-6.375a3.422,3.422,0,0,0-2.492-1.372c-.885,0-1.607.483-2.563,1.536L97.366,64.755a9.188,9.188,0,0,1-6.193,3.39,4.063,4.063,0,0,1-3.948-2.494,4.1,4.1,0,0,1-.316-1.62,8.484,8.484,0,0,1,3.056-5.568L105.4,42.074a12.138,12.138,0,0,1,9.248-4.938,12.731,12.731,0,0,1,9.652,5.086l6.112,6.3a9.063,9.063,0,0,1,3.219,5.887,3.955,3.955,0,0,1-4.18,4.12,8.2,8.2,0,0,1-5.872-3.385ZM105.641,15.021l6.275,6.375a3.44,3.44,0,0,0,2.492,1.372c.885,0,1.607-.483,2.563-1.536L131.85,5.409a9.181,9.181,0,0,1,6.193-3.39,4.073,4.073,0,0,1,4.264,4.115,8.487,8.487,0,0,1-3.058,5.569l-15.44,16.388a12.138,12.138,0,0,1-9.248,4.938,12.738,12.738,0,0,1-9.652-5.086l-6.105-6.3a9.062,9.062,0,0,1-3.214-5.887,3.965,3.965,0,0,1,2.562-3.875,3.939,3.939,0,0,1,1.62-.245,8.192,8.192,0,0,1,5.87,3.385Z" transform="translate(165.373 3.151)"/>
      <path id="Path_100" data-name="Path 100" d="M116.3,31.972a11.907,11.907,0,0,0,3.579,8.667A11.824,11.824,0,0,0,128.6,44c7,0,9.841-2.826,10.7-7.264l10.3,1.613A20.011,20.011,0,0,1,129,54.016a23.244,23.244,0,0,1-22.823-15.042,23.422,23.422,0,0,1-1.468-9.581A22.728,22.728,0,0,1,118.654,6.728a22.574,22.574,0,0,1,9.225-1.716c12.386,0,21.233,9.689,21.233,23.41v3.55Zm.322-8.153h21.634a9.974,9.974,0,0,0-3.443-6.92,9.909,9.909,0,0,0-7.336-2.369,10.334,10.334,0,0,0-10.843,9.316Z" transform="translate(198.717 8.772)"/>
      <path id="Path_101" data-name="Path 101" d="M134.456,6.317V12.7a17.941,17.941,0,0,1,15.21-7.681c9.009,0,19.546,7.588,19.546,23.816,0,16.953-10.134,25.188-20.508,25.188a16.824,16.824,0,0,1-14.211-7.346v22.28H123.141V6.3Zm0,23.092c0,9.525,5.465,14.534,11.583,14.534,5.787,0,11.744-4.685,11.744-14.534,0-9.689-5.951-14.369-11.663-14.369-6.164-.005-11.663,4.433-11.663,14.363Z" transform="translate(233.455 8.783)"/>
      <path id="Path_102" data-name="Path 102" d="M148.5,13.839V2.62l11.344-1.613V13.845h11.421v9.448H159.843V45.825c0,3.292,1.042,5,4.5,5a27.787,27.787,0,0,0,6.193-.807l1.607,8.778a29.718,29.718,0,0,1-11.1,2.343,11.079,11.079,0,0,1-12.57-12.432V23.282H140.51V13.839Z" transform="translate(266.093 1.261)"/>
    </g>
    <g id="nBankID_Main_Logo" transform="translate(10.762 11.598)">
      <path id="Path_103" data-name="Path 103" d="M23.352,9.175H5.073A4.694,4.694,0,0,1,.5,4.59h0A4.694,4.694,0,0,1,5.073,0h18.28a4.694,4.694,0,0,1,4.573,4.59,4.694,4.694,0,0,1-4.573,4.585Z"/>
      <path id="Path_104" data-name="Path 104" d="M23.352,22.2H5.073A4.694,4.694,0,0,1,.5,17.618h0a4.694,4.694,0,0,1,4.573-4.59h18.28a4.694,4.694,0,0,1,4.573,4.59A4.694,4.694,0,0,1,23.352,22.2Z" transform="translate(0 23.674)"/>
      <path id="Path_105" data-name="Path 105" d="M23.352,28.719H5.073A4.694,4.694,0,0,1,.5,24.134h0a4.694,4.694,0,0,1,4.573-4.59h18.28a4.588,4.588,0,0,1,0,9.175Z" transform="translate(0 35.514)"/>
      <path id="Path_106" data-name="Path 106" d="M36.332,15.69H18.052a4.694,4.694,0,0,1-4.573-4.585,4.694,4.694,0,0,1,4.573-4.59H36.337a4.694,4.694,0,0,1,4.573,4.59,4.694,4.694,0,0,1-4.578,4.585Z" transform="translate(23.586 11.84)"/>
      <path id="Path_107" data-name="Path 107" d="M36.332,22.2H18.052a4.694,4.694,0,0,1-4.573-4.585,4.694,4.694,0,0,1,4.573-4.59H36.337a4.694,4.694,0,0,1,4.573,4.59A4.693,4.693,0,0,1,36.332,22.2Z" transform="translate(23.586 23.674)"/>
      <path id="Path_108" data-name="Path 108" d="M49.311,9.175H31.031A4.694,4.694,0,0,1,26.459,4.59,4.694,4.694,0,0,1,31.031,0H49.317a4.694,4.694,0,0,1,4.573,4.59,4.694,4.694,0,0,1-4.578,4.585Z" transform="translate(47.171)"/>
      <path id="Path_109" data-name="Path 109" d="M49.311,15.69H31.031a4.694,4.694,0,0,1-4.573-4.585,4.694,4.694,0,0,1,4.573-4.59H49.317a4.694,4.694,0,0,1,4.573,4.59,4.694,4.694,0,0,1-4.578,4.585Z" transform="translate(47.171 11.84)"/>
      <path id="Path_110" data-name="Path 110" d="M49.311,28.719H31.031a4.588,4.588,0,0,1,0-9.175H49.317a4.588,4.588,0,0,1-.005,9.175Z" transform="translate(47.171 35.514)"/>
      <path id="Path_111" data-name="Path 111" d="M57.507,40.069c0,9.786,5.487,14.988,11.884,14.988,5.792,0,12.188-4.9,12.188-14.988S75.483,25.387,69.7,25.387C63.278,25.387,57.507,29.977,57.507,40.069ZM57.507,0V23.857a17.959,17.959,0,0,1,15.846-8.589c9.14,0,20.109,7.645,20.109,24.469,0,17.436-10.359,26-21.024,26a16.46,16.46,0,0,1-14.627-8.257v6.727H45.929V0Z" transform="translate(82.551)"/>
      <path id="Path_112" data-name="Path 112" d="M76.437,30.715c0,10.092,6.1,14.682,11.884,14.682,6.418,0,11.884-4.295,11.884-14.682,0-10.093-5.487-14.989-11.884-14.989C82.833,15.727,76.437,20.317,76.437,30.715ZM64.858,30.1c0-16.518,10.664-24.775,21.328-24.775a16.458,16.458,0,0,1,14.322,7.339V6.552h11.578v48.02H100.509V47.845a18.46,18.46,0,0,1-15.863,7.945c-9.14,0-19.788-7.951-19.788-25.693" transform="translate(116.948 9.661)"/>
      <path id="Path_113" data-name="Path 113" d="M97.2,27.15V54.372H85.625V6.658H97.2v7.033a16.224,16.224,0,0,1,14.627-8.257c8.226,0,16.15,4.295,16.15,17.131V54.378H116.4V26.843c0-7.951-3.963-11.01-9.14-11.01a9.979,9.979,0,0,0-9.7,7.063,10.045,10.045,0,0,0-.355,4.254" transform="translate(154.685 9.861)"/>
      <path id="Path_114" data-name="Path 114" d="M104.554,0V64.232h11.578V52.61l6.417-7.951,13.1,19.578h12.756L129.539,36.4,146,16.535H132.9l-16.762,22.01V0Z" transform="translate(189.082)"/>
      <path id="Path_115" data-name="Path 115" d="M136.018.761H124.132v62.09h11.886Z" transform="translate(224.658 1.382)"/>
      <path id="Path_116" data-name="Path 116" d="M155.117.761H132.569v62.09h22.548A28.857,28.857,0,0,0,184.238,43.9a29.048,29.048,0,0,0,1.656-12.251C185.895,10.853,171.877.761,155.117.761Zm0,51.08H144.452V11.771h10.666c9.747,0,17.979,6.442,17.979,20.185C173.1,45.42,164.87,51.841,155.117,51.841Z" transform="translate(239.989 1.382)"/>
    </g>
  </g>
</svg>
