<svg xmlns="http://www.w3.org/2000/svg" width="567" height="414" viewBox="0 0 567 414" version="1.1"><path d="M 108.607 200.582 C 107.501 203.463, 107.916 353.974, 109.035 356.066 C 109.945 357.766, 111.200 358, 119.413 358 C 125.738 358, 129.095 357.590, 129.808 356.732 C 130.483 355.917, 131.001 342.768, 131.253 319.982 C 131.690 280.597, 131.812 279.767, 138.224 272.483 C 146.940 262.581, 166.122 260.900, 175.586 269.210 C 183.889 276.500, 184.978 282.831, 185.008 324 C 185.020 341.325, 185.398 356.080, 185.848 356.788 C 186.446 357.731, 189.322 357.999, 196.583 357.788 L 206.500 357.500 206.818 324 C 207.026 302.071, 206.732 287.653, 205.966 282.258 C 202.434 257.388, 183.347 241.764, 158.344 243.274 C 149.330 243.819, 141.386 246.789, 134.750 252.095 L 131 255.094 131 230.238 C 131 211.909, 130.672 204.944, 129.750 203.715 C 129.035 202.761, 125.369 201.395, 121.185 200.524 C 111.920 198.594, 109.365 198.606, 108.607 200.582 M 554.103 200.578 C 550.584 201.360, 547.104 202.499, 546.369 203.109 C 545.328 203.973, 544.973 210.053, 544.766 230.578 L 544.500 256.937 537.133 252.023 C 527.748 245.762, 522.562 243.960, 512 243.292 C 502.028 242.660, 493.972 244.354, 484 249.178 C 475.123 253.472, 462.499 266.084, 458.155 275 C 447.917 296.009, 450.969 321.865, 465.920 340.780 C 471.206 347.467, 482.368 355.271, 490.827 358.194 C 496.362 360.107, 499.546 360.498, 509.500 360.489 C 522.810 360.477, 526.771 359.248, 538.114 351.609 C 541.061 349.624, 543.817 348, 544.237 348 C 544.656 348, 545 349.745, 545 351.878 C 545 357.464, 546.353 358.122, 557.149 357.789 L 566.500 357.500 567.016 331.172 C 567.300 316.692, 567.300 281.142, 567.016 252.172 L 566.500 199.500 563.500 199.328 C 561.850 199.233, 557.621 199.796, 554.103 200.578 M 46.500 244.022 C 26.500 248.036, 9.465 262.709, 3.005 281.486 C 1.351 286.292, 1 289.906, 1 302.111 C 1 315.140, 1.281 317.683, 3.350 323.383 C 6.606 332.353, 10.989 338.808, 18.840 346.192 C 29.949 356.641, 41.496 361.009, 57.960 360.988 C 68.877 360.975, 75.856 359.387, 84.669 354.914 C 91.768 351.311, 102 342.623, 102 340.199 C 102 337.790, 90.951 327, 88.484 327 C 87.341 327, 84.627 328.839, 82.453 331.086 C 71.160 342.760, 51.974 344.379, 37.617 334.870 C 27.030 327.857, 22.509 317.984, 22.568 302 C 22.619 287.969, 24.919 281.907, 33.412 273.411 C 40.940 265.882, 46.788 263.588, 58.500 263.569 C 67.992 263.554, 74.640 266.176, 82.235 272.932 C 85.422 275.767, 87.558 276.958, 88.768 276.574 C 89.756 276.260, 92.972 273.567, 95.913 270.588 C 102.390 264.030, 102.272 262.415, 94.875 256.339 C 81.402 245.270, 63.274 240.655, 46.500 244.022 M 255 244.529 C 244.888 247.328, 238.857 250.978, 230.402 259.417 C 220.882 268.919, 216.712 276.659, 214.325 289.264 C 210.264 310.699, 216.595 331.874, 231.430 346.474 C 241.582 356.465, 253.279 361, 268.895 361 C 285.889 361, 298.879 356.015, 309.441 345.441 C 316.695 338.178, 319.947 332.725, 318.443 330.341 C 317.878 329.445, 313.880 327.331, 309.557 325.643 L 301.699 322.574 299.100 326.037 C 291.804 335.755, 283.923 339.987, 271.766 340.714 C 261.366 341.335, 253.856 338.816, 247.005 332.408 C 240.899 326.697, 235.105 315.066, 236.910 312.145 C 237.401 311.350, 249.863 310.946, 279.552 310.761 L 321.500 310.500 321.796 302.507 C 322.734 277.234, 307.593 253.361, 285.917 245.936 C 277.527 243.062, 262.733 242.388, 255 244.529 M 373.695 244.034 C 354.787 248.791, 338.275 263.646, 331.885 281.649 C 328.913 290.021, 328.178 308.203, 330.460 316.915 C 333.382 328.070, 337.818 335.814, 346 344.043 C 357.801 355.912, 369.780 361, 385.926 361 C 395.977 361, 403.733 358.564, 413.222 352.425 C 416.984 349.991, 420.492 348, 421.018 348 C 421.600 348, 422.076 360.792, 422.236 380.750 L 422.500 413.500 426 413.391 C 431.714 413.212, 440.887 410.970, 442.499 409.358 C 443.807 408.050, 444 398.099, 444 331.897 C 444 262.212, 443.864 255.885, 442.349 255.304 C 441.441 254.955, 436.663 255.444, 431.731 256.389 L 422.764 258.108 415.684 253.358 C 404.750 246.022, 398.212 243.749, 387 243.385 C 381.775 243.216, 375.788 243.508, 373.695 244.034 M 257.860 264.568 C 251.352 266.571, 243.752 273.714, 240.042 281.315 C 238.381 284.717, 236.905 288.625, 236.761 290 L 236.500 292.500 267.750 292.764 L 299 293.028 298.999 290.264 C 298.998 285.420, 293.654 275.773, 288.315 270.978 C 279.955 263.468, 268.953 261.153, 257.860 264.568 M 379.355 263.981 C 368.440 266.295, 358.004 275.234, 353.884 285.798 C 350.588 294.251, 350.581 310.079, 353.870 318.746 C 358.708 331.493, 370.293 339.870, 384.331 340.771 C 409.231 342.369, 425.334 321.551, 420.860 293.547 C 418.085 276.179, 405.985 264.768, 389.010 263.511 C 385.979 263.287, 381.635 263.498, 379.355 263.981 M 501.159 264.401 C 494.077 266.196, 485.267 272.376, 481.259 278.360 C 476.799 285.019, 475 291.813, 475 302 C 475 319.967, 481.514 331.126, 495.954 337.899 C 503.685 341.525, 516.940 341.619, 524.770 338.103 C 531.533 335.066, 539.118 326.843, 542.162 319.247 C 545.447 311.048, 545.448 293.170, 542.164 284.853 C 535.883 268.950, 518.135 260.098, 501.159 264.401" stroke="none" fill="#0c1414" fill-rule="evenodd"/><path d="M 271.422 1.411 C 269.179 2.113, 255.397 9.586, 240.794 18.018 C 212.472 34.372, 210.357 35.691, 211.166 36.499 C 211.452 36.785, 234.005 36.902, 261.284 36.759 L 310.882 36.500 302.075 21.130 C 297.231 12.677, 292.044 4.464, 290.549 2.880 C 288.106 0.292, 287.206 0.007, 281.665 0.067 C 278.274 0.104, 273.665 0.708, 271.422 1.411 M 298.836 5.250 C 299.935 7.038, 308.315 21.550, 317.458 37.500 C 326.600 53.450, 335.395 67.715, 337.001 69.201 C 343.124 74.863, 352.750 75.137, 360.040 69.856 C 367.208 64.663, 369.394 54.613, 365.159 46.312 C 361.161 38.475, 355.218 34.051, 326.785 17.750 C 311.676 9.087, 298.757 2, 298.076 2 C 297.247 2, 297.498 3.075, 298.836 5.250 M 205.425 43.882 C 203.509 45.051, 201.437 47.781, 199.925 51.129 C 197.523 56.450, 197.497 56.835, 197.214 92.500 C 196.970 123.165, 197.132 128.278, 198.308 127 C 199.721 125.465, 245.611 46.178, 246.643 43.488 C 247.136 42.202, 244.581 42.001, 227.857 42.004 C 210.694 42.007, 208.151 42.220, 205.425 43.882 M 216.792 105.654 C 199.160 135.829, 198.845 136.934, 205.351 145.797 C 207.469 148.682, 211.069 152.302, 213.351 153.842 C 220.915 158.945, 268.959 186.182, 269.789 185.838 C 270.557 185.520, 223.452 103.052, 221.239 100.839 C 220.531 100.131, 219.137 101.641, 216.792 105.654 M 339.500 117.288 C 335.604 119.486, 333.235 122.853, 322.649 141.250 L 319.916 146 338.809 146 C 350.057 146, 358.988 145.551, 360.881 144.892 C 370.227 141.633, 368.689 123.418, 358.566 117.486 C 352.929 114.182, 345.151 114.102, 339.500 117.288 M 257.167 151.776 C 259.217 156.548, 275.185 182.975, 277.327 185.141 C 279.722 187.563, 280.955 188, 285.395 188 C 288.278 188, 292.922 187.321, 295.715 186.492 C 300.660 185.024, 352.872 155.556, 355.908 152.521 C 357.269 151.160, 352.150 151, 307.131 151 C 279.467 151, 256.983 151.349, 257.167 151.776" stroke="none" fill="#fc6809" fill-rule="evenodd"/></svg>