<?xml version="1.0" encoding="UTF-8"?>
<!-- Generator: Adobe Illustrator 23.0.6, SVG Export Plug-In . SVG Version: 6.00 Build 0)  -->
<svg version="1.1" id="Vrstva_1" xmlns="http://www.w3.org/2000/svg" xmlns:xlink="http://www.w3.org/1999/xlink" x="0px" y="0px" viewBox="0 0 600 141" style="enable-background:new 0 0 600 141;" xml:space="preserve">
<style type="text/css">
	.st0{fill:#003893;}
	.st1{fill:#CE1126;}
</style>
<g>
	<g>
		<g>
			<path class="st0" d="M557.4,93.6c-17,0-27.7-13.7-27.7-30.1c0-16.3,10.9-30.3,27.2-30.3c7.8,0,16.3,3.8,20.6,9.5l22.5-26     c-9.2-9.5-27-15.9-43.8-15.9c-36.7,0-65.8,24.4-65.8,62.7c0,39.1,28.9,62.7,66,62.7c17.3,0,33.8-5.7,43.5-15.2l-21.5-26.3     C573.7,90.5,565.2,93.6,557.4,93.6z"/>
			<rect x="433.6" y="4.6" class="st0" width="38.8" height="117.9"/>
		</g>
		<path class="st0" d="M66.5,33.2c7.8,0,16.3,3.8,20.6,9.5l22.5-26c-9.2-9.5-27-15.9-43.8-15.9C29.1,0.8,0,25.2,0,63.5    c0,39,28.9,62.7,66,62.7c17.3,0,33.8-5.7,43.5-15.1L88,84.8c-4.7,5.7-13.2,8.8-21.1,8.8c-17,0-27.7-13.7-27.7-30.1    C39.3,47.2,50.2,33.2,66.5,33.2z"/>
		<path class="st0" d="M368.8,1.3c-16.3,0-29.8,9.2-35.3,19.6H333V4.6h-37.6v67.4c8.7,9.2,14.1,21.6,14.1,35.5    c0,5.3-0.8,10.3-2.2,15h27.2V58.6c0-13.5,7.1-25.3,20.8-25.3c14,0,17.5,11.8,17.5,24.8v64.4h39.1V49.6    C411.9,25.9,400.5,1.3,368.8,1.3z"/>
		<path class="st0" d="M206.1,107.9c0-5.4,0.9-10.6,2.4-15.6h-42.9l57.1-58.7V4.6H122.1v29.8h53.3L120,92.2v30.3h88.2    C206.9,117.9,206.1,113,206.1,107.9z"/>
	</g>
	<path class="st1" d="M258.1,139.7c-17.6,0-32.6-13.8-32.6-32c0-17.8,14.7-32.6,32.6-32.6c17.3,0,32,14.2,32,32.3   C290.1,125.6,275.4,139.7,258.1,139.7z"/>
</g>
</svg>