<svg version="1.1" id="Layer_1" xmlns="http://www.w3.org/2000/svg" xmlns:xlink="http://www.w3.org/1999/xlink" x="0px" y="0px"
	 width="318px" height="24px" viewBox="0 0 318 24" style="enable-background:new 0 0 318 24;" xml:space="preserve">
<polygon points="198.48,0.43 198.48,3.53 204.53,3.53 204.53,23.56 208.1,23.56 208.1,3.53 214.21,3.53 214.21,0.43 "/>
<path d="M248.76,0.42v13.51c0,3.44,0.14,4.41,0.73,5.76c1.25,2.71,4.2,4.31,7.99,4.31c3.78,0,6.73-1.6,7.99-4.31
	c0.59-1.32,0.73-2.33,0.73-5.76V0.42h-3.58v13.43c0,2.47-0.07,3.26-0.38,4.13c-0.62,1.8-2.36,2.88-4.76,2.88
	c-2.18,0-3.89-0.9-4.58-2.46c-0.46-0.97-0.55-1.78-0.55-4.55V0.42H248.76z"/>
<path d="M292.3,7.22C291.82,2.59,288.95,0,284.4,0c-2.4,0-4.66,0.86-6.36,2.4c-2.33,2.15-3.54,5.48-3.54,9.66
	c0,7.26,3.92,11.95,10.03,11.95c4.86,0,7.7-2.97,8.11-8.44l-3.25-0.23c-0.35,3.68-2.05,5.55-4.97,5.55c-3.82,0-6.18-3.41-6.18-8.85
	s2.36-8.89,6.11-8.89c2.6,0,4.24,1.46,4.79,4.31h0.24L292.3,7.22z"/>
<polygon points="313.08,0.43 305.53,9.7 304.13,9.7 304.13,0.43 300.55,0.43 300.55,23.56 304.13,23.56 304.13,12.8 305.27,12.8
	313.32,23.56 318,23.56 308.26,11.25 317.27,0.43 "/>
<path d="M228.71,3.51c3.08,0,3.85,0.11,4.82,0.59c1.14,0.55,1.8,1.7,1.8,3.15c0,1.7-0.83,2.99-2.26,3.5
	c-0.94,0.35-1.7,0.42-4.2,0.42h-1.6V3.51H228.71z M223.72,23.56h3.58v-9.3h3.58l5.23,9.3h4.24l-5.69-9.88
	c2.92-1.18,4.4-3.36,4.4-6.38c0-2.67-1.32-4.88-3.5-5.93c-1.56-0.73-3.01-0.94-6.86-0.94c-1.63,0-3.46-0.04-4.96,0.35v22.78H223.72z
	"/>
<rect x="55.21" y="0.43" width="3.61" height="23.12"/>
<polygon points="107.65,0.43 107.65,23.56 121.06,23.56 121.27,20.47 111.32,20.47 111.32,0.43 "/>
<polygon points="134.7,10.04 134.7,3.51 144.83,3.51 144.61,0.43 131.12,0.43 131.12,23.56 144.89,23.56 145.1,20.47 134.7,20.47
	134.7,13.12 141.01,13.12 141.01,10.04 "/>
<path d="M38.46,15.05H31.9l3.26-10.4L38.46,15.05z M33.46,0.43l-7.91,23.12h3.68l1.74-5.41h8.44l1.7,5.41h3.71l-7.9-23.12H33.46z"/>
<polygon points="72.54,0.44 71.17,23.54 74.47,23.54 75.61,5.31 82.44,23.54 84.28,23.54 91.14,5.31 92.28,23.54 95.58,23.54
	94.21,0.44 89.57,0.44 83.36,16.79 77.21,0.44 "/>
<path d="M160.28,3.51c3.08,0,3.85,0.11,4.82,0.59c1.14,0.55,1.8,1.7,1.8,3.15c0,1.7-0.83,2.99-2.26,3.5
	c-0.94,0.35-1.7,0.42-4.2,0.42h-1.6V3.51H160.28z M155.29,23.56h3.58v-9.3h3.58l5.23,9.3h4.24l-5.69-9.88
	c2.92-1.18,4.4-3.36,4.4-6.38c0-2.67-1.32-4.88-3.5-5.93c-1.56-0.73-3.01-0.94-6.86-0.94c-1.63,0-3.46-0.04-4.96,0.35v22.78H155.29z
	"/>
<path d="M3.58,20.47V3.44h1.01c3.78,0,4.75,0.14,6.14,1.01c2.11,1.32,3.22,4.08,3.22,7.51s-1.03,6.13-2.98,7.41
	c-1.32,0.86-2.5,1.12-5.52,1.12H3.58V20.47z M0,0.78v22.78h4.2c4.82,0,6.41-0.26,8.36-1.36c3.22-1.79,5.09-5.65,5.09-10.22
	c0-4.61-2-8.62-5.29-10.37C10.58,0.66,8.6,0.43,4.68,0.43C3.35,0.43,1.24,0.44,0,0.78z"/>
</svg>
