<?xml version="1.0" encoding="UTF-8"?>
<!DOCTYPE svg PUBLIC "-//W3C//DTD SVG 1.1//EN" "http://www.w3.org/Graphics/SVG/1.1/DTD/svg11.dtd">
<svg version="1.1" xmlns="http://www.w3.org/2000/svg" xmlns:xlink="http://www.w3.org/1999/xlink" x="0" y="0" width="1024" height="768" viewBox="0, 0, 1024, 768">
  <g id="Layer_1">
    <path d="M429.017,299.657 C404.455,299.657 384.472,319.639 384.472,344.202 C384.472,368.764 404.455,388.748 429.017,388.748 C453.579,388.748 473.562,368.764 473.562,344.202 C473.562,319.639 453.579,299.657 429.017,299.657 M429.017,393 C402.11,393 380.22,371.109 380.22,344.202 C380.22,317.296 402.11,295.405 429.017,295.405 C455.924,295.405 477.814,317.296 477.814,344.202 C477.814,371.109 455.924,393 429.017,393" fill="#C61624"/>
    <path d="M440.247,337.415 C440.044,338.575 439.034,339.421 437.856,339.416 L429.765,339.381 L433.398,312.094 C433.625,310.782 434.353,309.637 435.448,308.865 C436.541,308.096 437.867,307.796 439.176,308.022 C440.696,308.286 441.997,309.225 442.744,310.627 C443.291,311.654 443.41,312.859 443.21,314.006 z" fill="#C61624"/>
    <path d="M417.526,337.343 L414.575,313.989 C414.376,312.843 414.499,311.641 415.049,310.617 C415.799,309.221 417.096,308.285 418.613,308.024 C419.927,307.794 421.249,308.096 422.342,308.865 C423.436,309.637 424.163,310.782 424.39,312.094 L428.035,339.359 L419.929,339.363 C418.744,339.364 417.729,338.511 417.526,337.343" fill="#C61624"/>
    <path d="M406.061,353.058 L406.211,352.907 C408.113,351.005 411.207,351.004 413.11,352.907 L418.778,358.575 C420.681,360.477 420.681,363.573 418.778,365.475 L418.629,365.624 C417.678,366.576 416.429,367.05 415.179,367.05 C413.93,367.05 412.681,366.576 411.73,365.624 L406.062,359.956 C405.144,359.038 404.639,357.813 404.639,356.506 C404.639,355.2 405.144,353.975 406.061,353.058" fill="#C61624"/>
    <path d="M409.091,339.254 C410.028,338.315 411.28,337.798 412.615,337.798 C413.95,337.798 415.201,338.315 416.14,339.254 L428.189,351.303 C430.133,353.247 430.133,356.409 428.189,358.352 C427.218,359.324 425.941,359.81 424.665,359.81 C423.389,359.81 422.112,359.324 421.141,358.352 L409.091,346.302 C407.148,344.358 407.148,341.197 409.091,339.254" fill="#C61624"/>
    <path d="M440.668,361.558 L443.453,336.902 C443.735,334.167 446.189,332.172 448.922,332.454 C450.289,332.594 451.472,333.279 452.277,334.268 C453.082,335.258 453.511,336.555 453.369,337.922 L450.458,364.399 C450.336,365.58 449.793,366.608 449.012,367.389 C448.886,367.532 448.772,367.682 448.626,367.812 L435.936,379.186 C433.889,381.02 430.732,380.847 428.898,378.8 C428.012,377.813 427.564,376.535 427.637,375.202 C427.71,373.869 428.294,372.648 429.283,371.761 z" fill="#C61624"/>
    <path d="M519.509,345.881 C519.509,344.751 519.479,343.57 519.418,342.338 C519.358,341.108 519.196,339.905 518.933,338.734 C518.67,337.564 518.298,336.433 517.813,335.342 C517.328,334.251 516.662,333.262 515.815,332.373 C514.804,331.365 513.633,330.617 512.301,330.133 C510.968,329.649 509.595,329.406 508.181,329.406 L498.611,329.406 L498.611,362.418 L508.181,362.418 C509.595,362.418 510.968,362.176 512.301,361.692 C513.633,361.207 514.804,360.46 515.815,359.45 C516.662,358.603 517.328,357.633 517.813,356.542 C518.298,355.452 518.67,354.313 518.933,353.121 C519.196,351.93 519.358,350.718 519.418,349.485 C519.479,348.255 519.509,347.054 519.509,345.881 M524.961,345.881 C524.961,347.417 524.889,348.971 524.749,350.546 C524.607,352.12 524.344,353.646 523.961,355.119 C523.577,356.594 523.023,358.007 522.296,359.36 C521.569,360.713 520.619,361.954 519.448,363.084 C517.913,364.539 516.178,365.62 514.239,366.325 C512.301,367.032 510.281,367.386 508.181,367.386 L493.219,367.386 L493.219,324.439 L508.181,324.439 C510.281,324.439 512.301,324.802 514.239,325.528 C516.178,326.256 517.913,327.346 519.448,328.8 C520.619,329.931 521.569,331.162 522.296,332.494 C523.023,333.827 523.577,335.232 523.961,336.705 C524.344,338.18 524.607,339.694 524.749,341.248 C524.889,342.803 524.961,344.348 524.961,345.881" fill="#C61624"/>
    <path d="M530.219,367.385 L535.731,367.385 L535.731,324.439 L530.219,324.439 z" fill="#C61624"/>
    <path d="M568.699,345.881 C568.699,344.751 568.669,343.57 568.608,342.338 C568.548,341.108 568.386,339.905 568.124,338.734 C567.861,337.564 567.487,336.433 567.002,335.342 C566.518,334.251 565.851,333.262 565.004,332.373 C563.994,331.365 562.823,330.617 561.49,330.133 C560.157,329.649 558.784,329.406 557.371,329.406 L547.801,329.406 L547.801,362.418 L557.371,362.418 C558.784,362.418 560.157,362.176 561.49,361.692 C562.823,361.207 563.994,360.46 565.004,359.45 C565.851,358.603 566.518,357.633 567.002,356.542 C567.487,355.452 567.861,354.313 568.124,353.121 C568.386,351.93 568.548,350.718 568.608,349.485 C568.669,348.255 568.699,347.054 568.699,345.881 M574.151,345.881 C574.151,347.417 574.08,348.971 573.939,350.546 C573.797,352.12 573.533,353.646 573.15,355.119 C572.766,356.594 572.212,358.007 571.485,359.36 C570.758,360.713 569.809,361.954 568.638,363.084 C567.102,364.539 565.367,365.62 563.429,366.325 C561.49,367.032 559.47,367.386 557.371,367.386 L542.409,367.386 L542.409,324.439 L557.371,324.439 C559.47,324.439 561.49,324.802 563.429,325.528 C565.367,326.256 567.102,327.346 568.638,328.8 C569.809,329.931 570.758,331.162 571.485,332.494 C572.212,333.827 572.766,335.232 573.15,336.705 C573.533,338.18 573.797,339.694 573.939,341.248 C574.08,342.803 574.151,344.348 574.151,345.881" fill="#C61624"/>
    <path d="M591.224,329.83 L583.652,352.12 L598.857,352.12 z M604.127,367.386 L600.613,357.209 L581.957,357.209 L578.503,367.386 L573.052,367.386 L588.196,324.438 L594.495,324.438 L609.699,367.386 z" fill="#C61624"/>
    <path d="M643,355.573 C643,357.39 642.657,358.966 641.971,360.299 C641.283,361.631 640.416,362.822 639.366,363.872 C637.871,365.326 636.043,366.407 633.884,367.113 C631.723,367.818 629.492,368.173 627.191,368.173 C621.981,368.173 617.882,366.801 614.894,364.053 C613.521,362.761 612.41,361.237 611.563,359.48 C610.714,357.723 610.291,355.815 610.291,353.757 L615.924,353.757 C615.924,355.049 616.206,356.291 616.772,357.481 C617.337,358.674 618.063,359.692 618.952,360.541 C619.921,361.469 621.153,362.145 622.647,362.569 C624.141,362.993 625.655,363.205 627.191,363.205 C628.846,363.205 630.35,363.023 631.703,362.66 C633.056,362.297 634.217,361.651 635.187,360.722 C635.873,360.117 636.407,359.42 636.792,358.633 C637.174,357.844 637.367,356.866 637.367,355.694 C637.367,353.999 636.801,352.524 635.671,351.272 C634.54,350.021 632.702,349.193 630.159,348.789 C628.987,348.588 627.857,348.417 626.766,348.274 C625.676,348.134 624.545,347.962 623.375,347.76 C621.759,347.517 620.254,347.114 618.861,346.549 C617.468,345.982 616.257,345.225 615.228,344.276 C614.197,343.328 613.389,342.197 612.804,340.885 C612.218,339.572 611.926,338.067 611.926,336.372 C611.926,334.756 612.259,333.212 612.925,331.737 C613.591,330.264 614.509,328.981 615.682,327.89 C618.71,325.065 622.466,323.651 626.948,323.651 C629.047,323.651 631.076,323.995 633.036,324.68 C634.994,325.368 636.68,326.397 638.093,327.769 C640.719,330.274 642.092,333.343 642.213,336.977 L636.579,336.977 C636.498,335.927 636.276,334.939 635.913,334.009 C635.55,333.08 635.065,332.273 634.459,331.586 C633.651,330.658 632.611,329.93 631.339,329.406 C630.068,328.882 628.584,328.618 626.887,328.618 C625.352,328.618 623.929,328.85 622.617,329.315 C621.305,329.779 620.183,330.537 619.255,331.586 C618.689,332.232 618.256,332.928 617.953,333.676 C617.65,334.423 617.499,335.281 617.499,336.251 C617.499,337.219 617.68,338.057 618.044,338.763 C618.407,339.47 618.892,340.066 619.497,340.552 C620.103,341.036 620.789,341.42 621.558,341.702 C622.324,341.985 623.111,342.186 623.919,342.307 C625.131,342.469 626.332,342.64 627.524,342.823 C628.714,343.005 629.896,343.196 631.067,343.398 C634.661,343.924 637.548,345.225 639.729,347.305 C641.91,349.386 643,352.141 643,355.573" fill="#C61624"/>
    <path d="M589.766,357.224 L615.915,357.224 L615.915,352.13 L589.766,352.13 z" fill="#C61624"/>
  </g>
</svg>
