<?xml version="1.0" encoding="utf-8"?><svg xmlns="http://www.w3.org/2000/svg" viewBox="0 0 363.07 96.41"><defs><style>.cls-1{fill-rule:evenodd;}</style></defs><title>Asset 2</title><g id="Layer_2" data-name="Layer 2"><g id="Layer_1-2" data-name="Layer 1"><path d="M133.91,24q14.68,0,22.58,7.14T164.37,51q0,12.74-7.65,20.15t-23.43,7.42H115.17V24Zm21.17,27.26q0-18.75-21.48-18.75h-9.22V69.88h10.24q9.91,0,15.19-4.72T155.08,51.22Z"/><rect x="176.25" y="23.96" width="9.22" height="54.59"/><path d="M208.35,66.13l-5.47,12.42H193L217.09,24h9.85L251,78.55h-9.84l-5.47-12.42Zm23.58-8.51L222,35.13,212.1,57.62Z"/><path d="M283.48,70.2a19.3,19.3,0,0,0,8.21-1.61,28.11,28.11,0,0,0,7.18-5.11l5.94,6.09q-8.67,9.62-21.05,9.61t-20.54-8q-8.16-8-8.17-20.15a27.26,27.26,0,0,1,8.32-20.31q8.33-8.12,21-8.12A27.48,27.48,0,0,1,305.59,32l-5.86,6.41a25.53,25.53,0,0,0-7.38-5.24,20.85,20.85,0,0,0-8.16-1.48A19.4,19.4,0,0,0,270.28,37a18.07,18.07,0,0,0-5.62,13.67,18.85,18.85,0,0,0,5.59,13.9A18.09,18.09,0,0,0,283.48,70.2Z"/><path d="M341,70.2a19.22,19.22,0,0,0,8.2-1.61,28.15,28.15,0,0,0,7.19-5.11l5.93,6.09q-8.67,9.62-21.05,9.61t-20.54-8q-8.16-8-8.16-20.15a27.22,27.22,0,0,1,8.32-20.31q8.31-8.12,21-8.12A27.45,27.45,0,0,1,363.07,32l-5.85,6.41a25.7,25.7,0,0,0-7.39-5.24,20.78,20.78,0,0,0-8.16-1.48A19.38,19.38,0,0,0,327.77,37a18,18,0,0,0-5.62,13.67,18.88,18.88,0,0,0,5.58,13.9A18.11,18.11,0,0,0,341,70.2Z"/><path class="cls-1" d="M37.61.18c15.07,1.59,23.81,9,34.16,20.68l-.1,0a117.81,117.81,0,0,1,7.54,9.31L52.42,59.29l-.13-.12a3.59,3.59,0,0,1-4.25-.8L36.91,46.15h0L36.79,46h0a6.06,6.06,0,0,0-4-1.78,5.39,5.39,0,0,0-3.9,1.46h0l0,0a5.32,5.32,0,0,0-1.59,3.88A6.09,6.09,0,0,0,29,53.77h0l0,0c.28.29,1.94,2.26,4,4.66,3.2,3.8,7.4,8.78,7.6,8.94a15.57,15.57,0,0,0,10.11,3.2,14.08,14.08,0,0,0,9.3-4l.36-.36,0,0L85.05,39.5a44.39,44.39,0,0,1,4.67,13.15q.09.81.15,1.62a40.84,40.84,0,0,1,0,5.42,39.59,39.59,0,0,1-3.46,14,38.6,38.6,0,0,1-8.22,11.7,39.13,39.13,0,0,1-28.8,11A42.36,42.36,0,0,1,20.57,83.52c-.44-.46-2.66-3.12-5.11-6.11-3.26-4-7-8.59-7.48-9.22H8A32.4,32.4,0,0,1,1.52,46.87,30.06,30.06,0,0,1,32.8,18.48c9.77.33,18.05,4.78,24.2,12.22a4.13,4.13,0,0,1,1.12,2.62,3.6,3.6,0,0,1-3.6,3.59,3.56,3.56,0,0,1-2.68-1.21l-1.32-1.56-.61-.74a25.49,25.49,0,0,0-17.33-7.76,23.13,23.13,0,0,0-17,6.5A22.9,22.9,0,0,0,8.69,47.29a25.21,25.21,0,0,0,5,16.6h0c.44.58,4.08,5.05,7.28,9,2.33,2.82,4.39,5.31,4.73,5.66a35.08,35.08,0,0,0,23.92,10.7,32,32,0,0,0,23.58-9,31.39,31.39,0,0,0,6.68-9.51,32.56,32.56,0,0,0,2.83-11.45,35.59,35.59,0,0,0,0-4.5c0-.64-.11-1.28-.19-1.91L64.87,72,64.78,72A21.24,21.24,0,0,1,51,77.78a22.87,22.87,0,0,1-14.78-4.67c-.76-.58-5.28-6-8.72-10C25.68,61,24.2,59.2,23.88,58.85h0l0,0a13.23,13.23,0,0,1-3.79-9.14,12.42,12.42,0,0,1,3.71-9h0l0,0A12.44,12.44,0,0,1,33,37.08a13.26,13.26,0,0,1,9,4h0l.11.13,8.58,9.41,4-4.34h0L65.2,34.92h0L70,29.72l-1.89-2.14c-11.5-13-19.67-21.47-39.28-20.5A40.67,40.67,0,0,0,2.29,18.54C1.49,19.32.72,20.13,0,21,7.67,8.13,22.27-1.44,37.61.18Z"/></g></g></svg>