<?xml version="1.0" encoding="UTF-8"?>
<svg width="512px" height="512px" viewBox="0 0 512 512" version="1.1" xmlns="http://www.w3.org/2000/svg" xmlns:xlink="http://www.w3.org/1999/xlink">
    <title>Ekstep logo</title>
    <g id="Ekstep-logo" stroke="none" stroke-width="1" fill="none" fill-rule="evenodd">
        <g id="EkStep-Logo-Copy" transform="translate(6.000000, 6.000000)" fill="#000000" fill-rule="nonzero">
            <path d="M471.515206,76.8214286 C469.987743,59.3739595 458.462457,44.3143545 441.832061,38.0357143 C437.242258,15.915231 417.457926,0.019493126 394.491623,0 L48.3214841,0 C21.6509054,0.0393357227 0.0401015594,21.2827851 4.27484755e-05,47.5 L13.0795619,47.5 C13.0995879,28.3754383 28.866209,12.8768285 48.3214841,12.8571429 L394.491623,12.8571429 C413.946898,12.8768285 429.713519,28.3754383 429.733545,47.5 L429.733545,395.035714 C429.713565,414.166082 413.952774,429.674933 394.491623,429.714286 L48.3214841,429.714286 C28.8603335,429.674933 13.0995425,414.166082 13.0795619,395.035714 L4.27484755e-05,395.035714 C-0.0297916869,417.231917 15.5595366,436.498484 37.5672481,441.464286 C43.6466004,458.118936 58.9903952,469.803712 76.9146726,471.428571 C83.627608,488.614096 100.405129,499.968537 119.132315,500 L454.620882,500 C479.674441,499.980306 499.979364,480.02054 499.999701,455.392857 L499.999701,118.214286 C500.067044,99.9716303 488.765597,83.5485149 471.515206,76.8214286 Z M48.9754579,442.535714 L394.491623,442.535714 C421.170491,442.516018 442.792985,421.261077 442.813022,395.035714 L442.813022,49.25 C454.470382,55.5727281 461.705599,67.6264986 461.705599,80.7142857 L461.705599,426.071429 C461.586571,445.747215 445.389752,461.668709 425.37372,461.786093 L81.3834936,461.786093 C67.7642657,461.847223 55.2538445,454.416177 48.9754579,442.535714 Z M490.262455,455.25 C490.242429,474.591531 474.296878,490.266028 454.620882,490.285714 L119.132315,490.285714 C105.989918,490.279609 93.9150893,483.171587 87.7052405,471.785714 L425.083065,471.785714 C450.750368,471.746383 471.547858,451.302422 471.58787,426.071429 L471.58787,87.5714286 C483.049231,93.6409503 490.183929,105.416904 490.15346,118.214286 L490.262455,455.25 Z" id="Shape"></path>
            <polygon id="Path" points="68.359375 295.898438 114.186448 295.898438 114.186448 305.171226 79.4020433 305.171226 79.4020433 329.010465 107.708083 329.010465 107.708083 338.283254 79.4020433 338.283254 79.4020433 362.797524 116.210938 362.797524 116.210938 372.070312 68.359375 372.070312"></polygon>
            <polygon id="Path" points="126.953125 295.898438 137.991887 295.898438 137.991887 337.537168 145.939796 337.537168 161.357267 317.463889 173.647089 317.463889 154.881193 341.551823 154.881193 341.764991 175.78125 372.070312 162.976286 372.070312 145.976592 346.312566 137.991887 346.312566 137.991887 371.999257 126.953125 371.999257"></polygon>
            <path d="M185.893692,355.025089 C191.314466,360.047282 198.407056,362.980372 205.863026,363.283267 C213.164428,363.283267 219.370619,359.279302 219.370619,351.986366 C219.370619,335.327011 181.476343,338.90198 181.476343,315.414435 C181.476343,303.47404 191.990362,293.964623 206.739194,293.964623 C214.85327,293.685904 222.773026,296.432897 228.898949,301.650806 L223.933995,310.552478 C219.143699,306.486724 213.074611,304.152351 206.739194,303.938786 C198.415596,303.938786 192.537967,309.050991 192.537967,315.128438 C192.537967,330.965549 230.46875,326.747086 230.46875,351.593119 C230.46875,363.426266 221.159463,373.042931 205.643984,373.042931 C195.969423,373.18357 186.633534,369.557542 179.6875,362.96152 L185.893692,355.025089 Z" id="Path"></path>
            <path d="M242.577249,327.028012 L235.351562,327.028012 L235.351562,318.573398 L242.866277,318.573398 L242.866277,302.734375 L253.16288,302.734375 L253.16288,318.573398 L266.566529,318.573398 L266.566529,327.028012 L253.199009,327.028012 L253.199009,351.392997 C253.199009,362.30908 261.00275,363.736019 265.049135,363.736019 C265.897225,363.747417 266.74437,363.675719 267.578125,363.521979 L267.578125,372.832756 C266.379512,372.978096 265.172895,373.049582 263.965282,373.046875 C256.739595,373.046875 242.685634,370.870715 242.685634,352.570221 L242.577249,327.028012 Z" id="Path"></path>
            <path d="M301.703696,316.40625 C317.672402,316.40625 326.171875,327.932086 326.171875,342.178305 C326.171875,343.574292 325.840727,346.724209 325.840727,346.724209 L284.594367,346.724209 C284.514109,351.699665 286.566754,356.483014 290.259613,359.92613 C293.952473,363.369246 298.952126,365.161256 304.058528,364.872032 C310.229543,364.669017 316.140859,362.406653 320.799914,358.464812 L325.288813,366.196429 C319.176311,371.245704 311.415067,374.012055 303.396231,373.999634 C295.446879,374.318563 287.716603,371.421159 282.042199,365.995875 C276.367794,360.570592 273.255818,353.101748 273.445708,345.364018 C273.445708,327.717319 285.624606,316.40625 301.703696,316.40625 Z M315.096804,338.81362 C314.765656,329.328072 308.731398,324.782168 301.48293,324.782168 C293.055928,324.548568 285.861463,330.65904 284.96231,338.81362 L315.096804,338.81362 Z" id="Shape"></path>
            <path d="M336.266342,317.720635 L346.168155,317.720635 L346.168155,322.373684 C346.166068,323.703563 346.080655,325.032083 345.912388,326.351864 L346.168155,326.351864 C350.003135,319.832326 357.310138,315.991588 365.02179,316.441934 C380.112006,316.441934 389.648438,328.092318 389.648438,344.857504 C389.648438,361.622691 378.687022,373.273074 364.071801,373.273074 C357.113188,373.48796 350.565868,370.075346 346.898916,364.32217 L346.679688,364.32217 C346.679688,364.32217 346.898916,366.27574 346.898916,369.081778 L346.898916,393.554688 L335.9375,393.554688 L336.266342,317.720635 Z M362.57374,364.641845 C371.452487,364.641845 378.760098,357.537952 378.760098,345.14166 C378.760098,333.278159 372.219786,325.605955 362.902583,325.605955 C354.462293,325.605955 346.716226,331.324589 346.716226,345.248218 C346.716226,354.945032 352.27001,364.641845 362.646817,364.641845 L362.57374,364.641845 Z" id="Shape"></path>
            <path d="M12.6953125,383.789063 L0,383.789063 L0,374.704838 L12.6953125,374.704838 L12.6953125,383.789063 Z M12.6953125,356.536388 L0,356.536388 L0,347.452163 L12.6953125,347.452163 L12.6953125,356.536388 Z M12.6953125,329.319477 L0,329.319477 L0,320.235252 L12.6953125,320.235252 L12.6953125,329.319477 Z M12.6953125,302.066803 L0,302.066803 L0,292.982578 L12.6953125,292.982578 L12.6953125,302.066803 Z M12.6953125,274.814128 L0,274.814128 L0,265.765667 L12.6953125,265.765667 L12.6953125,274.814128 Z M12.6953125,247.597218 L0,247.597218 L0,238.512993 L12.6953125,238.512993 L12.6953125,247.597218 Z M12.6953125,220.344543 L0,220.344543 L0,211.296082 L12.6953125,211.296082 L12.6953125,220.344543 Z M12.6953125,193.127632 L0,193.127632 L0,184.043407 L12.6953125,184.043407 L12.6953125,193.127632 Z M12.6953125,165.874958 L0,165.874958 L0,156.790733 L12.6953125,156.790733 L12.6953125,165.874958 Z M12.6953125,138.658047 L0,138.658047 L0,129.573822 L12.6953125,129.573822 L12.6953125,138.658047 Z M12.6953125,111.405373 L0,111.405373 L0,102.321148 L12.6953125,102.321148 L12.6953125,111.405373 Z M12.6953125,84.1526977 L0,84.1526977 L0,75.1042374 L12.6953125,75.1042374 L12.6953125,84.1526977 Z M12.6953125,56.9357875 L0,56.9357875 L0,47.8515625 L12.6953125,47.8515625 L12.6953125,56.9357875 Z" id="Shape"></path>
        </g>
    </g>
</svg>