<svg version="1.1" id="Layer_1" xmlns="http://www.w3.org/2000/svg" xmlns:xlink="http://www.w3.org/1999/xlink" x="0px" y="0px"
	 width="100%" viewBox="0 0 2824 776" enable-background="new 0 0 2824 776" xml:space="preserve">
<path fill="#FFFFFF" opacity="1.000000" stroke="none" 
	d="
M616.000000,777.000000 
	C466.974152,777.000000 317.948334,777.000000 168.742233,776.771851 
	C182.125336,773.246155 188.820312,764.630737 188.824219,750.244507 
	C188.844055,677.249756 189.146484,604.252808 188.619431,531.261841 
	C188.482864,512.348267 201.541000,502.723145 216.834274,502.803345 
	C305.992065,503.270874 395.153534,503.040283 484.313782,503.023438 
	C499.726715,503.020508 510.006805,492.759155 510.017395,477.375122 
	C510.044098,438.544586 510.032166,399.714050 510.006500,360.883514 
	C510.005280,359.064880 509.914185,357.205627 509.538971,355.434357 
	C506.797821,342.493225 497.825989,335.650574 483.552155,335.648163 
	C394.391907,335.633057 305.231384,335.526520 216.071686,335.744965 
	C200.281830,335.783661 188.456009,325.247803 188.680969,308.458130 
	C189.174347,271.634064 189.214798,234.793106 188.662888,197.970688 
	C188.409882,181.091965 200.943512,170.724213 216.051834,170.787460 
	C315.209595,171.202530 414.369965,171.004272 513.529480,170.995773 
	C531.198364,170.994247 540.990540,161.157928 540.996033,143.420364 
	C541.007751,105.923065 540.999695,68.425774 540.999634,30.928478 
	C540.999573,13.141329 536.400391,6.586739 520.000000,1.000000 
	C974.025818,1.000000 1428.051636,1.000000 1882.337280,1.298601 
	C1869.744751,5.016263 1863.024170,13.655319 1862.971436,26.884001 
	C1862.658325,105.528793 1862.352295,184.173615 1862.045166,262.818420 
	C1862.037598,264.762146 1862.044312,266.705933 1862.044312,269.354858 
	C1860.469604,268.485962 1859.495483,267.982117 1858.553589,267.423920 
	C1798.326416,231.733719 1733.124023,221.347046 1665.259155,234.574997 
	C1578.979614,251.392242 1516.598389,301.588104 1477.883179,380.267822 
	C1449.548706,437.850586 1444.013306,498.872009 1456.909546,561.247192 
	C1473.022339,639.179260 1515.908081,698.911194 1584.043091,739.984253 
	C1629.189209,767.199097 1678.525635,778.061096 1731.127930,775.411987 
	C1777.162598,773.093689 1820.221436,761.352844 1859.694214,737.224792 
	C1860.295410,736.857300 1861.060059,736.757202 1861.894165,736.484741 
	C1861.894165,740.702332 1862.100830,744.544495 1861.856934,748.357788 
	C1861.002075,761.718689 1866.099487,771.259338 1879.069458,775.963989 
	C1879.454346,776.103577 1879.693115,776.645569 1880.000000,777.000000 
	C1715.640869,777.000000 1551.281616,777.000000 1386.754150,776.788391 
	C1400.375977,773.169861 1406.992554,764.551697 1406.994385,749.850037 
	C1407.005615,661.857117 1407.008057,573.864197 1406.985596,485.871307 
	C1406.983643,478.540680 1406.834351,471.208679 1406.656250,463.879700 
	C1405.642944,422.181885 1398.143311,381.967010 1379.312378,344.337097 
	C1362.646240,311.033051 1339.432495,283.413116 1308.033203,263.128265 
	C1259.163574,231.557007 1205.194336,222.620361 1148.349121,229.235718 
	C1106.950928,234.053452 1070.072266,250.705276 1037.066406,276.032745 
	C1035.576416,277.176056 1034.040283,278.259155 1031.827759,279.882233 
	C1031.827759,275.313904 1031.907593,271.840668 1031.813965,268.372131 
	C1031.415039,253.602600 1021.497864,243.812912 1006.713684,243.795044 
	C964.050537,243.743469 921.387207,243.738647 878.724060,243.797913 
	C863.972534,243.818405 853.912842,253.879288 853.911011,268.536621 
	C853.890930,429.690308 853.895996,590.843994 853.928406,751.997681 
	C853.928833,754.133423 854.171448,756.314209 854.641479,758.397095 
	C856.994263,768.822876 864.458557,774.010864 874.000000,777.000000 
	C833.974182,777.000000 793.948303,777.000000 753.654480,776.683472 
	C766.053528,773.646118 773.145691,764.762878 773.146790,751.412415 
	C773.159851,590.763550 773.160217,430.114685 773.148132,269.465820 
	C773.146973,253.452408 763.433411,243.794388 747.312500,243.783508 
	C705.317139,243.755142 663.321838,243.754089 621.326477,243.783508 
	C604.988159,243.794968 595.347412,253.457733 595.344910,269.945770 
	C595.320740,430.094696 595.323792,590.243591 595.377380,750.392517 
	C595.378418,753.517456 595.715332,756.743286 596.533264,759.748413 
	C599.231262,769.660095 606.720337,774.393494 616.000000,777.000000 
M598.976746,110.283386 
	C599.795410,113.327812 600.457703,116.424545 601.456177,119.408798 
	C616.589783,164.641846 664.299011,189.060776 712.164307,174.187943 
	C758.377563,159.828445 782.583740,112.914093 769.362244,65.641090 
	C760.334106,33.361671 731.188416,8.099343 697.643982,3.818755 
	C663.913757,-0.485555 635.988953,10.228180 614.921265,37.178402 
	C598.169983,58.607002 594.561829,83.197784 598.976746,110.283386 
z"/>
<path fill="#FFFFFF" opacity="1.000000" stroke="none" 
	d="
M2019.000000,1.000000 
	C2287.610352,1.000000 2556.220947,1.000000 2824.915527,1.000000 
	C2824.915527,259.556305 2824.915527,518.112671 2824.915527,777.000000 
	C2679.307617,777.000000 2533.614990,777.000000 2387.670898,776.660095 
	C2429.510498,771.427124 2461.766602,740.716492 2468.344482,699.248962 
	C2470.086426,688.269409 2470.631348,676.947754 2473.718994,666.364685 
	C2480.658447,642.582031 2495.881348,623.146362 2512.645752,606.046448 
	C2584.270508,532.988220 2656.933838,460.948486 2729.170898,388.489960 
	C2743.168945,374.448883 2757.519043,360.700623 2770.718262,345.933929 
	C2796.090820,317.548706 2815.346191,285.691559 2820.366455,247.097885 
	C2824.676025,213.968063 2815.690674,185.704376 2787.386230,165.599564 
	C2769.030518,152.561279 2748.809082,144.571609 2725.977295,145.298584 
	C2701.232422,146.086441 2678.291748,153.691254 2656.592773,165.285568 
	C2636.891846,175.812103 2619.616943,189.522659 2603.846191,205.283539 
	C2547.271240,261.822968 2490.761719,318.429352 2433.886963,374.666138 
	C2417.408447,390.959930 2399.263184,405.327789 2378.614258,416.344940 
	C2352.294189,430.388123 2326.725098,429.576111 2302.443359,412.357483 
	C2290.814697,404.111603 2279.820801,394.764313 2269.518799,384.893768 
	C2242.070312,358.593964 2209.813232,347.172119 2172.261230,353.082489 
	C2143.033691,357.682648 2118.828125,371.780457 2102.612549,397.024445 
	C2088.064697,419.672241 2086.740234,444.955597 2091.479736,470.742004 
	C2097.368408,502.779541 2111.886719,530.871643 2132.922363,555.367004 
	C2145.924316,570.507629 2160.755371,584.060669 2174.241455,598.805725 
	C2218.324219,647.004578 2262.217285,695.377197 2306.068604,743.787231 
	C2318.211914,757.193359 2332.724854,766.802612 2349.873535,772.315735 
	C2356.106689,774.319641 2362.616455,775.463623 2369.000000,777.000000 
	C2252.640869,777.000000 2136.281738,777.000000 2019.654541,776.695435 
	C2032.606934,772.806396 2038.993164,764.280396 2038.993774,750.031189 
	C2039.002563,509.269806 2039.006348,268.508423 2038.935791,27.747068 
	C2038.934692,24.312267 2038.341553,20.769611 2037.382080,17.463827 
	C2034.708374,8.250868 2027.486328,3.860420 2019.000000,1.000000 
z"/>
<path fill="#2C2C31" opacity="1.000000" stroke="none" 
	d="
M2018.531372,1.000000 
	C2027.486328,3.860420 2034.708374,8.250868 2037.382080,17.463827 
	C2038.341553,20.769611 2038.934692,24.312267 2038.935791,27.747068 
	C2039.006348,268.508423 2039.002563,509.269806 2038.993774,750.031189 
	C2038.993164,764.280396 2032.606934,772.806396 2019.193359,776.695435 
	C1972.979126,777.000000 1926.958130,777.000000 1880.468628,777.000000 
	C1879.693115,776.645569 1879.454346,776.103577 1879.069458,775.963989 
	C1866.099487,771.259338 1861.002075,761.718689 1861.856934,748.357788 
	C1862.100830,744.544495 1861.894165,740.702332 1861.894165,736.484741 
	C1861.060059,736.757202 1860.295410,736.857300 1859.694214,737.224792 
	C1820.221436,761.352844 1777.162598,773.093689 1731.127930,775.411987 
	C1678.525635,778.061096 1629.189209,767.199097 1584.043091,739.984253 
	C1515.908081,698.911194 1473.022339,639.179260 1456.909546,561.247192 
	C1444.013306,498.872009 1449.548706,437.850586 1477.883179,380.267822 
	C1516.598389,301.588104 1578.979614,251.392242 1665.259155,234.574997 
	C1733.124023,221.347046 1798.326416,231.733719 1858.553589,267.423920 
	C1859.495483,267.982117 1860.469604,268.485962 1862.044312,269.354858 
	C1862.044312,266.705933 1862.037598,264.762146 1862.045166,262.818420 
	C1862.352295,184.173615 1862.658325,105.528793 1862.971436,26.884001 
	C1863.024170,13.655319 1869.744751,5.016263 1882.798584,1.298601 
	C1928.020874,1.000000 1973.041870,1.000000 2018.531372,1.000000 
M1700.930542,637.706055 
	C1704.554199,638.183472 1708.166870,638.777710 1711.803223,639.120117 
	C1749.089600,642.631226 1783.683960,635.267639 1814.168213,612.746643 
	C1830.981567,600.325500 1845.421753,585.804016 1851.579956,564.848389 
	C1861.112671,532.410522 1861.934448,499.638885 1855.453125,466.626099 
	C1852.620361,452.198120 1848.549072,438.007324 1838.907471,426.468933 
	C1803.565308,384.174072 1757.728271,368.903198 1704.169434,376.702087 
	C1667.265503,382.075836 1640.259521,403.476532 1620.932007,434.647217 
	C1601.381592,466.177399 1597.646729,500.653503 1604.148071,536.543945 
	C1612.754395,584.054810 1650.451172,627.723633 1700.930542,637.706055 
z"/>
<path fill="#2C2C31" opacity="1.000000" stroke="none" 
	d="
M519.531372,1.000000 
	C536.400391,6.586739 540.999573,13.141329 540.999634,30.928478 
	C540.999695,68.425774 541.007751,105.923065 540.996033,143.420364 
	C540.990540,161.157928 531.198364,170.994247 513.529480,170.995773 
	C414.369965,171.004272 315.209595,171.202530 216.051834,170.787460 
	C200.943512,170.724213 188.409882,181.091965 188.662888,197.970688 
	C189.214798,234.793106 189.174347,271.634064 188.680969,308.458130 
	C188.456009,325.247803 200.281830,335.783661 216.071686,335.744965 
	C305.231384,335.526520 394.391907,335.633057 483.552155,335.648163 
	C497.825989,335.650574 506.797821,342.493225 509.538971,355.434357 
	C509.914185,357.205627 510.005280,359.064880 510.006500,360.883514 
	C510.032166,399.714050 510.044098,438.544586 510.017395,477.375122 
	C510.006805,492.759155 499.726715,503.020508 484.313782,503.023438 
	C395.153534,503.040283 305.992065,503.270874 216.834274,502.803345 
	C201.541000,502.723145 188.482864,512.348267 188.619431,531.261841 
	C189.146484,604.252808 188.844055,677.249756 188.824219,750.244507 
	C188.820312,764.630737 182.125336,773.246155 168.280975,776.771851 
	C120.312439,777.000000 72.624878,777.000000 24.177414,776.786011 
	C9.504461,773.148315 3.004961,764.504150 3.004733,749.348938 
	C3.001118,509.875366 3.002187,270.401764 3.002205,30.928179 
	C3.002207,13.145282 7.596115,6.597742 24.000000,1.000000 
	C189.020889,1.000000 354.041779,1.000000 519.531372,1.000000 
z"/>
<path fill="#2C2C31" opacity="1.000000" stroke="none" 
	d="
M874.468628,777.000000 
	C864.458557,774.010864 856.994263,768.822876 854.641479,758.397095 
	C854.171448,756.314209 853.928833,754.133423 853.928406,751.997681 
	C853.895996,590.843994 853.890930,429.690308 853.911011,268.536621 
	C853.912842,253.879288 863.972534,243.818405 878.724060,243.797913 
	C921.387207,243.738647 964.050537,243.743469 1006.713684,243.795044 
	C1021.497864,243.812912 1031.415039,253.602600 1031.813965,268.372131 
	C1031.907593,271.840668 1031.827759,275.313904 1031.827759,279.882233 
	C1034.040283,278.259155 1035.576416,277.176056 1037.066406,276.032745 
	C1070.072266,250.705276 1106.950928,234.053452 1148.349121,229.235718 
	C1205.194336,222.620361 1259.163574,231.557007 1308.033203,263.128265 
	C1339.432495,283.413116 1362.646240,311.033051 1379.312378,344.337097 
	C1398.143311,381.967010 1405.642944,422.181885 1406.656250,463.879700 
	C1406.834351,471.208679 1406.983643,478.540680 1406.985596,485.871307 
	C1407.008057,573.864197 1407.005615,661.857117 1406.994385,749.850037 
	C1406.992554,764.551697 1400.375977,773.169861 1386.292847,776.788391 
	C1340.312378,777.000000 1294.624878,777.000000 1248.243408,776.716553 
	C1234.659058,773.152832 1227.906006,764.558899 1227.903931,751.286804 
	C1227.891479,670.489868 1228.038086,589.692383 1227.761963,508.896362 
	C1227.714355,494.970795 1226.818970,480.908600 1224.689819,467.161224 
	C1221.160278,444.369415 1211.818481,424.022522 1193.422485,409.227631 
	C1166.685425,387.724457 1136.014282,384.085999 1103.853760,392.683197 
	C1076.312134,400.045624 1054.946777,417.569641 1035.755615,437.993225 
	C1032.954468,440.974304 1031.732422,443.937195 1031.737549,448.118744 
	C1031.861572,547.906982 1031.833984,647.695435 1031.833862,747.483887 
	C1031.833740,764.914185 1027.279297,771.366150 1011.000000,777.000000 
	C965.645752,777.000000 920.291565,777.000000 874.468628,777.000000 
z"/>
<path fill="#006EE6" opacity="1.000000" stroke="none" 
	d="
M2369.468018,777.000000 
	C2362.616455,775.463623 2356.106689,774.319641 2349.873535,772.315735 
	C2332.724854,766.802612 2318.211914,757.193359 2306.068604,743.787231 
	C2262.217285,695.377197 2218.324219,647.004578 2174.241455,598.805725 
	C2160.755371,584.060669 2145.924316,570.507629 2132.922363,555.367004 
	C2111.886719,530.871643 2097.368408,502.779541 2091.479736,470.742004 
	C2086.740234,444.955597 2088.064697,419.672241 2102.612549,397.024445 
	C2118.828125,371.780457 2143.033691,357.682648 2172.261230,353.082489 
	C2209.813232,347.172119 2242.070312,358.593964 2269.518799,384.893768 
	C2279.820801,394.764313 2290.814697,404.111603 2302.443359,412.357483 
	C2326.725098,429.576111 2352.294189,430.388123 2378.614258,416.344940 
	C2399.263184,405.327789 2417.408447,390.959930 2433.886963,374.666138 
	C2490.761719,318.429352 2547.271240,261.822968 2603.846191,205.283539 
	C2619.616943,189.522659 2636.891846,175.812103 2656.592773,165.285568 
	C2678.291748,153.691254 2701.232422,146.086441 2725.977295,145.298584 
	C2748.809082,144.571609 2769.030518,152.561279 2787.386230,165.599564 
	C2815.690674,185.704376 2824.676025,213.968063 2820.366455,247.097885 
	C2815.346191,285.691559 2796.090820,317.548706 2770.718262,345.933929 
	C2757.519043,360.700623 2743.168945,374.448883 2729.170898,388.489960 
	C2656.933838,460.948486 2584.270508,532.988220 2512.645752,606.046448 
	C2495.881348,623.146362 2480.658447,642.582031 2473.718994,666.364685 
	C2470.631348,676.947754 2470.086426,688.269409 2468.344482,699.248962 
	C2461.766602,740.716492 2429.510498,771.427124 2387.209961,776.660095 
	C2381.312012,777.000000 2375.624023,777.000000 2369.468018,777.000000 
z"/>
<path fill="#2C2C31" opacity="1.000000" stroke="none" 
	d="
M616.468628,777.000000 
	C606.720337,774.393494 599.231262,769.660095 596.533264,759.748413 
	C595.715332,756.743286 595.378418,753.517456 595.377380,750.392517 
	C595.323792,590.243591 595.320740,430.094696 595.344910,269.945770 
	C595.347412,253.457733 604.988159,243.794968 621.326477,243.783508 
	C663.321838,243.754089 705.317139,243.755142 747.312500,243.783508 
	C763.433411,243.794388 773.146973,253.452408 773.148132,269.465820 
	C773.160217,430.114685 773.159851,590.763550 773.146790,751.412415 
	C773.145691,764.762878 766.053528,773.646118 753.193237,776.683472 
	C707.645752,777.000000 662.291565,777.000000 616.468628,777.000000 
z"/>
<path fill="#FFFFFF" opacity="1.000000" stroke="none" 
	d="
M1011.468628,777.000000 
	C1027.279297,771.366150 1031.833740,764.914185 1031.833862,747.483887 
	C1031.833984,647.695435 1031.861572,547.906982 1031.737549,448.118744 
	C1031.732422,443.937195 1032.954468,440.974304 1035.755615,437.993225 
	C1054.946777,417.569641 1076.312134,400.045624 1103.853760,392.683197 
	C1136.014282,384.085999 1166.685425,387.724457 1193.422485,409.227631 
	C1211.818481,424.022522 1221.160278,444.369415 1224.689819,467.161224 
	C1226.818970,480.908600 1227.714355,494.970795 1227.761963,508.896362 
	C1228.038086,589.692383 1227.891479,670.489868 1227.903931,751.286804 
	C1227.906006,764.558899 1234.659058,773.152832 1247.774902,776.716553 
	C1169.312500,777.000000 1090.624878,777.000000 1011.468628,777.000000 
z"/>
<path fill="#FEFEFE" opacity="1.000000" stroke="none" 
	d="
M23.531263,1.000000 
	C7.596115,6.597742 3.002207,13.145282 3.002205,30.928179 
	C3.002187,270.401764 3.001118,509.875366 3.004733,749.348938 
	C3.004961,764.504150 9.504461,773.148315 23.708755,776.786011 
	C16.337418,777.000000 8.674834,777.000000 1.037058,777.000000 
	C1.037058,518.333313 1.037058,259.666656 1.037058,1.000000 
	C8.403587,1.000000 15.733057,1.000000 23.531263,1.000000 
z"/>
<path fill="#2C2C31" opacity="1.000000" stroke="none" 
	d="
M598.932861,109.856110 
	C594.561829,83.197784 598.169983,58.607002 614.921265,37.178402 
	C635.988953,10.228180 663.913757,-0.485555 697.643982,3.818755 
	C731.188416,8.099343 760.334106,33.361671 769.362244,65.641090 
	C782.583740,112.914093 758.377563,159.828445 712.164307,174.187943 
	C664.299011,189.060776 616.589783,164.641846 601.456177,119.408798 
	C600.457703,116.424545 599.795410,113.327812 598.932861,109.856110 
z"/>
<path fill="#FFFFFF" opacity="1.000000" stroke="none" 
	d="
M1700.524048,637.580750 
	C1650.451172,627.723633 1612.754395,584.054810 1604.148071,536.543945 
	C1597.646729,500.653503 1601.381592,466.177399 1620.932007,434.647217 
	C1640.259521,403.476532 1667.265503,382.075836 1704.169434,376.702087 
	C1757.728271,368.903198 1803.565308,384.174072 1838.907471,426.468933 
	C1848.549072,438.007324 1852.620361,452.198120 1855.453125,466.626099 
	C1861.934448,499.638885 1861.112671,532.410522 1851.579956,564.848389 
	C1845.421753,585.804016 1830.981567,600.325500 1814.168213,612.746643 
	C1783.683960,635.267639 1749.089600,642.631226 1711.803223,639.120117 
	C1708.166870,638.777710 1704.554199,638.183472 1700.524048,637.580750 
z"/>
</svg>