<svg id="Capa_1" data-name="Capa 1" xmlns="http://www.w3.org/2000/svg" viewBox="0 0 1080 446"><defs><style>.cls-1{fill:#fe3b1f;}</style></defs><path class="cls-1" d="M125.25,92.38v63.47q0,27.47,23,27.47t23-27.47V92.38h27.09v64q0,13.29-3.49,22.94a38.75,38.75,0,0,1-11.68,15.55q-13.74,11.23-34.92,11.23t-34.8-11.23a39.25,39.25,0,0,1-11.92-15.55q-3.37-7.72-3.37-22.94v-64Z"/><path class="cls-1" d="M223,92.38h27.21V102.6q14.21-13.29,32-13.28,20.46,0,31.9,12.14Q324,111.81,324,135.18V203H296.76V141.2q0-16.35-4.82-22.59t-17.1-6.36q-13.48,0-19.14,8.4t-5.54,28.95V203H223Z"/><rect class="cls-1" x="347.19" y="92.38" width="27.09" height="110.58"/><path class="cls-1" d="M629.06,153.69H545q1.1,13.62,9.4,21.68t21.31,7.95q10.11,0,16.74-4.54T607.26,162l22.88,12A88.28,88.28,0,0,1,619,188.65a61.46,61.46,0,0,1-12.65,10,53.46,53.46,0,0,1-14.57,5.67,75,75,0,0,1-17,1.81q-26.25,0-42.15-15.88t-15.89-42.47q0-26.22,15.41-42.45,15.54-16,41.18-16,25.89,0,40.94,15.55t14.93,42.8ZM601.24,132.8q-5.65-20.45-27.33-20.44a28.68,28.68,0,0,0-9.27,1.48,26.33,26.33,0,0,0-14,10.45,28.87,28.87,0,0,0-3.85,8.51Z"/><path class="cls-1" d="M649.76,92.38h27.09v9.88q7.46-7.38,13.25-10.11a31.9,31.9,0,0,1,14-2.83q10.71,0,22.4,6.58l-12.4,23.39q-7.71-5.22-15.06-5.22-22.15,0-22.15,31.56V203H649.76Z"/><path class="cls-1" d="M805,111.23l-22.4,11.24q-5.31-10.23-13.12-10.22a9.25,9.25,0,0,0-6.39,2.38,7.41,7.41,0,0,0-2.64,5.91q0,6.36,15.64,12.6,21.57,8.75,29,16.12t7.46,19.87q0,16-12.52,26.79-12.16,10.22-29.38,10.21-29.5,0-41.78-27.13L752,168.9q4.8,7.95,7.34,10.1a17.31,17.31,0,0,0,11.8,4.32q13.73,0,13.73-11.81,0-6.81-10.6-12.71-4.1-1.94-8.19-3.75t-8.3-3.74q-11.81-5.46-16.62-10.9Q735,133.48,735,122.58a30.67,30.67,0,0,1,10.47-23.84q10.71-9.42,26-9.42,22.51,0,33.48,21.91"/><rect class="cls-1" x="833.22" y="92.38" width="27.09" height="110.58"/><path class="cls-1" d="M949.49,161.78c0,6.38-.88,24.5-25.11,24.5-10,0-19-2.67-19-13.59,0-10.7,8.74-13.79,18.35-15.65,9.61-1.64,20.53-1.84,25.77-6.17Zm-38-32.54c1.09-11.52,8.73-16.05,20.52-16.05,10.92,0,20.1,1.85,20.1,14.42,0,11.93-17.69,11.32-36.69,14-19.22,2.48-38.44,8.24-38.44,32.33,0,21.82,17,31.91,38.44,31.91,13.75,0,28.17-3.5,38-13.17A41,41,0,0,0,955.56,203H987c-2.83-4.33-3.92-14-3.92-23.68V123.9c0-25.54-27.09-30.27-49.58-30.27-25.33,0-51.31,8.23-53.06,35.61Z"/><polygon class="cls-1" points="396.15 119.67 462.02 148.17 396.15 176.78 396.15 205.39 501.24 157.61 501.19 139.09 396.15 90.95 396.15 119.67"/><path class="cls-1" d="M98.14,261.93h76v23.34H125.72v20.18h48.46v23.07H125.72v31.65H98.14Z"/><path class="cls-1" d="M688.54,297a22.59,22.59,0,0,0-3.68-9.86q-4.32-5.93-13.39-5.92-12.93,0-17.7,12.82-2.5,6.79-2.51,18.06,0,10.72,2.51,17.25,4.59,12.19,17.25,12.19,9,0,12.76-4.84t4.58-12.55h26.08A42.75,42.75,0,0,1,706,346.16q-12,16.75-35.62,16.76t-34.71-14q-11.13-14-11.13-36.25,0-25.14,12.29-39.13t33.91-14q18.39,0,30.1,8.24T714.71,297Z"/><path class="cls-1" d="M732.69,261.93h26v98.24h-26Z"/><path class="cls-1" d="M863.47,347.76q-12.29,15.17-37.3,15.16t-37.3-15.16q-12.29-15.17-12.29-36.52,0-21,12.29-36.37t37.3-15.39q25,0,37.3,15.39t12.28,36.37Q875.75,332.6,863.47,347.76Zm-20.18-14.23q6-8,6-22.64t-6-22.6q-6-7.92-17.21-7.92t-17.25,7.92q-6.06,7.92-6.05,22.6t6.05,22.64q6,8,17.25,8T843.29,333.53Z"/><path class="cls-1" d="M300.57,261.93h24.11v9.32q12.58-11.76,28.38-11.77,18.13,0,28.27,10.76,8.75,9.17,8.75,29.88v60.05H366V305.45q0-14.47-4.27-20t-15.15-5.64q-12,0-17,7.45t-4.91,25.65v47.27H300.57Z"/><path class="cls-1" d="M893.57,261.93h24.11v9.32q12.59-11.76,28.38-11.77,18.13,0,28.27,10.76,8.74,9.17,8.75,29.88v60.05H959V305.45q0-14.47-4.27-20t-15.15-5.64q-12,0-17,7.45t-4.91,25.65v47.27H893.57Z"/><path class="cls-1" d="M575.14,322.38c0,5.88-.81,22.58-23.14,22.58-9.26,0-17.51-2.46-17.51-12.52,0-9.87,8-12.71,16.9-14.42,8.86-1.52,18.92-1.7,23.75-5.69Zm-35-30c1-10.62,8-14.79,18.91-14.79,10.06,0,18.52,1.71,18.52,13.28,0,11-16.3,10.43-33.81,12.9-17.71,2.28-35.42,7.59-35.42,29.79,0,20.11,15.7,29.41,35.42,29.41,12.67,0,26-3.23,35-12.15a36.7,36.7,0,0,0,1.94,9.35h29c-2.61-4-3.54-12.76-3.54-21.68v-51c0-23.53-25-27.89-45.68-27.89-23.34,0-47.28,7.59-48.89,32.81Z"/><path class="cls-1" d="M409.22,360.19H448.4c26,0,47.57-21.51,47.57-49.13s-21.48-49.13-47.57-49.13H409.22ZM434,283.57h10.39c15.65,0,26.71,9.89,26.71,27.49,0,19.15-12.43,27.49-27,27.49H434Z"/><polygon class="cls-1" points="849.62 233.4 830.62 252.09 814.52 252.09 826.51 233.4 849.62 233.4"/><path class="cls-1" d="M219.39,261.93V321.7q0,8.39,2,12.63,3.48,7.49,13.65,7.48,13,0,17.84-10.64,2.5-5.78,2.5-15.25v-54h25.91v98.26H256.41V346.87c-.23.29-.83,1.2-1.78,2.7a18.31,18.31,0,0,1-3.4,4,35.25,35.25,0,0,1-11.58,7.39,39,39,0,0,1-13.1,2q-21.63,0-29.14-15.7-4.2-8.66-4.2-25.52V261.93Z"/></svg>