<svg version="1.2" xmlns="http://www.w3.org/2000/svg" viewBox="0 0 3160 1001" width="3160" height="1001"><style>.a{fill:#ff8c00}</style><path class="a" d="m3080 798.3c-44.4 0-80.5-36.1-80.5-80.5 0-43.3 36.1-79.4 80.5-79.4 42.3 0 79.4 36.1 79.4 79.4 0 44.4-37.2 80.5-79.4 80.5z"/><path  d="m2690 801.4c-169.2 0-272.3-112.5-272.3-287.8 0-173.3 105.2-290.9 265.1-290.9 137.2 0 255.8 85.6 255.8 282.6v41.3h-391c1.6 95.4 57.8 151.6 143.4 151.6 57.8 0 97-24.8 113.5-57.8h128.9c-23.7 97-113.4 161-243.4 161zm-141.3-344.6h264c-1-76.3-51.5-132-127.9-132-79.4 0-132 60.3-136.1 132z"/><path  d="m1877.1 632.2c0-125.9 104.2-163 208.4-169.2 38.7-2.6 119.1-7.2 143.4-8.2v-44.4c0-55.7-36.1-87.7-101.1-87.7-58.8 0-94.9 26.8-105.2 67.1h-126.9c9.3-94.9 94.9-167.1 235.2-167.1 106.2 0 229 43.3 229 192.9v374.4h-125.9v-77.4h-4.1c-24.7 47.5-77.4 88.8-165 88.8-107.3 0-187.8-58.8-187.8-169.2zm126.9-1c0 48.4 39.2 73.2 94.9 73.2 79.4 0 131-52.6 131-115.5v-46.5c-24.2 1.6-97.5 6.7-123.8 8.3-62.9 5.2-102.1 30.9-102.1 80.5z"/><path  d="m1312.8 1000.4v-770.5h129v91.8h8.2c20.7-40.2 61.9-99 160.9-99 129 0 231.1 101.1 231.1 287.8 0 184.6-99 289.8-231.1 289.8-96.9 0-140.2-57.7-160.9-99h-5.1v299.1zm128.9-491c0 109.4 47.5 182.6 133.1 182.6 86.6 0 133-76.3 133-182.6 0-104.1-45.4-179.5-133-179.5-85.6 0-133.1 71.2-133.1 179.5z"/><path  d="m984.8 801.4c-163 0-268.2-115.6-268.2-288.9 0-174.3 105.2-289.8 268.2-289.8 164 0 268.2 115.5 268.2 289.8 0 173.3-104.2 288.9-268.2 288.9zm1-105.3c89.8 0 134.1-81.5 134.1-184.6 0-102.1-44.3-184.6-134.1-184.6-91.8 0-136.2 82.5-136.2 184.6 0 103.1 44.4 184.6 136.2 184.6z"/><path  d="m389.5 822.1q-21.5 0-33.9-18.1-12.5-18.1-4.5-44.2l98.4-332.7q15.9-54.3 12.5-79.2-2.3-24.9-15.9-24.9-23.7 0-89.4 80.3-65.6 80.4-176.5 277.3l-32.8 124.5h-147.2l195.8-736.8 92.8 48.7-225.2 4.5 3.4-24.9q123.4-24.9 212.8-84.8 16.9-11.4 32.8-11.4 20.4 0 30.5 17 11.4 15.9 4.6 39.6l-108.7 407.4q-16.9 63.4-57.7 157.4l-4.5-5.7q93.9-161.8 190.1-280.7 96.2-118.8 178.8-118.8 47.6 0 65.7 48.7 19.2 48.6-12.5 156.1l-49.8 165.3q-10.2 33.9-28.3 72.4-16.9 38.5-36.2 67.9l-63.4-35.1q151.7-39.6 243.4-93.9l15.8 23.8-258 189q-17 11.3-32.9 11.3z"/></svg>