<?xml version="1.0" encoding="UTF-8"?><svg xmlns="http://www.w3.org/2000/svg" version="1.2" baseProfile="tiny" viewBox="0 0 103 22" width="103px" height="22px"><g fill="#000"><rect width="3" height="1" fill="#000"/><rect x="3" width="1" height="1" fill="#000"/><rect width="1" height="1" fill="#000" x="4"/><rect x="9" width="1" height="1" fill="#000"/><rect x="10" width="4" height="1" fill="#000"/><rect x="14" width="1" height="1" fill="#000"/><rect height="1" fill="#000" x="15" width="1"/><rect height="1" fill="#000" x="16" width="1"/><rect width="1" height="1" fill="#000" x="17"/><rect fill="#000" x="18" width="1" height="1"/><rect x="19" width="1" height="1" fill="#000"/><rect height="1" fill="#000" x="20" width="1"/><rect width="1" height="1" fill="#000" x="21"/><rect fill="#000" x="34" width="1" height="1"/><rect x="35" width="1" height="1" fill="#000"/><rect fill="#000" x="36" width="1" height="1"/><rect x="37" width="1" height="1" fill="#000"/><rect x="38" width="1" height="1" fill="#000"/><rect x="39" width="1" height="1" fill="#000"/><rect width="1" height="1" fill="#000" x="40"/><rect width="1" height="1" fill="#000" x="41"/><rect height="1" fill="#000" x="52" width="1"/><rect width="1" height="1" fill="#000" x="53"/><rect width="1" height="1" fill="#000" x="54"/><rect fill="#000" x="55" width="1" height="1"/><rect x="56" width="1" height="1" fill="#000"/><rect fill="#000" x="57" width="1" height="1"/><rect x="58" width="1" height="1" fill="#000"/><rect x="59" width="1" height="1" fill="#000"/><rect width="1" height="1" fill="#000" x="60"/><rect width="1" height="1" fill="#000" x="72"/><rect width="1" height="1" fill="#000" x="73"/><rect x="74" width="1" height="1" fill="#000"/><rect fill="#000" x="75" width="1" height="1"/><rect x="76" width="1" height="1" fill="#000"/><rect x="77" width="1" height="1" fill="#000"/><rect height="1" fill="#000" x="78" width="1"/><rect fill="#000" x="89" width="1" height="1"/><rect fill="#000" x="90" width="1" height="1"/><rect x="91" width="1" height="1" fill="#000"/><rect x="92" width="1" height="1" fill="#000"/><rect width="1" height="1" fill="#000" x="93"/><rect x="94" width="1" height="1" fill="#000"/><rect x="95" width="1" height="1" fill="#000"/><rect fill="#000" x="96" width="1" height="1"/><rect x="97" width="1" height="1" fill="#000"/><rect y="1" width="3" height="19" fill="#000"/><rect fill="#000" x="3" y="1" width="1" height="19"/><rect x="4" y="1" width="1" height="18" fill="#000"/><rect y="1" width="1" height="19" fill="#000" x="9"/><rect x="10" y="1" width="11" height="2" fill="#000"/><rect y="1" width="1" height="3" fill="#000" x="21"/><rect fill="#000" x="22" y="1" width="1" height="1"/><rect x="23" y="1" width="1" height="1" fill="#000"/><rect x="24" y="1" width="1" height="1" fill="#000"/><rect x="34" y="1" width="1" height="3" fill="#000"/><rect width="5" height="2" fill="#000" x="35" y="1"/><rect x="40" y="1" width="1" height="4" fill="#000"/><rect x="41" y="1" width="1" height="1" fill="#000"/><rect x="42" y="1" width="1" height="1" fill="#000"/><rect x="43" y="1" width="1" height="1" fill="#000"/><rect x="50" y="1" width="1" height="1" fill="#000"/><rect width="1" height="1" fill="#000" x="51" y="1"/><rect x="52" y="1" width="1" height="1" fill="#000"/><rect fill="#000" x="53" y="1" width="6" height="2"/><rect fill="#000" x="59" y="1" width="1" height="3"/><rect y="1" width="1" height="1" fill="#000" x="60"/><rect x="61" y="1" width="1" height="1" fill="#000"/><rect x="62" y="1" width="1" height="1" fill="#000"/><rect height="1" fill="#000" x="72" y="1" width="1"/><rect height="2" fill="#000" x="73" y="1" width="5"/><rect fill="#000" x="78" y="1" width="1" height="10"/><rect width="1" height="1" fill="#000" x="79" y="1"/><rect x="80" y="1" width="1" height="1" fill="#000"/><rect x="88" y="1" width="1" height="1" fill="#000"/><rect x="89" y="1" width="1" height="1" fill="#000"/><rect height="2" fill="#000" x="90" y="1" width="7"/><rect height="4" fill="#000" x="97" y="1" width="1"/><rect y="1" width="1" height="1" fill="#000" x="98"/><rect x="99" y="1" width="1" height="1" fill="#000"/><rect y="2" width="1" height="3" fill="#000" x="22"/><rect y="2" width="1" height="5" fill="#000" x="23"/><rect x="24" y="2" width="1" height="1" fill="#000"/><rect fill="#000" x="25" y="2" width="1" height="1"/><rect x="41" y="2" width="1" height="9" fill="#000"/><rect x="42" y="2" width="1" height="8" fill="#000"/><rect x="43" y="2" width="1" height="1" fill="#000"/><rect x="44" y="2" width="1" height="1" fill="#000"/><rect x="49" y="2" width="1" height="1" fill="#000"/><rect fill="#000" x="50" y="2" width="1" height="1"/><rect y="2" width="10" height="1" fill="#000" x="51"/><rect y="2" width="1" height="5" fill="#000" x="61"/><rect y="2" width="1" height="1" fill="#000" x="62"/><rect x="63" y="2" width="1" height="1" fill="#000"/><rect x="72" y="2" width="1" height="1" fill="#000"/><rect y="2" width="1" height="8" fill="#000" x="79"/><rect height="1" fill="#000" x="80" y="2" width="1"/><rect x="81" y="2" width="1" height="1" fill="#000"/><rect x="86" y="2" width="1" height="1" fill="#000"/><rect fill="#000" x="87" y="2" width="1" height="1"/><rect height="1" fill="#000" x="88" y="2" width="10"/><rect x="98" y="2" width="1" height="4" fill="#000"/><rect fill="#000" x="99" y="2" width="1" height="1"/><rect y="2" width="1" height="1" fill="#000" x="100"/><rect fill="#000" x="10" y="3" width="14" height="1"/><rect fill="#000" x="24" y="3" width="1" height="14"/><rect x="25" y="3" width="1" height="1" fill="#000"/><rect y="3" width="1" height="1" fill="#000" x="26"/><rect fill="#000" x="35" y="3" width="8" height="1"/><rect y="3" width="1" height="5" fill="#000" x="43"/><rect x="44" y="3" width="1" height="1" fill="#000"/><rect x="48" y="3" width="1" height="1" fill="#000"/><rect x="49" y="3" width="1" height="1" fill="#000"/><rect x="50" y="3" width="12" height="1" fill="#000"/><rect x="62" y="3" width="1" height="15" fill="#000"/><rect fill="#000" x="63" y="3" width="1" height="1"/><rect width="1" height="1" fill="#000" x="64" y="3"/><rect height="1" fill="#000" x="72" y="3" width="1"/><rect width="7" height="1" fill="#000" x="73" y="3"/><rect x="80" y="3" width="1" height="6" fill="#000"/><rect y="3" width="1" height="1" fill="#000" x="81"/><rect y="3" width="1" height="1" fill="#000" x="86"/><rect x="87" y="3" width="12" height="1" fill="#000"/><rect x="99" y="3" width="1" height="15" fill="#000"/><rect x="100" y="3" width="1" height="1" fill="#000"/><rect width="1" height="1" fill="#000" x="101" y="3"/><rect x="10" y="4" width="2" height="16" fill="#000"/><rect fill="#000" x="12" y="4" width="1" height="16"/><rect x="13" y="4" width="1" height="1" fill="#000"/><rect y="4" width="2" height="1" fill="#000" x="14"/><rect y="4" width="1" height="1" fill="#000" x="16"/><rect height="1" fill="#000" x="17" y="4" width="1"/><rect x="18" y="4" width="1" height="1" fill="#000"/><rect fill="#000" x="19" y="4" width="1" height="1"/><rect width="5" height="1" fill="#000" x="20" y="4"/><rect x="25" y="4" width="1" height="12" fill="#000"/><rect width="1" height="1" fill="#000" x="26" y="4"/><rect fill="#000" x="34" y="4" width="1" height="1"/><rect width="1" height="1" fill="#000" x="35" y="4"/><rect width="1" height="1" fill="#000" x="36" y="4"/><rect fill="#000" x="37" y="4" width="1" height="1"/><rect x="38" y="4" width="1" height="1" fill="#000"/><rect y="4" width="1" height="1" fill="#000" x="39"/><rect y="4" width="1" height="1" fill="#000" x="44"/><rect y="4" width="1" height="1" fill="#000" x="48"/><rect x="49" y="4" width="4" height="1" fill="#000"/><rect x="53" y="4" width="1" height="1" fill="#000"/><rect x="54" y="4" width="1" height="1" fill="#000"/><rect x="55" y="4" width="2" height="1" fill="#000"/><rect x="57" y="4" width="1" height="1" fill="#000"/><rect y="4" width="1" height="1" fill="#000" x="58"/><rect height="1" fill="#000" x="59" y="4" width="4"/><rect x="63" y="4" width="1" height="13" fill="#000"/><rect x="64" y="4" width="1" height="1" fill="#000"/><rect x="72" y="4" width="1" height="1" fill="#000"/><rect width="1" height="1" fill="#000" x="73" y="4"/><rect x="74" y="4" width="1" height="1" fill="#000"/><rect y="4" width="1" height="1" fill="#000" x="75"/><rect y="4" width="1" height="1" fill="#000" x="76"/><rect y="4" width="3" height="1" fill="#000" x="77"/><rect height="1" fill="#000" x="81" y="4" width="1"/><rect fill="#000" x="82" y="4" width="1" height="1"/><rect x="85" y="4" width="1" height="1" fill="#000"/><rect x="86" y="4" width="4" height="1" fill="#000"/><rect x="90" y="4" width="1" height="1" fill="#000"/><rect x="91" y="4" width="1" height="1" fill="#000"/><rect y="4" width="1" height="1" fill="#000" x="92"/><rect x="93" y="4" width="1" height="1" fill="#000"/><rect fill="#000" x="94" y="4" width="1" height="1"/><rect x="95" y="4" width="1" height="1" fill="#000"/><rect x="96" y="4" width="4" height="1" fill="#000"/><rect height="13" fill="#000" x="100" y="4" width="1"/><rect height="1" fill="#000" x="101" y="4" width="1"/><rect width="1" height="1" fill="#000" x="102" y="4"/><rect fill="#000" x="13" y="5" width="1" height="11"/><rect x="19" y="5" width="1" height="1" fill="#000"/><rect height="1" fill="#000" x="20" y="5" width="1"/><rect x="21" y="5" width="1" height="1" fill="#000"/><rect x="22" y="5" width="3" height="1" fill="#000"/><rect x="26" y="5" width="1" height="1" fill="#000"/><rect y="5" width="1" height="1" fill="#000" x="27"/><rect x="34" y="5" width="1" height="1" fill="#000"/><rect x="35" y="5" width="1" height="1" fill="#000"/><rect x="39" y="5" width="1" height="1" fill="#000"/><rect x="40" y="5" width="3" height="5" fill="#000"/><rect y="5" width="1" height="1" fill="#000" x="44"/><rect x="45" y="5" width="1" height="1" fill="#000"/><rect fill="#000" x="47" y="5" width="1" height="1"/><rect x="48" y="5" width="1" height="1" fill="#000"/><rect y="5" width="3" height="2" fill="#000" x="49"/><rect width="1" height="1" fill="#000" x="52" y="5"/><rect x="53" y="5" width="1" height="1" fill="#000"/><rect y="5" width="1" height="1" fill="#000" x="54"/><rect y="5" width="1" height="1" fill="#000" x="58"/><rect x="59" y="5" width="1" height="1" fill="#000"/><rect x="60" y="5" width="3" height="1" fill="#000"/><rect width="1" height="1" fill="#000" x="64" y="5"/><rect y="5" width="1" height="1" fill="#000" x="65"/><rect height="1" fill="#000" x="72" y="5" width="1"/><rect y="5" width="1" height="1" fill="#000" x="76"/><rect x="77" y="5" width="1" height="1" fill="#000"/><rect x="81" y="5" width="1" height="2" fill="#000"/><rect x="82" y="5" width="1" height="1" fill="#000"/><rect x="85" y="5" width="1" height="1" fill="#000"/><rect x="86" y="5" width="3" height="12" fill="#000"/><rect x="89" y="5" width="1" height="1" fill="#000"/><rect x="90" y="5" width="1" height="1" fill="#000"/><rect x="91" y="5" width="1" height="1" fill="#000"/><rect x="95" y="5" width="1" height="1" fill="#000"/><rect x="96" y="5" width="1" height="1" fill="#000"/><rect x="97" y="5" width="4" height="1" fill="#000"/><rect x="101" y="5" width="1" height="11" fill="#000"/><rect y="5" width="1" height="1" fill="#000" x="102"/><rect x="21" y="6" width="1" height="1" fill="#000"/><rect x="22" y="6" width="1" height="1" fill="#000"/><rect y="6" width="1" height="9" fill="#000" x="26"/><rect x="27" y="6" width="1" height="1" fill="#000"/><rect height="1" fill="#000" x="44" y="6" width="1"/><rect x="45" y="6" width="1" height="1" fill="#000"/><rect height="1" fill="#000" x="47" y="6" width="1"/><rect x="48" y="6" width="3" height="9" fill="#000"/><rect x="52" y="6" width="1" height="1" fill="#000"/><rect fill="#000" x="53" y="6" width="1" height="1"/><rect height="1" fill="#000" x="59" y="6" width="1"/><rect x="60" y="6" width="1" height="1" fill="#000"/><rect x="64" y="6" width="1" height="9" fill="#000"/><rect y="6" width="1" height="1" fill="#000" x="65"/><rect x="77" y="6" width="1" height="1" fill="#000"/><rect x="82" y="6" width="1" height="1" fill="#000"/><rect height="1" fill="#000" x="84" y="6" width="1"/><rect x="85" y="6" width="3" height="9" fill="#000"/><rect x="89" y="6" width="1" height="1" fill="#000"/><rect x="90" y="6" width="1" height="1" fill="#000"/><rect height="1" fill="#000" x="97" y="6" width="1"/><rect x="98" y="6" width="3" height="1" fill="#000"/><rect x="102" y="6" width="1" height="1" fill="#000"/><rect x="22" y="7" width="1" height="1" fill="#000"/><rect x="23" y="7" width="3" height="1" fill="#000"/><rect y="7" width="1" height="1" fill="#000" x="27"/><rect y="7" width="1" height="1" fill="#000" x="39"/><rect height="1" fill="#000" x="44" y="7" width="1"/><rect x="47" y="7" width="1" height="1" fill="#000"/><rect height="1" fill="#000" x="51" y="7" width="1"/><rect x="52" y="7" width="1" height="1" fill="#000"/><rect y="7" width="1" height="1" fill="#000" x="60"/><rect x="61" y="7" width="3" height="1" fill="#000"/><rect y="7" width="1" height="1" fill="#000" x="65"/><rect y="7" width="1" height="1" fill="#000" x="76"/><rect height="1" fill="#000" x="77" y="7" width="1"/><rect height="1" fill="#000" x="81" y="7" width="1"/><rect width="1" height="1" fill="#000" x="82" y="7"/><rect fill="#000" x="84" y="7" width="1" height="1"/><rect x="89" y="7" width="1" height="1" fill="#000"/><rect x="97" y="7" width="1" height="1" fill="#000"/><rect x="98" y="7" width="1" height="1" fill="#000"/><rect width="1" height="1" fill="#000" x="102" y="7"/><rect height="1" fill="#000" x="22" y="8" width="1"/><rect width="1" height="1" fill="#000" x="23" y="8"/><rect width="1" height="4" fill="#000" x="27" y="8"/><rect x="28" y="8" width="1" height="1" fill="#000"/><rect x="38" y="8" width="1" height="1" fill="#000"/><rect x="39" y="8" width="1" height="1" fill="#000"/><rect y="8" width="1" height="1" fill="#000" x="43"/><rect x="44" y="8" width="1" height="1" fill="#000"/><rect x="47" y="8" width="1" height="1" fill="#000"/><rect x="51" y="8" width="1" height="1" fill="#000"/><rect x="52" y="8" width="1" height="1" fill="#000"/><rect width="1" height="1" fill="#000" x="60" y="8"/><rect x="61" y="8" width="1" height="1" fill="#000"/><rect height="1" fill="#000" x="65" y="8" width="1"/><rect x="75" y="8" width="1" height="1" fill="#000"/><rect width="1" height="1" fill="#000" x="76" y="8"/><rect x="77" y="8" width="3" height="2" fill="#000"/><rect x="81" y="8" width="1" height="1" fill="#000"/><rect fill="#000" x="82" y="8" width="1" height="1"/><rect x="84" y="8" width="1" height="1" fill="#000"/><rect height="1" fill="#000" x="89" y="8" width="1"/><rect x="98" y="8" width="1" height="1" fill="#000"/><rect width="1" height="1" fill="#000" x="102" y="8"/><rect x="23" y="9" width="1" height="1" fill="#000"/><rect height="1" fill="#000" x="28" y="9" width="1"/><rect y="9" width="1" height="1" fill="#000" x="37"/><rect width="1" height="1" fill="#000" x="38" y="9"/><rect width="3" height="2" fill="#000" x="39" y="9"/><rect y="9" width="1" height="1" fill="#000" x="43"/><rect x="44" y="9" width="1" height="1" fill="#000"/><rect x="47" y="9" width="1" height="1" fill="#000"/><rect fill="#000" x="51" y="9" width="1" height="1"/><rect x="61" y="9" width="1" height="1" fill="#000"/><rect fill="#000" x="65" y="9" width="1" height="1"/><rect x="74" y="9" width="1" height="1" fill="#000"/><rect y="9" width="1" height="1" fill="#000" x="75"/><rect x="76" y="9" width="4" height="1" fill="#000"/><rect x="80" y="9" width="1" height="1" fill="#000"/><rect height="1" fill="#000" x="81" y="9" width="1"/><rect x="84" y="9" width="1" height="1" fill="#000"/><rect x="89" y="9" width="1" height="1" fill="#000"/><rect x="98" y="9" width="1" height="1" fill="#000"/><rect x="102" y="9" width="1" height="1" fill="#000"/><rect x="23" y="10" width="1" height="1" fill="#000"/><rect x="28" y="10" width="1" height="1" fill="#000"/><rect x="36" y="10" width="1" height="1" fill="#000"/><rect height="1" fill="#000" x="37" y="10" width="1"/><rect y="10" width="4" height="1" fill="#000" x="38"/><rect x="42" y="10" width="1" height="1" fill="#000"/><rect y="10" width="1" height="1" fill="#000" x="43"/><rect x="47" y="10" width="1" height="1" fill="#000"/><rect width="1" height="1" fill="#000" x="51" y="10"/><rect x="61" y="10" width="1" height="1" fill="#000"/><rect width="1" height="1" fill="#000" x="65" y="10"/><rect x="73" y="10" width="1" height="1" fill="#000"/><rect x="74" y="10" width="1" height="1" fill="#000"/><rect y="10" width="4" height="1" fill="#000" x="75"/><rect x="79" y="10" width="1" height="1" fill="#000"/><rect height="1" fill="#000" x="80" y="10" width="1"/><rect width="1" height="1" fill="#000" x="81" y="10"/><rect fill="#000" x="84" y="10" width="1" height="1"/><rect fill="#000" x="89" y="10" width="1" height="1"/><rect fill="#000" x="98" y="10" width="1" height="1"/><rect x="102" y="10" width="1" height="1" fill="#000"/><rect height="1" fill="#000" x="23" y="11" width="1"/><rect width="1" height="1" fill="#000" x="28" y="11"/><rect x="35" y="11" width="1" height="1" fill="#000"/><rect y="11" width="1" height="1" fill="#000" x="36"/><rect width="4" height="1" fill="#000" x="37" y="11"/><rect width="1" height="1" fill="#000" x="41" y="11"/><rect x="42" y="11" width="1" height="1" fill="#000"/><rect height="1" fill="#000" x="47" y="11" width="1"/><rect y="11" width="1" height="1" fill="#000" x="51"/><rect x="61" y="11" width="1" height="1" fill="#000"/><rect x="65" y="11" width="1" height="1" fill="#000"/><rect height="1" fill="#000" x="72" y="11" width="1"/><rect x="73" y="11" width="1" height="1" fill="#000"/><rect x="74" y="11" width="4" height="1" fill="#000"/><rect x="78" y="11" width="1" height="1" fill="#000"/><rect x="79" y="11" width="1" height="1" fill="#000"/><rect x="80" y="11" width="1" height="1" fill="#000"/><rect height="1" fill="#000" x="84" y="11" width="1"/><rect y="11" width="1" height="1" fill="#000" x="89"/><rect y="11" width="1" height="1" fill="#000" x="98"/><rect x="102" y="11" width="1" height="1" fill="#000"/><rect height="1" fill="#000" x="23" y="12" width="1"/><rect x="27" y="12" width="1" height="1" fill="#000"/><rect x="28" y="12" width="1" height="1" fill="#000"/><rect x="34" y="12" width="1" height="1" fill="#000"/><rect fill="#000" x="35" y="12" width="1" height="1"/><rect x="36" y="12" width="4" height="1" fill="#000"/><rect width="1" height="1" fill="#000" x="40" y="12"/><rect y="12" width="1" height="1" fill="#000" x="41"/><rect x="47" y="12" width="1" height="1" fill="#000"/><rect y="12" width="1" height="1" fill="#000" x="51"/><rect x="61" y="12" width="1" height="1" fill="#000"/><rect fill="#000" x="65" y="12" width="1" height="1"/><rect fill="#000" x="72" y="12" width="1" height="1"/><rect x="73" y="12" width="4" height="1" fill="#000"/><rect width="1" height="1" fill="#000" x="77" y="12"/><rect width="1" height="1" fill="#000" x="78" y="12"/><rect height="1" fill="#000" x="79" y="12" width="1"/><rect width="1" height="1" fill="#000" x="84" y="12"/><rect width="1" height="1" fill="#000" x="89" y="12"/><rect width="1" height="1" fill="#000" x="98" y="12"/><rect x="102" y="12" width="1" height="1" fill="#000"/><rect x="22" y="13" width="1" height="1" fill="#000"/><rect fill="#000" x="23" y="13" width="3" height="3"/><rect x="27" y="13" width="1" height="1" fill="#000"/><rect y="13" width="1" height="1" fill="#000" x="28"/><rect x="34" y="13" width="1" height="7" fill="#000"/><rect height="1" fill="#000" x="35" y="13" width="3"/><rect height="1" fill="#000" x="38" y="13" width="1"/><rect x="39" y="13" width="1" height="1" fill="#000"/><rect x="40" y="13" width="1" height="1" fill="#000"/><rect x="47" y="13" width="1" height="1" fill="#000"/><rect x="51" y="13" width="1" height="1" fill="#000"/><rect x="61" y="13" width="1" height="1" fill="#000"/><rect x="65" y="13" width="1" height="1" fill="#000"/><rect x="72" y="13" width="1" height="7" fill="#000"/><rect fill="#000" x="73" y="13" width="3" height="1"/><rect width="1" height="1" fill="#000" x="76" y="13"/><rect width="1" height="1" fill="#000" x="77" y="13"/><rect height="1" fill="#000" x="78" y="13" width="1"/><rect y="13" width="1" height="1" fill="#000" x="84"/><rect x="89" y="13" width="1" height="1" fill="#000"/><rect x="98" y="13" width="1" height="1" fill="#000"/><rect x="102" y="13" width="1" height="1" fill="#000"/><rect x="21" y="14" width="1" height="1" fill="#000"/><rect x="22" y="14" width="1" height="1" fill="#000"/><rect fill="#000" x="27" y="14" width="1" height="1"/><rect x="35" y="14" width="2" height="1" fill="#000"/><rect x="37" y="14" width="1" height="1" fill="#000"/><rect x="38" y="14" width="1" height="1" fill="#000"/><rect x="39" y="14" width="1" height="1" fill="#000"/><rect x="47" y="14" width="1" height="1" fill="#000"/><rect x="51" y="14" width="1" height="5" fill="#000"/><rect x="52" y="14" width="1" height="1" fill="#000"/><rect fill="#000" x="60" y="14" width="1" height="1"/><rect y="14" width="3" height="3" fill="#000" x="61"/><rect x="65" y="14" width="1" height="1" fill="#000"/><rect x="73" y="14" width="2" height="1" fill="#000"/><rect width="1" height="1" fill="#000" x="75" y="14"/><rect x="76" y="14" width="1" height="1" fill="#000"/><rect height="1" fill="#000" x="84" y="14" width="1"/><rect height="1" fill="#000" x="89" y="14" width="1"/><rect y="14" width="1" height="1" fill="#000" x="97"/><rect height="1" fill="#000" x="98" y="14" width="1"/><rect y="14" width="1" height="1" fill="#000" x="102"/><rect width="1" height="1" fill="#000" x="20" y="15"/><rect x="21" y="15" width="1" height="1" fill="#000"/><rect x="22" y="15" width="4" height="1" fill="#000"/><rect width="1" height="1" fill="#000" x="26" y="15"/><rect x="27" y="15" width="1" height="1" fill="#000"/><rect x="35" y="15" width="1" height="5" fill="#000"/><rect fill="#000" x="36" y="15" width="1" height="5"/><rect x="37" y="15" width="1" height="1" fill="#000"/><rect y="15" width="1" height="1" fill="#000" x="38"/><rect width="1" height="1" fill="#000" x="47" y="15"/><rect fill="#000" x="48" y="15" width="3" height="1"/><rect width="1" height="1" fill="#000" x="52" y="15"/><rect width="1" height="1" fill="#000" x="59" y="15"/><rect y="15" width="1" height="1" fill="#000" x="60"/><rect height="1" fill="#000" x="64" y="15" width="1"/><rect x="65" y="15" width="1" height="1" fill="#000"/><rect x="73" y="15" width="1" height="5" fill="#000"/><rect x="74" y="15" width="1" height="1" fill="#000"/><rect x="75" y="15" width="1" height="1" fill="#000"/><rect fill="#000" x="84" y="15" width="1" height="1"/><rect fill="#000" x="85" y="15" width="3" height="1"/><rect fill="#000" x="89" y="15" width="1" height="1"/><rect x="90" y="15" width="1" height="1" fill="#000"/><rect x="97" y="15" width="1" height="1" fill="#000"/><rect y="15" width="3" height="2" fill="#000" x="98"/><rect x="102" y="15" width="1" height="1" fill="#000"/><rect y="16" width="1" height="1" fill="#000" x="13"/><rect x="14" y="16" width="1" height="1" fill="#000"/><rect width="1" height="1" fill="#000" x="15" y="16"/><rect x="16" y="16" width="1" height="1" fill="#000"/><rect x="17" y="16" width="1" height="1" fill="#000"/><rect height="1" fill="#000" x="18" y="16" width="1"/><rect fill="#000" x="19" y="16" width="1" height="1"/><rect x="20" y="16" width="1" height="1" fill="#000"/><rect fill="#000" x="21" y="16" width="4" height="1"/><rect x="25" y="16" width="1" height="1" fill="#000"/><rect height="1" fill="#000" x="26" y="16" width="1"/><rect y="16" width="1" height="1" fill="#000" x="27"/><rect width="1" height="1" fill="#000" x="37" y="16"/><rect width="6" height="1" fill="#000" x="38" y="16"/><rect height="1" fill="#000" x="44" y="16" width="1"/><rect x="45" y="16" width="1" height="1" fill="#000"/><rect y="16" width="1" height="1" fill="#000" x="47"/><rect height="1" fill="#000" x="48" y="16" width="1"/><rect y="16" width="3" height="1" fill="#000" x="49"/><rect width="1" height="4" fill="#000" x="52" y="16"/><rect height="1" fill="#000" x="53" y="16" width="1"/><rect x="54" y="16" width="1" height="1" fill="#000"/><rect y="16" width="1" height="1" fill="#000" x="58"/><rect x="59" y="16" width="1" height="1" fill="#000"/><rect x="60" y="16" width="3" height="2" fill="#000"/><rect x="64" y="16" width="1" height="1" fill="#000"/><rect y="16" width="1" height="1" fill="#000" x="65"/><rect y="16" width="1" height="1" fill="#000" x="74"/><rect x="75" y="16" width="6" height="1" fill="#000"/><rect width="1" height="1" fill="#000" x="81" y="16"/><rect x="82" y="16" width="1" height="1" fill="#000"/><rect x="85" y="16" width="1" height="1" fill="#000"/><rect x="89" y="16" width="1" height="3" fill="#000"/><rect width="1" height="1" fill="#000" x="90" y="16"/><rect fill="#000" x="91" y="16" width="1" height="1"/><rect y="16" width="1" height="1" fill="#000" x="95"/><rect x="96" y="16" width="1" height="1" fill="#000"/><rect height="1" fill="#000" x="97" y="16" width="1"/><rect x="101" y="16" width="1" height="1" fill="#000"/><rect x="102" y="16" width="1" height="1" fill="#000"/><rect height="1" fill="#000" x="13" y="17" width="11"/><rect x="24" y="17" width="1" height="1" fill="#000"/><rect x="25" y="17" width="1" height="1" fill="#000"/><rect width="1" height="1" fill="#000" x="26" y="17"/><rect width="7" height="3" fill="#000" x="37" y="17"/><rect width="1" height="3" fill="#000" x="44" y="17"/><rect x="45" y="17" width="1" height="2" fill="#000"/><rect width="1" height="1" fill="#000" x="48" y="17"/><rect y="17" width="4" height="1" fill="#000" x="49"/><rect x="53" y="17" width="1" height="3" fill="#000"/><rect width="1" height="1" fill="#000" x="54" y="17"/><rect x="55" y="17" width="1" height="1" fill="#000"/><rect x="56" y="17" width="1" height="1" fill="#000"/><rect width="1" height="1" fill="#000" x="57" y="17"/><rect x="58" y="17" width="1" height="1" fill="#000"/><rect y="17" width="4" height="1" fill="#000" x="59"/><rect width="1" height="1" fill="#000" x="63" y="17"/><rect x="64" y="17" width="1" height="1" fill="#000"/><rect fill="#000" x="74" y="17" width="7" height="3"/><rect fill="#000" x="81" y="17" width="1" height="3"/><rect x="82" y="17" width="1" height="2" fill="#000"/><rect width="1" height="1" fill="#000" x="85" y="17"/><rect x="86" y="17" width="4" height="1" fill="#000"/><rect y="17" width="1" height="3" fill="#000" x="90"/><rect fill="#000" x="91" y="17" width="1" height="1"/><rect width="1" height="1" fill="#000" x="92" y="17"/><rect x="93" y="17" width="1" height="1" fill="#000"/><rect x="94" y="17" width="1" height="1" fill="#000"/><rect x="95" y="17" width="1" height="1" fill="#000"/><rect width="4" height="1" fill="#000" x="96" y="17"/><rect width="1" height="1" fill="#000" x="100" y="17"/><rect x="101" y="17" width="1" height="1" fill="#000"/><rect x="13" y="18" width="10" height="1" fill="#000"/><rect fill="#000" x="23" y="18" width="1" height="1"/><rect height="1" fill="#000" x="24" y="18" width="1"/><rect x="25" y="18" width="1" height="1" fill="#000"/><rect x="48" y="18" width="1" height="1" fill="#000"/><rect width="1" height="1" fill="#000" x="49" y="18"/><rect y="18" width="12" height="1" fill="#000" x="50"/><rect width="1" height="1" fill="#000" x="62" y="18"/><rect x="63" y="18" width="1" height="1" fill="#000"/><rect fill="#000" x="64" y="18" width="1" height="1"/><rect x="86" y="18" width="1" height="1" fill="#000"/><rect x="87" y="18" width="12" height="1" fill="#000"/><rect height="1" fill="#000" x="99" y="18" width="1"/><rect x="100" y="18" width="1" height="1" fill="#000"/><rect x="101" y="18" width="1" height="1" fill="#000"/><rect width="1" height="1" fill="#000" x="4" y="19"/><rect width="9" height="1" fill="#000" x="13" y="19"/><rect x="22" y="19" width="1" height="1" fill="#000"/><rect height="1" fill="#000" x="23" y="19" width="1"/><rect fill="#000" x="24" y="19" width="1" height="1"/><rect y="19" width="1" height="1" fill="#000" x="45"/><rect x="49" y="19" width="1" height="1" fill="#000"/><rect y="19" width="1" height="1" fill="#000" x="50"/><rect x="51" y="19" width="10" height="1" fill="#000"/><rect x="61" y="19" width="1" height="1" fill="#000"/><rect y="19" width="1" height="1" fill="#000" x="62"/><rect height="1" fill="#000" x="63" y="19" width="1"/><rect x="82" y="19" width="1" height="1" fill="#000"/><rect fill="#000" x="86" y="19" width="1" height="1"/><rect x="87" y="19" width="1" height="1" fill="#000"/><rect x="88" y="19" width="10" height="1" fill="#000"/><rect width="1" height="1" fill="#000" x="98" y="19"/><rect x="99" y="19" width="1" height="1" fill="#000"/><rect x="100" y="19" width="1" height="1" fill="#000"/><rect y="20" width="3" height="1" fill="#000"/><rect x="3" y="20" width="1" height="1" fill="#000"/><rect width="1" height="1" fill="#000" x="4" y="20"/><rect height="1" fill="#000" x="9" y="20" width="1"/><rect height="1" fill="#000" x="10" y="20" width="9"/><rect x="19" y="20" width="1" height="1" fill="#000"/><rect height="1" fill="#000" x="20" y="20" width="1"/><rect fill="#000" x="21" y="20" width="1" height="1"/><rect width="1" height="1" fill="#000" x="22" y="20"/><rect fill="#000" x="23" y="20" width="1" height="1"/><rect fill="#000" x="34" y="20" width="1" height="1"/><rect width="9" height="1" fill="#000" x="35" y="20"/><rect x="44" y="20" width="1" height="1" fill="#000"/><rect x="45" y="20" width="1" height="1" fill="#000"/><rect x="50" y="20" width="1" height="1" fill="#000"/><rect x="51" y="20" width="1" height="1" fill="#000"/><rect x="52" y="20" width="7" height="1" fill="#000"/><rect x="59" y="20" width="1" height="1" fill="#000"/><rect x="60" y="20" width="1" height="1" fill="#000"/><rect height="1" fill="#000" x="61" y="20" width="1"/><rect x="62" y="20" width="1" height="1" fill="#000"/><rect y="20" width="1" height="1" fill="#000" x="72"/><rect height="1" fill="#000" x="73" y="20" width="8"/><rect y="20" width="1" height="1" fill="#000" x="81"/><rect width="1" height="1" fill="#000" x="82" y="20"/><rect x="87" y="20" width="1" height="1" fill="#000"/><rect width="1" height="1" fill="#000" x="88" y="20"/><rect y="20" width="1" height="1" fill="#000" x="89"/><rect x="90" y="20" width="7" height="1" fill="#000"/><rect y="20" width="1" height="1" fill="#000" x="97"/><rect height="1" fill="#000" x="98" y="20" width="1"/><rect y="20" width="1" height="1" fill="#000" x="99"/><rect width="2" height="1" fill="#000" y="21"/><rect x="2" y="21" width="1" height="1" fill="#000"/><rect x="3" y="21" width="1" height="1" fill="#000"/><rect fill="#000" x="4" y="21" width="1" height="1"/><rect x="9" y="21" width="1" height="1" fill="#000"/><rect x="10" y="21" width="6" height="1" fill="#000"/><rect x="16" y="21" width="1" height="1" fill="#000"/><rect height="1" fill="#000" x="17" y="21" width="1"/><rect fill="#000" x="18" y="21" width="1" height="1"/><rect x="19" y="21" width="1" height="1" fill="#000"/><rect x="20" y="21" width="1" height="1" fill="#000"/><rect y="21" width="1" height="1" fill="#000" x="34"/><rect y="21" width="1" height="1" fill="#000" x="35"/><rect x="36" y="21" width="8" height="1" fill="#000"/><rect x="44" y="21" width="1" height="1" fill="#000"/><rect x="45" y="21" width="1" height="1" fill="#000"/><rect x="52" y="21" width="1" height="1" fill="#000"/><rect x="53" y="21" width="1" height="1" fill="#000"/><rect fill="#000" x="54" y="21" width="1" height="1"/><rect width="1" height="1" fill="#000" x="55" y="21"/><rect x="56" y="21" width="1" height="1" fill="#000"/><rect width="1" height="1" fill="#000" x="57" y="21"/><rect height="1" fill="#000" x="58" y="21" width="1"/><rect x="59" y="21" width="1" height="1" fill="#000"/><rect x="60" y="21" width="1" height="1" fill="#000"/><rect width="1" height="1" fill="#000" x="72" y="21"/><rect x="73" y="21" width="8" height="1" fill="#000"/><rect fill="#000" x="81" y="21" width="1" height="1"/><rect y="21" width="1" height="1" fill="#000" x="82"/><rect y="21" width="1" height="1" fill="#000" x="89"/><rect y="21" width="1" height="1" fill="#000" x="90"/><rect x="91" y="21" width="1" height="1" fill="#000"/><rect height="1" fill="#000" x="92" y="21" width="1"/><rect x="93" y="21" width="1" height="1" fill="#000"/><rect x="94" y="21" width="1" height="1" fill="#000"/><rect y="21" width="1" height="1" fill="#000" x="95"/><rect x="96" y="21" width="1" height="1" fill="#000"/><rect x="97" y="21" width="1" height="1" fill="#000"/></g></svg>