<?xml version="1.0" standalone="no"?>
<!DOCTYPE svg PUBLIC "-//W3C//DTD SVG 20010904//EN"
 "http://www.w3.org/TR/2001/REC-SVG-20010904/DTD/svg10.dtd">
<svg version="1.0" xmlns="http://www.w3.org/2000/svg"
 width="312.000000pt" height="319.000000pt" viewBox="0 0 312.000000 319.000000"
 preserveAspectRatio="xMidYMid meet">

<g transform="translate(0.000000,319.000000) scale(0.100000,-0.100000)"
fill="#000000" stroke="none">
<path d="M1549 3160 c-14 -38 -46 -40 -59 -5 -13 34 -33 32 -47 -5 -14 -37
-39 -39 -55 -5 -15 34 -37 32 -44 -4 -8 -39 -41 -48 -56 -15 -15 33 -42 27
-48 -11 -7 -38 -34 -44 -55 -11 -21 32 -45 23 -45 -15 0 -39 -25 -48 -55 -19
-27 26 -49 18 -41 -15 4 -14 0 -28 -9 -35 -13 -11 -20 -9 -40 10 -28 27 -45
19 -45 -21 0 -36 -24 -48 -49 -25 -30 27 -43 20 -39 -21 3 -44 -16 -54 -55
-29 -30 20 -39 11 -31 -31 8 -40 -14 -53 -51 -29 -28 19 -40 7 -31 -31 4 -14
2 -31 -5 -39 -9 -11 -15 -11 -40 2 -35 18 -46 4 -30 -38 13 -34 -3 -50 -37
-37 -42 16 -56 5 -38 -30 13 -25 13 -31 2 -40 -8 -7 -25 -9 -39 -5 -38 9 -50
-3 -31 -31 23 -36 12 -58 -26 -50 -42 9 -55 -2 -36 -31 27 -40 21 -54 -24 -54
-43 0 -50 -12 -24 -41 23 -25 11 -49 -25 -49 -40 0 -48 -17 -21 -45 27 -28 19
-45 -20 -45 -39 0 -47 -17 -20 -45 29 -31 20 -55 -20 -55 -35 0 -38 -15 -9
-46 28 -30 19 -54 -21 -54 -37 0 -39 -17 -4 -45 30 -24 24 -55 -11 -55 -36 0
-41 -21 -12 -42 35 -26 34 -47 -3 -59 -37 -13 -39 -32 -5 -47 33 -15 33 -48 0
-56 -32 -8 -32 -34 0 -46 14 -5 25 -17 25 -28 0 -10 -11 -24 -25 -30 -34 -16
-31 -38 5 -45 38 -8 40 -38 5 -57 -34 -18 -31 -34 7 -45 41 -12 47 -37 13 -55
-35 -19 -31 -38 10 -46 40 -7 48 -36 15 -54 -25 -14 -26 -40 -1 -40 52 0 69
-36 29 -62 -28 -18 -16 -38 23 -38 39 0 48 -24 19 -55 -27 -29 -21 -40 23 -40
38 0 48 -26 22 -55 -23 -25 -11 -41 26 -33 40 8 54 -12 33 -45 -22 -34 -13
-47 29 -44 40 4 47 -10 26 -50 -15 -28 1 -41 34 -29 36 14 50 -5 35 -47 -15
-38 -9 -46 26 -33 36 14 59 4 51 -23 -13 -42 -11 -51 10 -48 59 9 60 9 60 -30
0 -47 8 -53 39 -33 34 22 50 11 43 -31 -7 -41 6 -51 38 -30 34 23 58 11 50
-25 -10 -43 2 -52 36 -28 38 27 61 12 52 -32 -4 -23 -2 -29 11 -29 10 0 24 7
33 15 22 22 47 14 51 -15 6 -51 11 -55 40 -28 33 31 52 26 52 -12 0 -40 17
-46 48 -17 31 28 52 25 52 -8 0 -12 6 -28 14 -34 12 -10 18 -7 31 13 24 36 52
34 60 -4 8 -36 31 -39 47 -5 16 35 36 31 54 -10 18 -43 28 -44 44 -5 16 39 45
39 59 0 13 -38 26 -38 46 0 9 16 22 30 29 30 7 0 19 -13 26 -30 16 -39 28 -38
46 5 17 41 35 45 54 10 17 -33 44 -28 48 8 4 35 35 36 58 3 20 -31 44 -23 44
14 0 39 26 46 54 13 27 -31 46 -24 46 17 0 38 19 43 52 12 29 -27 34 -23 40
28 4 30 38 39 58 15 22 -27 43 -19 38 15 -7 45 14 57 51 31 34 -24 46 -15 36
28 -8 36 17 48 52 26 31 -21 46 -10 38 27 -9 39 9 52 46 33 33 -18 41 -10 33
31 -7 39 7 50 47 34 37 -16 44 -9 31 29 -14 40 3 56 43 41 36 -14 42 -6 27 32
-15 42 -7 51 39 44 34 -5 39 -4 39 13 0 11 -4 23 -10 26 -12 7 -13 25 -2 43 6
9 16 10 34 3 35 -13 54 5 32 30 -25 28 -14 54 23 54 41 0 50 11 29 34 -27 30
-17 56 21 56 43 0 50 11 24 38 -30 32 -19 57 25 57 40 0 46 21 13 44 -28 19
-18 45 21 52 35 8 39 26 8 46 -28 19 -18 44 21 53 37 8 40 27 6 45 -14 7 -25
17 -25 21 0 15 32 39 51 39 27 0 24 24 -6 40 -35 19 -33 49 5 56 36 8 39 30 5
46 -35 16 -32 47 5 59 17 6 30 15 30 21 0 5 -13 15 -30 21 -37 14 -39 43 -5
59 32 14 29 40 -5 48 -34 8 -36 34 -5 54 32 21 33 46 0 46 -14 0 -29 8 -34 19
-9 15 -6 22 14 35 35 23 32 46 -5 46 -42 0 -51 27 -18 54 31 26 26 46 -13 46
-39 0 -48 24 -19 55 26 28 19 45 -20 45 -35 0 -45 23 -19 46 30 27 24 44 -16
44 -42 0 -56 22 -31 49 25 28 19 41 -19 41 -43 0 -53 18 -30 53 20 30 7 41
-35 32 -38 -8 -49 14 -26 50 19 29 8 39 -34 30 -36 -8 -49 13 -31 51 13 29 -5
42 -36 25 -29 -15 -46 1 -38 38 9 43 0 54 -35 36 -37 -19 -56 -1 -40 39 12 32
-6 44 -40 26 -34 -18 -53 -5 -45 30 9 42 -2 55 -32 35 -35 -23 -53 -13 -53 30
0 38 -13 44 -41 19 -27 -25 -49 -11 -49 31 0 40 -14 45 -46 14 -27 -26 -44
-18 -44 21 0 39 -17 47 -45 20 -31 -29 -55 -20 -55 19 0 38 -20 45 -45 14 -26
-32 -55 -22 -55 18 0 36 -23 39 -45 5 -21 -31 -53 -24 -57 12 -4 35 -31 40
-46 7 -16 -34 -41 -32 -53 5 -13 37 -32 39 -47 5 -16 -36 -49 -33 -57 5 -4 17
-13 30 -21 30 -8 0 -20 -13 -25 -30z m329 -104 c238 -60 430 -166 605 -335
180 -174 301 -386 364 -638 25 -98 27 -126 28 -293 0 -193 -6 -235 -51 -389
-109 -364 -391 -673 -753 -826 -149 -63 -266 -87 -456 -92 -198 -6 -300 8
-462 62 -199 66 -349 160 -504 315 -243 241 -370 529 -386 870 -16 366 121
716 381 975 176 175 371 288 597 345 132 34 185 39 364 35 141 -3 187 -8 273
-29z"/>
<path d="M1355 3034 c-247 -44 -474 -158 -656 -332 -113 -107 -191 -210 -256
-338 -89 -173 -130 -325 -140 -519 -22 -438 190 -865 550 -1106 115 -77 179
-109 303 -152 252 -88 566 -90 814 -7 454 152 784 543 856 1012 19 122 14 335
-9 443 -115 523 -516 910 -1036 999 -115 20 -315 20 -426 0z m430 -20 c597
-103 1035 -624 1035 -1228 0 -341 -126 -643 -370 -886 -186 -186 -409 -302
-665 -346 -68 -12 -131 -15 -260 -11 -173 5 -236 16 -377 66 -290 101 -553
333 -693 611 -85 170 -123 319 -131 515 -27 624 414 1171 1031 1279 110 19
319 20 430 0z"/>
<path d="M1404 2933 c-26 -3 -31 -8 -27 -24 4 -13 0 -19 -13 -19 -15 0 -15 -3
6 -25 28 -29 51 -34 25 -5 -18 20 -17 20 8 20 14 0 29 -5 33 -11 3 -6 19 -9
35 -5 17 3 29 1 33 -7 2 -7 5 7 5 31 1 29 5 42 15 42 10 0 16 -14 19 -42 l4
-43 1 43 2 42 45 0 c25 0 45 -4 45 -10 0 -5 -13 -10 -30 -10 -20 0 -30 -5 -30
-15 0 -18 12 -19 28 -3 14 14 28 3 35 -27 3 -13 5 -9 6 12 0 17 4 38 7 47 5
14 -6 16 -85 16 -87 0 -91 -1 -79 -19 9 -15 9 -23 -1 -35 -14 -17 -41 -22 -41
-8 0 4 5 13 11 19 14 14 4 44 -13 41 -7 0 -27 -3 -44 -5z m51 -24 c0 -15 -51
-23 -60 -9 -10 16 15 22 32 8 15 -11 16 -11 10 5 -5 13 -3 17 5 15 7 -3 13
-11 13 -19z"/>
<path d="M1742 2920 c-14 -22 -16 -76 -4 -84 5 -3 7 8 4 23 -2 16 1 39 8 51
15 28 8 36 -8 10z"/>
<path d="M1282 2906 c-56 -14 -82 -28 -42 -24 27 3 39 -19 13 -24 -14 -3 -12
-8 15 -26 17 -13 32 -19 32 -14 0 6 -7 12 -15 16 -23 9 -18 26 9 26 16 0 26
-7 29 -22 10 -38 16 -15 7 25 -7 34 -6 39 13 47 32 13 0 10 -61 -4z m28 -21
c0 -8 -7 -15 -15 -15 -8 0 -15 7 -15 15 0 8 7 15 15 15 8 0 15 -7 15 -15z"/>
<path d="M1825 2900 c3 -5 -3 -10 -13 -10 -31 0 -37 -32 -11 -53 22 -18 23
-18 36 7 15 28 28 33 39 14 4 -6 -1 -17 -11 -25 -16 -11 -16 -13 -3 -13 27 0
32 33 8 52 -23 19 -13 23 28 12 24 -7 25 -19 5 -70 -4 -11 -3 -15 5 -11 6 4
13 21 17 37 4 17 12 30 18 31 17 1 -84 37 -106 38 -10 1 -15 -3 -12 -9z m1
-31 c10 -17 -13 -36 -27 -22 -12 12 -4 33 11 33 5 0 12 -5 16 -11z"/>
<path d="M1075 2880 c-4 -6 -1 -17 5 -25 17 -21 -92 -74 -138 -68 -40 6 -63
-11 -60 -46 2 -14 -1 -25 -7 -25 -5 1 -23 4 -40 7 l-30 6 27 -12 27 -13 -50
-43 c-41 -35 -52 -41 -65 -30 -8 6 -17 9 -21 5 -3 -3 -1 -6 5 -6 21 0 13 -33
-15 -62 -22 -23 -24 -30 -13 -43 7 -8 21 -15 30 -15 10 0 21 -8 23 -17 3 -11
5 -7 6 10 1 25 4 27 24 22 19 -6 18 -3 -11 27 -41 43 -31 56 17 21 l36 -27
-29 32 c-24 26 -27 34 -16 47 17 20 29 19 24 -2 -3 -12 4 -22 21 -30 22 -10
27 -9 37 7 7 11 18 16 27 12 10 -4 5 7 -11 27 -49 57 -28 73 23 19 33 -36 29
-18 -4 20 -16 17 -18 25 -9 34 9 9 19 4 43 -22 18 -22 26 -27 19 -13 -5 12
-15 25 -20 28 -15 9 -12 32 6 39 11 4 18 -1 21 -14 3 -11 12 -20 19 -20 12 0
12 4 -1 23 -14 22 -12 37 6 37 4 0 16 -15 28 -32 23 -37 28 -27 6 12 -19 34
-19 35 11 49 22 10 28 9 40 -6 18 -24 17 -43 -2 -43 -12 0 -15 6 -11 21 3 12
1 19 -6 16 -33 -11 -9 -52 26 -43 20 5 25 12 24 30 -1 14 3 24 8 23 6 -1 10
-10 9 -19 0 -13 3 -15 13 -7 22 19 -2 51 -34 43 -36 -9 -22 11 17 24 28 10 30
9 42 -24 6 -19 15 -34 19 -34 12 0 -24 84 -41 97 -19 15 -47 16 -55 3z m48
-15 c1 -5 -6 -11 -15 -13 -11 -2 -18 3 -18 13 0 17 30 18 33 0z m-183 -105
c-29 -22 -36 -24 -45 -10 -11 18 5 30 38 30 l32 0 -25 -20z m-82 -139 c-2 -14
-7 -24 -13 -21 -5 3 -9 8 -8 12 2 4 -4 5 -12 2 -11 -4 -14 -1 -10 10 3 9 7 23
10 32 8 26 37 -4 33 -35z m-102 -90 c-9 -14 -33 -14 -41 -1 -4 6 -1 18 6 26
11 13 14 13 27 0 8 -8 11 -19 8 -25z"/>
<path d="M2027 2868 c-2 -7 -5 -16 -6 -21 0 -4 -7 -20 -16 -37 -8 -16 -15 -35
-15 -42 1 -7 10 4 21 25 22 43 21 42 59 22 37 -19 38 -26 3 -19 -23 4 -30 0
-39 -20 -9 -20 -9 -29 3 -43 13 -16 13 -16 3 5 -9 18 -8 23 6 29 11 4 22 -1
30 -12 8 -10 14 -14 14 -7 0 6 -10 18 -22 28 l-23 16 25 -5 c14 -3 34 -2 44 2
16 6 11 11 -27 29 -26 12 -47 29 -47 37 0 22 27 18 44 -7 9 -12 16 -18 16 -12
0 16 -34 44 -52 44 -9 0 -18 -6 -21 -12z"/>
<path d="M1940 2790 c0 -5 5 -10 11 -10 5 0 7 5 4 10 -3 6 -8 10 -11 10 -2 0
-4 -4 -4 -10z"/>
<path d="M2200 2767 c-18 -15 -52 -78 -46 -84 2 -3 9 4 15 14 27 46 27 47 60
27 17 -10 31 -25 31 -33 0 -12 -3 -12 -12 -3 -17 17 -48 15 -55 -4 -3 -9 3
-23 15 -34 21 -20 21 -19 51 10 16 16 26 32 21 35 -4 2 -7 16 -7 30 0 47 -39
70 -73 42z m58 -25 c12 -18 12 -22 1 -22 -22 1 -52 28 -44 40 9 15 25 8 43
-18z m-18 -65 c0 -21 -12 -28 -27 -16 -19 16 -16 29 7 29 11 0 20 -6 20 -13z"/>
<path d="M1436 2750 c-457 -72 -792 -424 -835 -875 -46 -479 262 -913 734
-1036 127 -34 350 -34 475 0 325 87 590 333 688 641 36 114 46 182 45 315 -1
146 -26 266 -81 387 -123 272 -366 474 -659 548 -91 23 -281 33 -367 20z m271
-21 c378 -51 703 -347 793 -721 75 -315 -9 -635 -228 -869 -94 -100 -173 -159
-286 -214 -147 -71 -233 -90 -416 -89 -160 0 -212 8 -338 55 -164 60 -334 190
-438 335 -53 74 -125 225 -147 309 -117 439 91 900 498 1103 179 89 361 119
562 91z"/>
<path d="M1510 2570 c0 -18 -7 -20 -67 -21 -47 0 -62 -3 -48 -9 17 -7 17 -9 3
-9 -18 -1 -27 -41 -9 -41 5 0 16 -3 25 -6 12 -4 16 0 16 15 0 12 5 21 11 21 6
0 8 -7 5 -16 -3 -8 -2 -12 4 -9 16 10 11 33 -7 38 -11 3 -7 5 10 6 21 1 27 -3
25 -16 -2 -12 2 -17 12 -15 8 2 20 -5 27 -14 12 -16 13 -14 13 14 0 25 4 32
20 32 21 0 28 -16 10 -22 -6 -2 -4 -11 5 -23 14 -17 16 -17 11 -2 -4 11 0 17
10 17 11 0 15 -6 11 -20 -3 -10 0 -21 7 -24 7 -3 6 -8 -4 -16 -13 -10 -13 -11
0 -8 10 3 14 20 15 56 l0 52 -42 0 c-44 0 -65 16 -42 31 11 7 10 9 -3 9 -11 0
-18 -8 -18 -20z m10 -40 c0 -5 -7 -10 -15 -10 -8 0 -15 5 -15 10 0 6 7 10 15
10 8 0 15 -4 15 -10z m80 0 c0 -5 -4 -10 -10 -10 -5 0 -10 5 -10 10 0 6 5 10
10 10 6 0 10 -4 10 -10z m-190 -20 c0 -5 -4 -10 -10 -10 -5 0 -10 5 -10 10 0
6 5 10 10 10 6 0 10 -4 10 -10z"/>
<path d="M1761 2582 c-1 -7 -5 -10 -11 -7 -6 3 -7 -1 -4 -9 5 -13 -2 -16 -37
-17 -34 0 -39 -2 -24 -9 17 -7 17 -9 3 -9 -18 -1 -27 -41 -9 -41 5 0 16 -3 25
-6 12 -4 16 0 16 15 0 12 5 21 11 21 6 0 8 -7 4 -17 -5 -15 -4 -16 7 -5 11 11
10 16 -6 28 -19 13 -19 14 7 14 24 0 27 -4 28 -32 l2 -33 6 32 c5 29 8 30 24
18 16 -12 16 -14 2 -17 -13 -2 -12 -5 5 -16 11 -7 20 -9 19 -5 -2 15 13 53 22
53 4 0 10 -15 12 -32 l4 -33 1 33 c2 29 5 32 35 31 29 -1 30 -2 7 -8 -26 -7
-35 -42 -12 -47 7 -1 8 0 2 3 -19 9 -10 31 14 31 17 0 26 -7 29 -22 3 -14 5
-10 6 12 1 35 21 46 21 11 0 -16 4 -19 19 -14 14 4 21 0 23 -12 2 -10 6 -1 9
20 l5 37 -123 0 c-119 0 -124 1 -133 23 -5 12 -9 16 -9 9z m249 -52 c0 -5 -4
-10 -10 -10 -5 0 -10 5 -10 10 0 6 5 10 10 10 6 0 10 -4 10 -10z m-310 -20 c0
-5 -4 -10 -10 -10 -5 0 -10 5 -10 10 0 6 5 10 10 10 6 0 10 -4 10 -10z"/>
<path d="M1196 2567 c5 -14 -1 -17 -37 -17 -29 0 -39 -3 -30 -9 9 -6 10 -10 2
-16 -17 -10 8 -38 27 -30 9 3 19 0 24 -7 5 -8 8 -1 8 20 0 17 4 32 9 32 6 0
12 -15 14 -32 l4 -33 1 33 c1 22 7 32 18 32 11 0 14 -6 9 -20 -4 -11 -2 -20 4
-20 6 0 11 9 11 20 0 33 18 23 23 -12 4 -32 4 -32 5 5 2 35 1 37 -30 37 -17 0
-40 8 -50 17 -18 16 -18 16 -12 0z m-16 -36 c0 -11 -29 -35 -35 -29 -10 9 7
38 21 38 8 0 14 -4 14 -9z"/>
<path d="M1490 2373 c-148 -56 -335 -69 -475 -33 -43 11 -83 20 -88 20 -18 0
-2 -452 22 -584 67 -376 238 -650 523 -837 50 -32 93 -59 97 -59 22 0 180 110
244 170 235 220 365 533 398 963 10 138 10 340 -2 351 -2 3 -31 -4 -64 -15
-133 -45 -341 -34 -502 27 -77 28 -70 28 -153 -3z m70 -182 l0 -159 -35 -6
c-27 -5 -42 -2 -64 14 -46 32 -171 88 -226 101 -69 16 -79 22 -86 55 -5 20 -7
23 -8 9 -1 -28 -61 -51 -93 -35 l-23 11 23 -17 c28 -21 30 -64 2 -71 -11 -3
-20 -9 -20 -15 0 -5 9 -4 20 2 26 14 40 5 40 -24 0 -39 66 -158 125 -225 84
-98 82 -101 -79 -101 l-135 0 -10 53 c-25 121 -44 501 -26 519 3 3 31 -1 63
-8 123 -29 327 -14 462 35 30 11 58 20 63 20 4 1 7 -70 7 -158z m213 104 c86
-19 254 -19 332 -1 33 8 63 12 67 10 22 -14 -8 -454 -38 -557 -5 -16 -18 -17
-132 -15 l-127 3 -6 46 c-17 115 -111 211 -239 243 l-45 11 0 53 c1 28 2 99 3
156 l2 105 58 -20 c31 -11 88 -27 125 -34z m-615 -166 c4 -31 -20 -53 -47 -44
-47 15 -31 79 18 73 20 -2 27 -9 29 -29z m103 -5 c55 -16 209 -93 209 -104 0
-3 -16 -14 -35 -23 -70 -33 -124 -96 -156 -182 l-11 -30 -48 53 c-52 58 -104
148 -114 198 -7 29 -5 32 24 36 18 3 35 -1 41 -9 6 -7 16 -13 22 -13 5 0 2 8
-7 19 -12 13 -15 27 -10 45 7 30 13 31 85 10z m277 -131 c-2 -5 -10 -25 -18
-45 -8 -21 -19 -38 -25 -38 -6 0 -24 13 -40 30 l-28 30 34 14 c36 16 83 21 77
9z m78 -99 c-6 -15 -81 -20 -90 -6 -3 5 6 33 20 63 l26 54 25 -48 c13 -27 22
-55 19 -63z m59 92 c41 -17 42 -22 13 -53 -30 -33 -41 -29 -66 22 -22 45 -22
45 -2 45 12 0 36 -7 55 -14z m-222 -72 c33 -30 37 -40 32 -65 -4 -16 -11 -29
-17 -29 -18 0 -128 52 -128 61 0 13 51 69 63 69 7 0 29 -16 50 -36z m319 9
c15 -15 28 -32 28 -39 0 -14 -118 -67 -131 -58 -20 12 -8 57 24 88 17 18 36
34 41 35 6 0 23 -11 38 -26z m-134 -86 c3 -22 -1 -25 -41 -31 -39 -6 -97 0
-97 9 0 2 4 14 9 27 8 21 15 23 67 22 55 -2 59 -3 62 -27z m-180 -37 c9 0 12
-24 12 -85 0 -76 -2 -85 -19 -85 -10 0 -51 30 -90 66 -75 70 -75 69 -49 136
l10 26 61 -29 c34 -16 68 -29 75 -29z m381 11 c16 -48 14 -129 -5 -184 -9 -26
-19 -47 -22 -47 -4 0 -36 12 -72 26 l-65 25 1 82 2 81 68 32 c38 17 72 29 75
25 4 -3 11 -21 18 -40z m-185 -61 c3 -19 3 -51 0 -71 l-6 -35 -77 2 -76 2 -3
48 c-6 86 -3 89 82 89 l74 0 6 -35z m-266 -91 c17 -16 32 -31 32 -33 0 -3 -19
-15 -42 -27 -40 -20 -42 -21 -55 -3 -17 23 -33 80 -33 117 l0 29 33 -27 c17
-15 47 -40 65 -56z m-118 19 c0 -40 55 -142 95 -177 44 -38 101 -66 158 -76
l37 -7 0 -240 c0 -272 8 -254 -88 -191 -146 96 -301 280 -376 446 -33 72 -86
229 -86 255 0 9 36 12 130 12 128 0 130 0 130 -22z m850 6 c0 -28 -67 -219
-101 -286 -56 -112 -136 -222 -219 -301 -84 -81 -199 -163 -209 -150 -3 5 -5
112 -3 239 l3 231 58 16 c51 14 63 14 106 2 102 -31 168 -13 180 50 5 30 5 30
-8 -3 -16 -42 -32 -52 -82 -52 -42 0 -115 17 -115 27 0 3 20 23 44 44 24 22
55 62 69 89 28 57 36 54 67 -27 11 -26 19 -41 20 -32 0 9 -14 44 -31 77 -46
89 -43 92 101 92 104 0 120 -2 120 -16z m-504 -64 c22 0 25 -4 22 -27 -3 -26
-4 -27 -63 -24 -33 1 -61 3 -61 4 -1 1 -5 12 -8 24 -6 19 -3 22 26 26 18 2 39
2 46 0 8 -1 25 -3 38 -3z m168 -60 c6 -6 2 -18 -10 -31 -36 -40 -50 -41 -87
-8 -20 17 -34 38 -31 45 14 46 10 45 66 23 29 -11 57 -25 62 -29z m-306 28
c20 -20 13 -41 -24 -72 l-34 -28 -35 26 c-19 15 -35 31 -35 36 0 13 70 49 96
50 11 0 25 -5 32 -12z m140 -55 c5 -18 -20 -16 -44 2 -18 15 -18 15 10 13 16
-2 31 -9 34 -15z m-48 -8 c32 -17 36 -26 20 -56 -15 -27 -24 -24 -43 16 -28
58 -24 64 23 40z m-49 -36 l21 -42 -38 6 c-54 9 -62 22 -34 52 13 14 25 25 27
25 1 0 12 -19 24 -41z m160 12 c13 -11 21 -22 18 -26 -10 -9 -59 17 -59 32 0
18 14 16 41 -6z m-22 -42 c-18 -11 -49 -12 -49 -1 0 20 23 31 43 20 16 -8 17
-12 6 -19z"/>
<path d="M1951 2188 c-1 -37 -14 -50 -24 -25 -3 7 -6 5 -6 -5 -1 -24 -14 -23
-36 2 -10 11 -23 20 -28 20 -6 0 1 -13 16 -28 28 -29 27 -45 -1 -35 -14 5 -15
3 -4 -8 19 -21 14 -28 -25 -32 l-38 -4 38 -1 c39 -2 45 -9 25 -31 -11 -11 -10
-13 4 -8 28 10 29 -6 1 -35 -15 -15 -22 -28 -16 -28 5 0 18 9 28 20 10 11 22
20 28 20 5 0 7 -9 4 -20 -3 -11 -1 -20 4 -20 5 0 9 7 9 15 0 8 5 15 10 15 6 0
11 -19 11 -42 l1 -43 11 43 c9 40 27 58 27 27 0 -8 4 -15 9 -15 5 0 7 9 4 20
-7 27 6 25 39 -7 15 -15 28 -22 28 -17 0 6 -11 21 -25 34 -31 29 -32 43 -2 35
21 -6 21 -5 3 9 -21 17 -15 22 39 29 23 3 20 4 -12 6 -47 1 -52 7 -25 28 16
13 15 14 -5 8 -30 -8 -29 6 2 35 14 13 23 26 20 28 -3 3 -19 -7 -35 -23 l-30
-29 0 25 c0 19 -2 21 -10 9 -12 -20 -27 -4 -33 35 -4 27 -4 26 -6 -7z m49 -68
c39 -39 11 -110 -43 -110 -54 0 -80 78 -37 112 29 23 55 23 80 -2z"/>
<path d="M1230 1524 c8 -12 26 -36 38 -53 l24 -32 -44 6 -43 6 93 -88 c75 -72
89 -90 77 -98 -12 -8 -5 -19 42 -60 49 -42 54 -45 35 -17 l-23 32 33 0 c33 1
33 1 -60 88 -51 48 -92 90 -92 94 0 4 11 8 24 10 21 3 17 10 -48 68 -39 36
-64 55 -56 44z"/>
<path d="M2105 2710 c-3 -5 -1 -10 4 -10 6 0 11 5 11 10 0 6 -2 10 -4 10 -3 0
-8 -4 -11 -10z"/>
<path d="M2350 2614 c-8 -14 -26 -32 -40 -39 -14 -8 -19 -14 -12 -15 16 0 72
54 72 69 0 17 -6 13 -20 -15z"/>
<path d="M2438 2540 c20 -27 15 -46 -6 -27 -37 34 -61 14 -41 -33 l13 -29 33
25 c45 34 57 10 12 -27 -40 -34 -31 -39 12 -7 30 23 31 23 45 4 8 -11 14 -23
14 -28 0 -13 -30 -9 -31 5 -1 18 -17 -35 -17 -58 0 -15 2 -14 7 5 5 19 13 25
36 25 44 0 43 -27 -1 -48 -20 -10 -34 -20 -31 -24 3 -3 22 4 41 16 41 26 60
11 24 -19 -21 -17 -22 -20 -7 -35 13 -13 21 -15 37 -6 12 6 23 7 26 2 7 -11
-11 -26 -41 -35 -13 -4 -23 -11 -23 -17 0 -5 16 -1 36 8 31 15 36 15 44 3 14
-23 12 -40 -6 -40 -8 0 -12 5 -9 10 3 6 2 10 -2 10 -5 0 -17 -13 -26 -30 -19
-32 -13 -42 8 -13 11 15 13 15 24 -5 10 -18 8 -23 -16 -37 -16 -9 -19 -13 -8
-10 54 17 75 18 75 2 0 -10 -13 -18 -35 -23 -19 -3 -35 -10 -35 -14 0 -12 89
15 111 34 24 20 21 40 -7 44 -18 3 -18 2 -1 -8 14 -9 16 -15 6 -26 -18 -22
-27 -17 -35 19 -18 84 -134 291 -206 368 -18 19 -27 28 -20 19z m-10 -43 c2
-10 -3 -17 -12 -17 -18 0 -29 16 -21 31 9 14 29 6 33 -14z m162 -187 c0 -15
-38 -32 -45 -20 -3 5 -3 15 0 20 8 13 45 13 45 0z m58 -144 c3 -12 -1 -17 -10
-14 -7 3 -15 13 -16 22 -3 12 1 17 10 14 7 -3 15 -13 16 -22z"/>
<path d="M608 2431 c-18 -28 -41 -51 -50 -51 -30 0 -48 -12 -48 -31 0 -11 7
-19 16 -19 11 0 14 -5 9 -17 -15 -39 -15 -47 0 -20 18 32 42 38 25 6 -16 -29
-5 -49 27 -48 26 1 24 3 -15 15 -10 3 -10 9 -2 24 9 17 14 18 31 9 12 -6 23
-8 26 -6 3 3 -9 13 -26 22 -17 8 -31 22 -31 30 0 20 6 19 46 -6 19 -11 34 -17
34 -12 0 5 -16 17 -35 26 -32 15 -34 19 -23 37 15 23 28 26 28 6 0 -34 45 -29
56 6 4 13 11 17 22 14 10 -3 6 3 -8 15 -14 11 -30 27 -37 36 -10 13 -17 7 -45
-36z m56 -4 c8 -13 7 -21 -6 -34 -16 -15 -18 -15 -28 11 -17 45 9 62 34 23z
m-104 -71 c0 -8 -4 -17 -8 -20 -13 -8 -35 11 -28 23 10 16 36 14 36 -3z"/>
<path d="M491 2206 c-35 -93 -36 -105 -12 -99 15 4 21 1 21 -11 0 -10 -9 -16
-24 -16 -14 0 -28 -5 -32 -11 -9 -15 12 -33 28 -23 7 5 21 7 31 6 15 -3 17 1
11 24 -6 24 -5 26 15 21 11 -3 21 -1 21 3 0 5 -16 12 -35 16 -20 3 -35 12 -35
20 0 16 19 18 54 4 15 -5 26 -6 26 -1 0 5 -13 12 -30 16 -37 8 -44 19 -30 45
14 25 34 26 27 1 -4 -17 -2 -18 24 -9 39 13 44 24 11 23 -18 0 -30 8 -38 23
-11 23 -13 22 -33 -32z m-21 -146 c0 -5 -4 -10 -10 -10 -5 0 -10 5 -10 10 0 6
5 10 10 10 6 0 10 -4 10 -10z"/>
<path d="M447 1923 c-12 -12 -7 -50 8 -63 32 -27 82 23 55 55 -13 15 -51 20
-63 8z"/>
<path d="M2627 1923 c-12 -12 -7 -50 8 -63 17 -14 51 -5 59 16 13 35 -41 73
-67 47z"/>
<path d="M430 1750 c0 -5 18 -10 40 -10 22 0 40 5 40 10 0 6 -18 10 -40 10
-22 0 -40 -4 -40 -10z"/>
<path d="M2630 1752 c0 -12 79 -21 86 -10 3 4 -1 8 -9 8 -8 0 -29 3 -46 6 -18
4 -31 2 -31 -4z"/>
<path d="M468 1712 c-44 -4 -52 -22 -10 -22 l27 -1 -27 -22 c-16 -13 -28 -26
-28 -30 0 -4 20 -7 45 -7 25 0 45 5 45 10 0 6 -12 10 -27 10 l-27 0 28 29 c31
33 27 38 -26 33z"/>
<path d="M2668 1700 c-16 -25 -25 -25 -31 -2 -4 13 -5 12 -6 -5 -2 -32 19 -40
40 -15 22 27 33 28 26 2 -6 -23 11 -27 19 -5 6 16 -12 45 -27 45 -5 0 -14 -9
-21 -20z"/>
<path d="M2651 1631 c-39 -10 -36 -28 8 -51 l41 -20 -6 30 c-4 19 -2 30 5 30
6 0 11 5 11 10 0 11 -22 12 -59 1z m29 -19 c0 -14 -11 -21 -26 -15 -8 3 -11 9
-8 14 7 11 34 12 34 1z"/>
<path d="M451 1601 c-19 -12 -6 -58 18 -66 10 -3 26 -3 35 1 18 7 32 47 21 63
-8 13 -55 14 -74 2z m57 -28 c-2 -10 -12 -18 -23 -18 -11 0 -21 8 -23 18 -3
13 3 17 23 17 20 0 26 -4 23 -17z"/>
<path d="M2610 1550 c0 -5 9 -10 19 -10 32 0 33 -17 1 -30 -31 -13 -39 -28
-17 -34 38 -12 67 -15 67 -7 0 5 -12 12 -27 16 l-28 7 39 20 c21 11 34 23 30
28 -15 13 -84 22 -84 10z"/>
<path d="M483 1513 c-13 -2 -23 -9 -23 -15 0 -6 12 -8 31 -4 17 3 35 6 40 6 5
0 9 5 9 10 0 10 -16 11 -57 3z"/>
<path d="M470 1460 c0 -5 5 -10 11 -10 7 0 9 -11 6 -30 -8 -36 -6 -36 38 -7
40 26 44 42 13 51 -35 9 -68 7 -68 -4z m65 -20 c-3 -5 -13 -10 -21 -10 -8 0
-14 5 -14 10 0 6 9 10 21 10 11 0 17 -4 14 -10z"/>
<path d="M2580 1427 c0 -12 51 -57 65 -57 4 0 4 9 0 19 -3 11 1 26 10 35 15
15 13 16 -29 16 -31 0 -46 -4 -46 -13z m60 -5 c0 -14 -11 -21 -26 -15 -21 8
-17 23 6 23 11 0 20 -4 20 -8z"/>
<path d="M533 1388 c-38 -13 -45 -33 -8 -24 29 7 31 4 9 -30 -9 -13 -14 -27
-11 -31 7 -6 46 3 67 16 22 15 5 24 -19 11 -25 -13 -27 -2 -6 26 15 20 20 45
8 43 -5 -1 -23 -6 -40 -11z"/>
<path d="M2562 1368 c-22 -22 -13 -46 19 -57 43 -15 58 -13 36 3 -16 13 -16
14 5 21 22 7 22 7 3 12 -11 3 -24 11 -28 19 -10 17 -19 18 -35 2z m28 -23 c0
-8 -4 -15 -9 -15 -13 0 -22 16 -14 24 11 11 23 6 23 -9z"/>
<path d="M2520 1277 c0 -7 14 -26 30 -42 l30 -29 0 27 c0 16 7 30 16 34 13 5
13 7 2 14 -21 14 -78 11 -78 -4z m50 -19 c0 -13 -23 -5 -28 10 -2 7 2 10 12 6
9 -3 16 -11 16 -16z"/>
<path d="M588 1254 c-25 -13 -38 -34 -23 -34 14 0 65 32 65 40 0 13 -10 12
-42 -6z"/>
<path d="M613 1219 c-36 -23 -46 -47 -12 -29 27 15 32 8 18 -24 -17 -36 -5
-43 36 -20 34 18 50 42 20 30 -50 -20 -48 -20 -36 3 7 12 11 31 9 41 -3 19 -4
19 -35 -1z"/>
<path d="M2490 1231 c0 -5 7 -14 15 -21 24 -20 18 -30 -17 -30 -25 0 -29 -3
-18 -10 22 -14 80 -12 80 3 -1 12 -45 67 -55 67 -3 0 -5 -4 -5 -9z"/>
<path d="M675 1130 c-3 -5 -3 -14 0 -20 3 -5 3 -15 -1 -22 -5 -7 -11 -5 -21 8
-14 19 -15 19 -11 -1 2 -12 13 -21 26 -23 22 -3 26 4 23 41 -1 9 3 17 8 17 6
0 11 -4 11 -10 0 -5 4 -10 10 -10 5 0 7 7 4 15 -7 17 -40 20 -49 5z"/>
<path d="M2445 1103 c17 -8 38 -25 47 -37 10 -11 18 -16 18 -9 0 16 -58 63
-78 63 -11 -1 -6 -7 13 -17z"/>
<path d="M730 1086 c0 -10 -10 -26 -22 -36 -13 -10 -20 -22 -15 -26 4 -4 18 3
31 15 14 13 29 20 35 16 19 -11 12 11 -9 30 -19 17 -20 17 -20 1z"/>
<path d="M2380 1063 c0 -4 10 -17 22 -30 17 -18 19 -26 10 -35 -9 -9 -18 -6
-37 12 -27 25 -47 21 -25 -5 26 -31 50 -38 71 -19 25 22 24 36 -4 62 -24 22
-37 28 -37 15z"/>
<path d="M750 1015 c-35 -37 -14 -44 23 -7 22 22 27 32 16 32 -9 0 -26 -11
-39 -25z"/>
<path d="M803 1007 c3 -8 -3 -23 -14 -33 -10 -9 -19 -24 -19 -32 0 -12 7 -9
28 10 15 14 33 23 40 21 22 -8 12 14 -15 32 -22 15 -25 15 -20 2z"/>
<path d="M2296 956 c7 -28 -11 -43 -32 -25 -27 22 -24 3 5 -32 16 -19 32 -31
36 -27 5 4 2 15 -5 24 -12 13 -11 17 0 24 9 5 20 4 27 -2 24 -20 25 0 2 31
-27 37 -42 40 -33 7z"/>
<path d="M842 947 c-25 -26 -28 -47 -10 -65 18 -18 43 -15 63 8 27 29 43 9 21
-25 -10 -14 -16 -31 -13 -38 2 -6 12 1 21 16 10 15 25 27 32 27 23 0 16 14
-20 37 l-33 21 -26 -26 c-23 -23 -27 -24 -33 -8 -4 10 1 24 11 36 26 28 13 45
-13 17z"/>
<path d="M2166 877 c-15 -11 -16 -18 -8 -34 19 -35 38 -46 61 -33 27 14 26 30
-3 58 -28 26 -27 26 -50 9z m29 -17 c-3 -5 -10 -10 -16 -10 -5 0 -9 5 -9 10 0
6 7 10 16 10 8 0 12 -4 9 -10z m25 -31 c0 -5 -7 -9 -15 -9 -15 0 -20 12 -9 23
8 8 24 -1 24 -14z"/>
<path d="M963 836 c-22 -35 -16 -56 16 -56 12 0 12 3 3 12 -18 18 -14 27 11
21 18 -5 20 -3 10 8 -19 20 -16 28 10 22 22 -5 22 -5 2 10 -27 22 -27 22 -52
-17z"/>
<path d="M2260 849 c0 -5 5 -7 10 -4 6 3 10 8 10 11 0 2 -4 4 -10 4 -5 0 -10
-5 -10 -11z"/>
<path d="M2120 838 c0 -20 38 -78 52 -78 6 0 2 10 -10 23 -12 13 -22 33 -22
45 0 12 -4 22 -10 22 -5 0 -10 -6 -10 -12z"/>
<path d="M2053 800 c-4 -15 -11 -19 -32 -14 -25 5 -25 5 -7 -10 11 -9 23 -16
27 -16 4 0 11 -9 14 -20 4 -11 11 -18 16 -15 5 4 5 13 0 23 -5 10 -7 30 -4 45
6 31 -6 37 -14 7z"/>
<path d="M1066 794 c-30 -30 -13 -74 29 -74 42 0 59 44 29 74 -8 9 -22 16 -29
16 -7 0 -21 -7 -29 -16z m49 -34 c0 -16 -6 -26 -18 -28 -19 -4 -32 20 -23 44
9 25 41 13 41 -16z"/>
<path d="M1153 735 c-18 -38 -11 -59 11 -30 7 10 18 15 24 11 7 -4 12 -2 12 3
0 6 -4 11 -10 11 -5 0 -10 5 -10 10 0 6 7 10 16 10 8 0 12 5 9 10 -12 20 -36
9 -52 -25z"/>
<path d="M1940 755 c-17 -20 -5 -62 20 -70 29 -9 60 12 60 41 0 20 -4 25 -16
20 -9 -3 -18 -6 -20 -6 -2 0 -4 -5 -4 -11 0 -5 5 -7 10 -4 6 3 10 -1 10 -10 0
-11 -7 -15 -22 -13 -34 5 -32 50 2 59 l25 7 -26 1 c-15 1 -32 -6 -39 -14z"/>
<path d="M1263 695 c-1 -26 3 -43 8 -40 5 4 9 12 9 20 0 7 7 21 17 30 14 14
14 18 2 26 -26 17 -34 9 -36 -36z"/>
<path d="M1842 728 c-7 -7 -12 -21 -12 -33 0 -12 5 -26 12 -33 7 -7 21 -12 33
-12 12 0 26 5 33 12 7 7 12 21 12 33 0 12 -5 26 -12 33 -7 7 -21 12 -33 12
-12 0 -26 -5 -33 -12z m58 -34 c0 -21 -4 -25 -22 -22 -15 2 -24 11 -26 26 -3
18 1 22 22 22 21 0 26 -5 26 -26z"/>
<path d="M1326 708 c-12 -39 -15 -68 -7 -68 5 0 16 -3 25 -6 9 -3 16 -1 16 4
0 6 -8 13 -17 15 -15 4 -14 6 5 12 21 7 21 8 5 21 -17 12 -16 13 5 14 13 0 20
4 17 10 -9 14 -45 12 -49 -2z"/>
<path d="M1774 678 c8 -52 10 -54 38 -40 17 8 18 11 7 11 -18 1 -29 21 -29 52
0 10 -5 19 -11 19 -8 0 -9 -14 -5 -42z"/>
<path d="M1395 686 c-20 -30 -5 -66 26 -66 21 0 21 0 -1 18 -25 20 -18 52 12
52 10 0 16 5 13 10 -11 17 -34 11 -50 -14z"/>
<path d="M1692 703 c-22 -9 -34 -41 -22 -63 23 -44 101 -12 84 35 -5 13 -36
37 -46 34 -2 0 -9 -3 -16 -6z m42 -30 c4 -9 0 -23 -9 -32 -13 -14 -17 -14 -30
0 -19 19 -10 49 15 49 10 0 21 -8 24 -17z"/>
<path d="M1466 669 c-8 -42 -8 -49 4 -49 6 0 10 7 10 15 0 8 9 15 20 15 13 0
20 -7 20 -20 0 -37 18 -20 22 21 4 43 -6 63 -15 29 -7 -26 -37 -26 -37 0 0 31
-17 23 -24 -11z"/>
<path d="M1560 655 c0 -25 5 -45 10 -45 6 0 10 12 10 27 l0 27 28 -27 c15 -15
31 -27 35 -27 11 0 8 78 -3 85 -6 4 -10 -5 -10 -19 0 -32 -7 -33 -32 -1 -28
36 -38 31 -38 -20z"/>
<path d="M107 966 l-98 -11 42 -50 c23 -27 58 -72 77 -98 l35 -48 24 23 c25
24 77 125 87 171 6 26 5 27 -31 26 -21 -1 -82 -7 -136 -13z"/>
<path d="M2840 968 c0 -26 40 -124 67 -166 43 -64 49 -68 63 -42 6 11 40 56
75 100 l65 79 -43 5 c-23 3 -71 8 -107 11 -36 4 -77 9 -92 12 -16 3 -28 4 -28
1z"/>
<path d="M324 903 c-20 -94 -62 -173 -115 -217 l-29 -25 65 -73 c243 -275 589
-471 963 -548 173 -35 335 -46 487 -32 463 42 849 225 1174 556 l94 96 -39 26
c-22 14 -47 36 -57 47 -29 34 -67 119 -67 149 0 45 -15 40 -56 -20 -63 -92
-219 -241 -329 -314 -404 -269 -901 -329 -1365 -166 -249 88 -485 257 -647
465 -35 46 -66 83 -69 83 -2 0 -6 -12 -10 -27z m107 -113 c209 -244 492 -408
833 -482 86 -19 132 -22 306 -22 176 0 220 3 310 23 341 73 638 248 830 488
69 86 80 95 80 64 0 -35 40 -109 82 -151 22 -22 44 -40 49 -40 26 0 -1 -37
-93 -126 -215 -208 -444 -350 -709 -438 -196 -65 -305 -81 -554 -81 -234 0
-301 9 -488 61 -245 68 -489 202 -687 377 -86 75 -180 178 -180 195 0 5 8 16
17 23 30 26 90 128 103 176 l12 48 16 -25 c10 -14 42 -54 73 -90z"/>
<path d="M2753 703 c-19 -7 -16 -27 7 -48 19 -17 20 -17 20 -1 0 9 5 14 10 11
16 -10 12 4 -7 24 -10 10 -24 16 -30 14z"/>
<path d="M2711 657 c-16 -20 21 -52 46 -42 17 8 17 8 0 12 -9 3 -14 9 -10 15
4 8 0 9 -11 5 -14 -5 -17 -3 -12 8 7 19 2 19 -13 2z"/>
<path d="M468 620 c18 -20 15 -32 -7 -25 -15 4 -20 0 -23 -25 -3 -16 -1 -30 4
-30 4 0 8 7 8 15 0 8 4 15 9 15 16 0 24 -21 12 -33 -26 -26 -8 -28 19 -2 24
23 32 26 45 15 8 -7 12 -16 9 -22 -3 -5 -12 -4 -20 3 -12 9 -14 5 -13 -27 0
-34 1 -36 10 -16 11 28 29 20 29 -12 0 -33 23 -51 40 -31 16 19 30 19 30 1 0
-8 -8 -17 -17 -19 -14 -4 -13 -5 3 -6 27 -1 39 26 22 47 -11 13 -10 14 10 3
25 -14 27 -28 7 -55 -8 -11 -15 -24 -15 -29 0 -7 31 27 45 51 5 6 35 -11 35
-20 0 -6 -7 -8 -15 -4 -17 6 -20 -25 -5 -59 8 -18 9 -17 9 7 1 15 10 33 21 41
18 13 15 16 -53 64 -40 27 -103 76 -142 108 -38 32 -64 52 -57 45z m32 -50 c0
-5 -4 -10 -10 -10 -5 0 -10 5 -10 10 0 6 5 10 10 10 6 0 10 -4 10 -10z m91
-67 c12 -15 12 -16 -4 -10 -10 4 -23 7 -28 7 -5 0 -9 5 -9 10 0 16 26 12 41
-7z m-3 -35 c-6 -18 -28 -21 -28 -4 0 9 7 16 16 16 9 0 14 -5 12 -12z"/>
<path d="M2661 606 c-13 -13 -21 -32 -19 -42 4 -22 36 -31 52 -14 8 9 6 11
-11 6 -28 -9 -40 11 -19 32 12 13 19 14 28 4 20 -20 27 -14 15 13 -15 31 -18
31 -46 1z"/>
<path d="M2596 542 c-2 -4 -1 -14 5 -22 12 -20 11 -40 -1 -40 -5 0 -10 7 -10
15 0 16 -35 21 -44 7 -6 -11 22 -52 35 -52 6 0 7 5 4 10 -3 6 0 10 8 10 8 0
20 7 27 15 10 12 10 18 0 30 -9 10 -9 15 -1 15 6 0 11 -4 11 -10 0 -5 7 -10
15 -10 23 0 18 16 -10 28 -31 14 -32 14 -39 4z"/>
<path d="M2500 466 c0 -3 4 -16 10 -31 9 -24 10 -25 28 -8 17 16 18 19 4 31
-15 11 -42 17 -42 8z m35 -16 c3 -5 1 -10 -4 -10 -6 0 -11 5 -11 10 0 6 2 10
4 10 3 0 8 -4 11 -10z"/>
<path d="M2472 435 c2 -14 -2 -20 -14 -19 -10 1 -18 0 -18 -3 0 -12 22 -43 31
-43 6 0 7 5 4 10 -11 17 5 32 21 19 21 -17 17 2 -7 31 -17 22 -19 23 -17 5z"/>
<path d="M2404 395 c-9 -23 3 -45 26 -45 11 0 20 4 20 10 0 5 -6 7 -14 4 -20
-8 -30 14 -16 31 9 11 9 15 1 15 -6 0 -14 -7 -17 -15z"/>
<path d="M874 365 c-4 -10 -14 -14 -28 -10 -20 5 -20 4 2 -6 12 -7 22 -16 22
-21 0 -5 -9 -4 -19 1 -15 9 -22 6 -36 -15 -15 -24 -15 -28 -1 -42 13 -14 14
-13 9 6 -4 16 -1 22 11 22 9 0 16 -7 16 -16 0 -8 5 -12 10 -9 8 5 8 11 0 20
-8 9 -5 14 12 18 30 8 34 2 19 -29 -18 -40 -6 -40 17 0 15 25 19 42 13 63 -8
31 -38 43 -47 18z m36 -15 c0 -19 -11 -26 -23 -14 -8 8 3 34 14 34 5 0 9 -9 9
-20z"/>
<path d="M2330 354 c-11 -13 -10 -16 8 -21 24 -6 29 -19 10 -26 -8 -4 -9 -6
-2 -6 6 -1 17 6 24 15 11 13 10 16 -8 20 -12 4 -19 11 -15 20 7 19 -1 18 -17
-2z"/>
<path d="M2300 333 c0 -19 11 -43 21 -43 13 0 11 14 -6 36 -8 10 -15 14 -15 7z"/>
<path d="M2248 297 c-4 -19 -1 -30 9 -34 21 -8 23 -1 9 32 l-13 30 -5 -28z"/>
<path d="M1024 293 c-4 -10 -6 -22 -5 -27 1 -5 -3 -22 -8 -37 -5 -16 -6 -29
-1 -29 5 0 11 14 15 30 8 36 14 37 39 4 19 -26 19 -26 -4 -19 -19 6 -21 5 -11
-13 14 -26 37 -42 28 -19 -3 9 0 18 9 21 8 3 14 12 14 21 0 8 5 15 11 15 11 0
8 -25 -7 -64 -3 -9 -2 -16 4 -16 5 0 13 16 16 35 4 19 11 35 17 35 6 0 7 -14
4 -33 -6 -29 -3 -35 19 -45 23 -10 26 -9 26 9 0 16 -4 19 -21 14 -16 -5 -20
-3 -17 6 3 8 13 13 22 11 13 -2 17 3 14 20 -2 13 -10 23 -18 24 -30 2 -60 17
-60 29 0 18 -34 45 -57 45 -12 0 -24 -8 -29 -17z m61 -13 c11 -13 14 -20 6
-20 -21 0 -52 21 -46 31 9 14 20 11 40 -11z"/>
<path d="M2200 293 c1 -5 7 -19 14 -32 l13 -24 5 26 c3 17 0 28 -9 31 -19 8
-23 7 -23 -1z"/>
<path d="M2144 266 c-10 -26 4 -48 28 -44 17 2 23 10 23 28 0 18 -6 26 -23 28
-13 2 -25 -3 -28 -12z m42 -7 c10 -17 -13 -36 -27 -22 -12 12 -4 33 11 33 5 0
12 -5 16 -11z"/>
<path d="M2111 250 c0 -8 4 -24 9 -35 l9 -20 0 20 c0 11 -4 27 -9 35 -9 13
-10 13 -9 0z"/>
<path d="M2055 240 c-3 -5 -2 -10 4 -10 5 0 13 -9 16 -20 10 -31 22 -24 17 10
-4 29 -25 40 -37 20z"/>
<path d="M1214 215 c3 -8 -3 -19 -12 -24 -12 -7 -13 -10 -3 -11 8 0 11 -7 8
-20 -3 -11 -2 -20 3 -20 4 0 11 16 14 35 10 51 30 45 23 -7 -5 -36 -5 -39 4
-18 6 14 15 33 20 43 5 9 8 17 7 17 -2 0 -18 4 -36 10 -28 7 -33 7 -28 -5z"/>
<path d="M2010 199 c0 -26 2 -30 15 -19 8 6 19 9 25 5 14 -9 12 6 -4 28 -20
26 -36 20 -36 -14z m25 11 c3 -5 1 -10 -4 -10 -6 0 -11 5 -11 10 0 6 2 10 4
10 3 0 8 -4 11 -10z"/>
<path d="M1495 200 c-3 -11 -3 -29 0 -40 5 -17 2 -20 -24 -20 -17 0 -31 -4
-31 -8 0 -12 32 -40 50 -43 27 -6 69 11 80 31 10 18 8 20 -23 20 -32 0 -33 1
-29 34 4 38 -13 58 -23 26z"/>
<path d="M1954 205 c-9 -23 3 -45 26 -45 11 0 20 4 20 10 0 5 -6 7 -14 4 -23
-9 -31 18 -11 33 17 12 17 13 2 13 -10 0 -20 -7 -23 -15z"/>
<path d="M1920 188 c0 -16 -4 -28 -10 -28 -5 0 -10 6 -10 14 0 8 -4 18 -10 21
-14 9 -12 -18 3 -39 26 -36 62 6 37 44 -8 12 -10 9 -10 -12z"/>
<path d="M1770 160 c0 -25 4 -30 23 -29 12 0 16 3 9 6 -6 2 -10 9 -6 14 3 5 0
9 -7 9 -8 0 -8 4 1 15 10 12 10 15 -4 15 -11 0 -16 -9 -16 -30z"/>
<path d="M1816 163 c9 -36 9 -36 34 -28 32 10 23 49 -13 53 -26 3 -27 1 -21
-25z m36 2 c0 -5 -5 -11 -11 -13 -6 -2 -11 4 -11 13 0 9 5 15 11 13 6 -2 11
-8 11 -13z"/>
</g>
</svg>
