<?xml version="1.0" encoding="UTF-8" standalone="no"?>
<!-- Created with Inkscape (http://www.inkscape.org/) -->

<svg
   version="1.1"
   id="svg2"
   width="497.05865"
   height="269.608"
   viewBox="0 0 497.05865 269.608"
   sodipodi:docname="iotac-logo.ai"
   xmlns:inkscape="http://www.inkscape.org/namespaces/inkscape"
   xmlns:sodipodi="http://sodipodi.sourceforge.net/DTD/sodipodi-0.dtd"
   xmlns="http://www.w3.org/2000/svg"
   xmlns:svg="http://www.w3.org/2000/svg">
  <defs
     id="defs6">
    <linearGradient
       x1="0"
       y1="0"
       x2="1"
       y2="0"
       gradientUnits="userSpaceOnUse"
       gradientTransform="matrix(118.58804,205.4005,205.4005,-118.58804,143.89339,5.5880651)"
       spreadMethod="pad"
       id="linearGradient28">
      <stop
         style="stop-opacity:1;stop-color:#4eb5e7"
         offset="0"
         id="stop22" />
      <stop
         style="stop-opacity:1;stop-color:#275aa9"
         offset="0.536428"
         id="stop24" />
      <stop
         style="stop-opacity:1;stop-color:#163851"
         offset="1"
         id="stop26" />
    </linearGradient>
  </defs>
  <sodipodi:namedview
     id="namedview4"
     pagecolor="#ffffff"
     bordercolor="#000000"
     borderopacity="0.25"
     inkscape:showpageshadow="2"
     inkscape:pageopacity="0.0"
     inkscape:pagecheckerboard="0"
     inkscape:deskcolor="#d1d1d1" />
  <g
     id="g8"
     inkscape:groupmode="layer"
     inkscape:label="iotac-logo"
     transform="matrix(1.3333333,0,0,-1.3333333,0,269.608)">
    <g
       id="g10">
      <g
         id="g12">
        <g
           id="g18">
          <g
             id="g20">
            <path
               d="m 222.546,146.007 -30.893,-0.819 -17.856,-11.586 -18.829,12.47 H 136.39 L 116.6,129.289 94.344,144.056 57.974,146.072 26.915,100.633 57.974,55.194 h 165.481 v 0.355 c 14.147,-19.557 37.541,-31.865 65.061,-31.865 v 0 c 15.162,0 33.194,5.551 43.85,13.497 v 0 l 2.845,2.122 -1.77,3.078 -8.114,14.113 -2.253,3.917 -3.615,-2.711 c -9.792,-7.345 -22.405,-9.961 -30.943,-9.961 v 0 c -14.967,0 -28.704,5.389 -38.679,15.174 v 0 c -10.02,9.83 -15.538,23.445 -15.538,38.337 v 0 c 0,15.129 5.862,29.299 16.509,39.902 v 0 c 10.638,10.597 24.845,16.433 40.002,16.433 v 0 c 16.38,0 30.191,-5.5 39.943,-15.905 v 0 l 2.477,-2.644 2.875,2.205 12.887,9.88 3.505,2.687 -3.02,3.222 c -14.762,15.756 -35.597,24.433 -58.667,24.433 v 0 c -28.84,0 -53.742,-13.934 -68.264,-35.456 m -68.65,-18.931 h 52.722 v -15.291 h -16.71 v -43.28 h -19.384 v 43.28 h -16.628 z m -73.106,0 h 19.384 V 68.506 H 80.79 Z m 24.814,-35.677 c 0,14.287 10.11,23.478 25.818,23.478 v 0 c 15.707,0 25.817,-9.191 25.817,-23.478 v 0 c 0,-14.288 -10.11,-23.562 -25.817,-23.562 v 0 c -15.708,0 -25.818,9.274 -25.818,23.562 m 147.085,9.92 c 0,-21.012 16.024,-34.92 32.954,-34.92 v 0 c 8.617,0 16.932,3.628 22.828,12.094 v 0 l 0.301,-1.965 c 1.966,-8.163 8.617,-11.791 17.687,-11.791 v 0 c 0.591,0 1.174,0.022 1.754,0.058 v 0 l -0.63,12.069 c -2.944,0.266 -4.903,2.318 -4.903,7.374 v 0 50.944 h -18.443 v -8.012 c -0.756,1.662 -8.465,9.674 -20.559,9.674 v 0 c -18.896,0 -30.989,-16.176 -30.989,-35.525 m 20.105,0.756 c 0,9.827 5.896,17.99 14.663,17.99 v 0 c 9.675,0 15.571,-8.163 15.571,-18.14 v 0 c 0,-10.431 -5.744,-19.048 -15.419,-19.048 v 0 c -9.071,0 -14.815,8.919 -14.815,19.198 M 124.571,91.148 c 0,-5.347 2.673,-8.856 6.851,-8.856 v 0 c 4.177,0 6.85,3.509 6.85,8.856 v 0 c 0,5.347 -2.673,8.856 -6.85,8.856 v 0 c -4.178,0 -6.851,-3.509 -6.851,-8.856"
               style="fill:url(#linearGradient28);stroke:none"
               id="path30" />
          </g>
        </g>
      </g>
    </g>
  </g>
</svg>
