<?xml version="1.0" encoding="utf-8"?>
<!-- Generator: Adobe Illustrator 26.0.0, SVG Export Plug-In . SVG Version: 6.00 Build 0)  -->
<svg version="1.1" id="Layer_1" xmlns="http://www.w3.org/2000/svg" xmlns:xlink="http://www.w3.org/1999/xlink" x="0px" y="0px"
	 viewBox="0 0 986.4 979.7" style="enable-background:new 0 0 986.4 979.7;" xml:space="preserve">
<style type="text/css">
	.st0{clip-path:url(#XMLID_00000003087283601878018510000010539609604572423562_);fill:#01A2FD;}
	.st1{clip-path:url(#XMLID_00000003087283601878018510000010539609604572423562_);fill:#F97707;}
	.st2{clip-path:url(#XMLID_00000003087283601878018510000010539609604572423562_);fill:#014DAF;}
	.st3{fill:#F97707;}
	.st4{fill:#FEC401;}
	.st5{fill:#014DAF;}
	.st6{clip-path:url(#XMLID_00000172397941860468939110000009784576520013598592_);fill:#FEC401;}
	.st7{clip-path:url(#XMLID_00000172397941860468939110000009784576520013598592_);fill:#01A2FD;}
	.st8{clip-path:url(#XMLID_00000172397941860468939110000009784576520013598592_);fill:#014DAF;}
	.st9{clip-path:url(#XMLID_00000172397941860468939110000009784576520013598592_);fill:#F97707;}
</style>
<g>
	<g>
		<g>
			<g>
				<path d="M284.3,821.7l-0.2-69.2l-33.9,57h-12L204.4,754v67.7h-25V706.4h22.1l43.1,71.6l42.5-71.6H309l0.3,115.3H284.3z"/>
				<path d="M379.9,815.9c-9.6-5.2-17.1-12.3-22.6-21.3c-5.4-9.1-8.2-19.2-8.2-30.5c0-11.3,2.7-21.5,8.2-30.5
					c5.4-9.1,13-16.2,22.6-21.3c9.6-5.2,20.4-7.7,32.4-7.7c12,0,22.7,2.6,32.3,7.7c9.6,5.2,17.1,12.3,22.6,21.3
					c5.5,9.1,8.2,19.2,8.2,30.5c0,11.3-2.7,21.5-8.2,30.5c-5.5,9.1-13,16.2-22.6,21.3c-9.6,5.2-20.3,7.7-32.3,7.7
					C400.3,823.7,389.5,821.1,379.9,815.9z M430.7,796.3c5.5-3.1,9.8-7.5,12.9-13.1c3.1-5.6,4.7-12,4.7-19.1
					c0-7.1-1.6-13.5-4.7-19.1c-3.1-5.6-7.4-10-12.9-13.1c-5.5-3.1-11.6-4.7-18.4-4.7c-6.8,0-13,1.6-18.4,4.7
					c-5.5,3.1-9.8,7.5-12.9,13.1c-3.1,5.6-4.7,12-4.7,19.1c0,7.1,1.6,13.5,4.7,19.1s7.4,10,12.9,13.1c5.5,3.1,11.6,4.7,18.4,4.7
					C419,801,425.2,799.4,430.7,796.3z"/>
				<path d="M526.6,820c-8.5-2.5-15.3-5.7-20.5-9.6l9.1-20.1c4.9,3.6,10.8,6.5,17.6,8.7c6.8,2.2,13.6,3.3,20.4,3.3
					c7.6,0,13.2-1.1,16.8-3.4c3.6-2.2,5.4-5.2,5.4-9c0-2.7-1.1-5-3.2-6.8c-2.1-1.8-4.9-3.3-8.2-4.4c-3.3-1.1-7.9-2.3-13.6-3.6
					c-8.8-2.1-16-4.2-21.6-6.3c-5.6-2.1-10.4-5.4-14.4-10c-4-4.6-6-10.8-6-18.4c0-6.7,1.8-12.8,5.4-18.2c3.6-5.4,9.1-9.7,16.4-12.9
					c7.3-3.2,16.2-4.8,26.8-4.8c7.4,0,14.5,0.9,21.6,2.6c7,1.8,13.2,4.3,18.4,7.6l-8.2,20.3c-10.7-6-21.3-9.1-31.9-9.1
					c-7.5,0-13,1.2-16.6,3.6c-3.6,2.4-5.4,5.6-5.4,9.6c0,4,2.1,6.9,6.2,8.8c4.1,1.9,10.4,3.8,18.9,5.7c8.8,2.1,16,4.2,21.6,6.3
					c5.6,2.1,10.4,5.4,14.4,9.9c4,4.5,6,10.6,6,18.3c0,6.6-1.8,12.6-5.5,18c-3.7,5.4-9.2,9.7-16.6,12.9c-7.4,3.2-16.3,4.8-26.8,4.8
					C543.9,823.7,535.1,822.4,526.6,820z"/>
				<path d="M640,706.4h26.7v115.3H640V706.4z"/>
				<path d="M790.2,711.5c7.5,3.4,13.3,8.2,17.4,14.5c4.1,6.3,6.1,13.7,6.1,22.2c0,8.5-2,15.8-6.1,22.1c-4.1,6.3-9.9,11.1-17.4,14.5
					c-7.5,3.3-16.4,5-26.6,5h-23.2v31.8h-26.7V706.4h49.9C773.8,706.4,782.7,708.1,790.2,711.5z M780.4,763
					c4.2-3.5,6.3-8.4,6.3-14.7c0-6.5-2.1-11.4-6.3-14.9c-4.2-3.5-10.3-5.2-18.3-5.2h-21.7v40h21.7
					C770.2,768.2,776.3,766.5,780.4,763z"/>
			</g>
		</g>
	</g>
	<g>
		<g>
			<g>
				<defs>
					<path id="XMLID_00000000210671173500704980000004062813219992309406_" d="M634.5,206.1c-1.5,5.3-4,10.3-7.5,14.6
						c-7.5,9.1-18.9,14.1-30,17.8c-1.3,0.4-2.7,0.9-3.6,1.9c-1.4,1.5-1.5,3.8-1.7,5.9c-0.5,6.9-2.6,13.8-6.8,19.2
						c-4.3,5.4-11,9.1-17.9,8.7c-3.1-0.2-6.1-1.2-9.1-2.1c-21-6.3-42.9-8.8-64.7-10.6c-13.2-1.1-26.6-2-38.8-7.2
						c-11-4.7-24.7-15.9-23.7-29.1c1.1-15.4-0.5-31.4,4.5-46.5c1.4-4.1,3.2-7.9,5.3-11.6C340.1,192.3,265.8,283,265.8,391
						c0,127.5,103.3,230.8,230.8,230.8S727.3,518.5,727.3,391C727.3,315.3,690.9,248.1,634.5,206.1z M496.5,509.5
						c-65.4,0-118.4-53-118.4-118.4c0-65.4,53-118.4,118.4-118.4S615,325.6,615,391C615,456.5,562,509.5,496.5,509.5z"/>
				</defs>
				<use xlink:href="#XMLID_00000000210671173500704980000004062813219992309406_"  style="overflow:visible;fill:#FEC401;"/>
				<clipPath id="XMLID_00000052096598318491872600000015417876083268881035_">
					<use xlink:href="#XMLID_00000000210671173500704980000004062813219992309406_"  style="overflow:visible;"/>
				</clipPath>
				
					<circle style="clip-path:url(#XMLID_00000052096598318491872600000015417876083268881035_);fill:#01A2FD;" cx="586.2" cy="527.5" r="92"/>
				
					<circle style="clip-path:url(#XMLID_00000052096598318491872600000015417876083268881035_);fill:#F97707;" cx="322.7" cy="360.8" r="37.6"/>
				
					<circle style="clip-path:url(#XMLID_00000052096598318491872600000015417876083268881035_);fill:#01A2FD;" cx="391.5" cy="454.5" r="68.3"/>
				
					<circle style="clip-path:url(#XMLID_00000052096598318491872600000015417876083268881035_);fill:#014DAF;" cx="296" cy="306.9" r="68.3"/>
				
					<circle style="clip-path:url(#XMLID_00000052096598318491872600000015417876083268881035_);fill:#F97707;" cx="424.8" cy="261.5" r="55.8"/>
				
					<circle style="clip-path:url(#XMLID_00000052096598318491872600000015417876083268881035_);fill:#01A2FD;" cx="406.2" cy="185" r="55.3"/>
				
					<circle style="clip-path:url(#XMLID_00000052096598318491872600000015417876083268881035_);fill:#F97707;" cx="674.7" cy="294.1" r="55.8"/>
				
					<circle style="clip-path:url(#XMLID_00000052096598318491872600000015417876083268881035_);fill:#01A2FD;" cx="663.5" cy="347.8" r="37"/>
				
					<circle style="clip-path:url(#XMLID_00000052096598318491872600000015417876083268881035_);fill:#014DAF;" cx="565.4" cy="261.2" r="37"/>
				
					<circle style="clip-path:url(#XMLID_00000052096598318491872600000015417876083268881035_);fill:#014DAF;" cx="501" cy="190.6" r="26.4"/>
				
					<circle style="clip-path:url(#XMLID_00000052096598318491872600000015417876083268881035_);fill:#F97707;" cx="412.5" cy="560.5" r="55.8"/>
				
					<circle style="clip-path:url(#XMLID_00000052096598318491872600000015417876083268881035_);fill:#014DAF;" cx="290.6" cy="463.5" r="41.2"/>
				
					<circle style="clip-path:url(#XMLID_00000052096598318491872600000015417876083268881035_);fill:#014DAF;" cx="507.2" cy="586.2" r="73.1"/>
				
					<circle style="clip-path:url(#XMLID_00000052096598318491872600000015417876083268881035_);fill:#014DAF;" cx="643.8" cy="460.4" r="37.6"/>
			</g>
			<circle class="st3" cx="568.5" cy="175.1" r="20.2"/>
			<circle class="st4" cx="522.8" cy="150.8" r="12.1"/>
			<circle class="st5" cx="618.5" cy="218.7" r="20.2"/>
		</g>
		<g>
			<defs>
				<path id="XMLID_00000143577805522463882030000005801487919315870888_" d="M496.5,160.3c-127.4,0-230.8,103.3-230.8,230.8
					s103.3,230.8,230.8,230.8c127.4,0,230.8-103.3,230.8-230.8S624,160.3,496.5,160.3z M496.5,509.5c-65.4,0-118.4-53-118.4-118.4
					s53-118.4,118.4-118.4S615,325.6,615,391S562,509.5,496.5,509.5z"/>
			</defs>
			<clipPath id="XMLID_00000047738985799314204090000003125294299391412391_">
				<use xlink:href="#XMLID_00000143577805522463882030000005801487919315870888_"  style="overflow:visible;"/>
			</clipPath>
			
				<circle style="clip-path:url(#XMLID_00000047738985799314204090000003125294299391412391_);fill:#FEC401;" cx="505.7" cy="272.6" r="32.4"/>
			
				<circle style="clip-path:url(#XMLID_00000047738985799314204090000003125294299391412391_);fill:#01A2FD;" cx="571.9" cy="271" r="41.9"/>
			
				<circle style="clip-path:url(#XMLID_00000047738985799314204090000003125294299391412391_);fill:#FEC401;" cx="555.1" cy="230.8" r="20.2"/>
			
				<circle style="clip-path:url(#XMLID_00000047738985799314204090000003125294299391412391_);fill:#014DAF;" cx="503.4" cy="201.1" r="26"/>
			
				<circle style="clip-path:url(#XMLID_00000047738985799314204090000003125294299391412391_);fill:#F97707;" cx="424.3" cy="262.5" r="55.8"/>
			
				<circle style="clip-path:url(#XMLID_00000047738985799314204090000003125294299391412391_);fill:#01A2FD;" cx="405.8" cy="186" r="55.3"/>
		</g>
	</g>
</g>
</svg>
