<?xml version="1.0" standalone="no"?>
<!DOCTYPE svg PUBLIC "-//W3C//DTD SVG 20010904//EN"
 "http://www.w3.org/TR/2001/REC-SVG-20010904/DTD/svg10.dtd">
<svg version="1.0" xmlns="http://www.w3.org/2000/svg"
 width="2411.000000pt" height="1035.000000pt" viewBox="0 0 2411.000000 1035.000000"
 preserveAspectRatio="xMidYMid meet">

<g transform="translate(0.000000,1035.000000) scale(0.100000,-0.100000)"
fill="#000000" stroke="none">
<path d="M1640 7445 l0 -965 200 0 200 0 0 647 0 647 44 -70 c24 -38 106 -170
183 -294 77 -124 238 -384 358 -577 l219 -353 213 0 213 0 0 965 0 965 -200 0
-200 0 -2 -643 -3 -643 -195 314 c-107 172 -239 384 -293 470 -53 87 -145 235
-204 330 l-106 172 -214 0 -213 0 0 -965z"/>
<path d="M3512 8233 l3 -178 288 -3 287 -2 0 -785 0 -785 215 0 215 0 0 785 0
785 290 0 290 0 0 180 0 180 -795 0 -795 0 2 -177z"/>
<path d="M5340 8230 l0 -180 290 0 290 0 0 -785 0 -785 215 0 215 0 0 785 0
785 288 2 287 3 3 178 3 177 -795 0 -796 0 0 -180z"/>
<path d="M15760 7309 c-195 -33 -351 -219 -350 -418 1 -244 188 -430 431 -431
174 0 319 96 395 262 26 56 29 73 28 163 0 80 -5 112 -23 158 -74 189 -277
301 -481 266z"/>
<path d="M7247 7294 c-8 -9 -10 -4055 -1 -4078 6 -14 98 -16 948 -16 593 0
983 4 1052 11 690 67 1228 469 1458 1090 121 328 170 638 162 1039 -10 501
-117 882 -343 1225 -91 137 -292 337 -429 428 -216 143 -466 234 -775 284 -90
14 -234 17 -1084 20 -539 3 -984 1 -988 -3z m1883 -788 c393 -85 639 -310 754
-688 74 -243 101 -650 61 -931 -39 -268 -134 -482 -290 -645 -143 -151 -307
-233 -535 -267 -72 -11 -203 -15 -532 -15 l-438 0 0 1288 0 1287 452 -6 c363
-5 468 -10 528 -23z"/>
<path d="M11110 6890 l0 -410 410 0 410 0 -2 408 -3 407 -407 3 -408 2 0 -410z"/>
<path d="M21667 7294 c-4 -4 -7 -927 -7 -2051 l0 -2043 410 0 410 0 -2 2048
-3 2047 -401 3 c-220 1 -403 -1 -407 -4z"/>
<path d="M16987 7053 c-4 -3 -7 -237 -7 -520 l0 -513 -245 0 -245 0 0 -275 0
-275 245 0 245 0 1 -847 c0 -467 2 -864 3 -883 14 -175 152 -382 306 -457 109
-53 165 -68 360 -98 134 -20 596 -13 717 11 l32 6 1 315 0 314 -77 -8 c-43 -4
-130 -8 -193 -7 -190 1 -266 36 -306 141 -17 45 -19 99 -22 781 l-3 732 268 1
c147 0 282 2 298 2 l30 2 3 273 3 272 -301 0 -300 0 0 520 0 520 -403 0 c-222
0 -407 -3 -410 -7z"/>
<path d="M19910 6244 c-470 -37 -761 -138 -980 -341 -111 -103 -190 -221 -235
-353 -28 -81 -55 -214 -55 -266 l0 -34 407 2 407 3 13 70 c17 94 73 204 126
251 50 43 140 87 217 104 83 19 272 21 373 4 113 -18 186 -54 247 -121 55 -60
77 -116 86 -220 18 -202 -77 -292 -372 -352 -54 -11 -148 -25 -209 -31 -338
-35 -660 -94 -829 -154 -307 -106 -499 -324 -546 -618 -17 -102 -8 -350 15
-438 38 -144 139 -309 241 -395 204 -169 519 -252 861 -226 358 28 637 131
819 302 l53 51 6 -39 c10 -61 34 -175 43 -208 l8 -30 417 -3 416 -2 -25 54
c-27 59 -48 147 -63 266 -5 42 -10 466 -10 958 -1 935 -3 1003 -27 1122 -67
325 -379 553 -840 614 -191 25 -448 39 -564 30z m607 -1826 c-7 -258 -19 -327
-77 -445 -46 -93 -102 -155 -191 -213 -94 -60 -170 -81 -328 -87 -345 -15
-515 79 -551 303 -22 136 15 260 103 345 93 91 241 139 557 184 246 35 396 73
450 115 14 11 29 20 34 20 5 0 6 -94 3 -222z"/>
<path d="M13205 6085 c-511 -94 -877 -489 -1001 -1079 -49 -232 -44 -574 11
-840 108 -522 416 -872 864 -981 356 -88 740 -32 1001 145 68 46 179 162 217
227 l28 48 5 -205 c8 -335 -7 -446 -83 -599 -71 -146 -181 -238 -343 -288 -84
-25 -351 -26 -444 0 -194 53 -303 149 -366 321 l-22 61 -403 0 -404 0 3 -40
c30 -361 297 -670 703 -813 216 -76 442 -108 709 -98 220 7 248 10 409 42 411
82 745 319 897 639 53 110 78 201 103 370 19 124 20 192 21 1578 l0 1447 -390
0 -391 0 1 -177 c0 -98 1 -187 0 -198 0 -13 -16 4 -47 50 -61 92 -193 223
-268 267 -80 46 -173 83 -276 109 -112 28 -413 36 -534 14z m620 -617 c162
-33 317 -161 398 -328 74 -154 108 -329 108 -554 -1 -284 -80 -497 -243 -652
-133 -126 -293 -182 -488 -171 -168 10 -269 55 -385 172 -118 119 -187 281
-219 515 -12 86 -6 334 10 430 57 334 259 563 534 601 63 9 212 2 285 -13z"/>
<path d="M11110 4610 l0 -1410 410 0 410 0 0 1410 0 1410 -410 0 -410 0 0
-1410z"/>
<path d="M15430 4610 l0 -1410 410 0 410 0 0 1410 0 1410 -410 0 -410 0 0
-1410z"/>
</g>
</svg>
