<?xml version="1.0" encoding="UTF-8" standalone="no"?>
<!-- Created with Inkscape (http://www.inkscape.org/) -->

<svg
   version="1.1"
   id="svg2"
   xml:space="preserve"
   width="394.00531"
   height="302.36267"
   viewBox="0 0 394.00531 302.36267"
   sodipodi:docname="c743b4ec49fcb608b3bee3b13af85bcc.ai"
   xmlns:inkscape="http://www.inkscape.org/namespaces/inkscape"
   xmlns:sodipodi="http://sodipodi.sourceforge.net/DTD/sodipodi-0.dtd"
   xmlns="http://www.w3.org/2000/svg"
   xmlns:svg="http://www.w3.org/2000/svg"><defs
     id="defs6"><clipPath
       clipPathUnits="userSpaceOnUse"
       id="clipPath38"><path
         d="M 0,340.157 H 408.89 V 0 H 0 Z"
         id="path36" /></clipPath></defs><sodipodi:namedview
     id="namedview4"
     pagecolor="#ffffff"
     bordercolor="#666666"
     borderopacity="1.0"
     inkscape:pageshadow="2"
     inkscape:pageopacity="0.0"
     inkscape:pagecheckerboard="0" /><g
     id="g8"
     inkscape:groupmode="layer"
     inkscape:label="c743b4ec49fcb608b3bee3b13af85bcc"
     transform="matrix(1.3333333,0,0,-1.3333333,-75.590265,377.95306)"><g
       id="g10"
       transform="translate(247.9506,116.5043)"><path
         d="M 0,0 H 5.617 L 2.864,13.168 H 2.753 Z M -3.906,-8.109 1.451,16.628 H 4.278 L 9.635,-8.109 H 7.18 l -1.265,6.1 H -0.26 l -1.302,-6.1 z"
         style="fill:#000000;fill-opacity:1;fill-rule:nonzero;stroke:none"
         id="path12" /></g><g
       id="g14"
       transform="translate(263.5703,133.1322)"><path
         d="m 0,0 v -22.692 h 7.552 v -2.045 H -2.343 V 0 Z"
         style="fill:#000000;fill-opacity:1;fill-rule:nonzero;stroke:none"
         id="path16" /></g><g
       id="g18"
       transform="translate(276.7729,133.1322)"><path
         d="m 0,0 v -22.692 h 7.552 v -2.045 H -2.343 V 0 Z"
         style="fill:#000000;fill-opacity:1;fill-rule:nonzero;stroke:none"
         id="path20" /></g><path
       d="m 287.632,133.132 h 2.343 v -24.737 h -2.343 z"
       style="fill:#000000;fill-opacity:1;fill-rule:nonzero;stroke:none"
       id="path22" /><g
       id="g24"
       transform="translate(297.5253,116.5043)"><path
         d="M 0,0 H 5.617 L 2.864,13.168 H 2.753 Z M -3.906,-8.109 1.451,16.628 H 4.278 L 9.635,-8.109 H 7.18 l -1.265,6.1 H -0.26 l -1.302,-6.1 z"
         style="fill:#000000;fill-opacity:1;fill-rule:nonzero;stroke:none"
         id="path26" /></g><g
       id="g28"
       transform="translate(322.7055,108.3949)"><path
         d="M 0,0 H -2.901 L -9.783,20.46 H -9.895 V 0 h -2.009 V 24.737 H -9.04 L -2.157,3.906 h 0.148 V 24.737 H 0 Z"
         style="fill:#000000;fill-opacity:1;fill-rule:nonzero;stroke:none"
         id="path30" /></g><g
       id="g32"><g
         id="g34"
         clip-path="url(#clipPath38)"><g
           id="g40"
           transform="translate(336.1674,126.8456)"><path
             d="m 0,0 v 0.669 c 0,1.675 -0.818,3.944 -3.162,3.944 -2.307,0 -3.162,-2.306 -3.162,-4.389 v -12.611 c 0,-2.269 0.855,-4.39 3.162,-4.39 2.344,0 3.162,2.158 3.162,3.944 v 0.669 h 2.343 v -0.334 c 0,-3.794 -1.897,-6.324 -5.505,-6.324 -3.683,0 -5.506,2.417 -5.506,6.733 v 12.015 c 0,4.315 1.823,6.733 5.506,6.733 3.683,0 5.505,-2.529 5.505,-6.361 L 2.343,0 Z"
             style="fill:#000000;fill-opacity:1;fill-rule:nonzero;stroke:none"
             id="path42" /></g><g
           id="g44"
           transform="translate(352.1967,131.0492)"><path
             d="m 0,0 h -7.291 v -8.332 h 6.063 v -2.047 h -6.063 v -10.23 H 0 v -2.045 H -9.635 V 2.083 H 0 Z"
             style="fill:#000000;fill-opacity:1;fill-rule:nonzero;stroke:none"
             id="path46" /></g><g
           id="g48"
           transform="translate(215.0805,222.6698)"><path
             d="m 0,0 c 0,4.847 3.001,9.464 9.869,9.464 6.233,0 9.869,-2.885 9.869,-10.503 v -2.366 h -7.446 v 3.058 c 0,1.731 -0.403,3.463 -2.423,3.463 -1.847,0 -2.251,-1.732 -2.251,-3.463 v -1.096 c 0,-1.617 0.866,-3.117 3.636,-4.849 4.386,-2.827 8.484,-6.059 8.484,-11.369 v -2.943 c 0,-4.559 -2.886,-9.464 -9.869,-9.464 -6.926,0 -9.869,4.27 -9.869,10.734 v 2.135 h 7.618 v -3.058 c 0,-1.733 0.231,-3.464 2.251,-3.464 1.847,0 2.423,1.731 2.423,3.464 v 1.5 c 0,2.713 -2.135,4.444 -4.559,6.002 C 3.174,-9.812 0,-6.868 0,-2.541 Z"
             style="fill:#000000;fill-opacity:1;fill-rule:nonzero;stroke:none"
             id="path50" /></g><g
           id="g52"
           transform="translate(256.4584,224.9779)"><path
             d="m 0,0 h -9.638 v -8.138 h 7.849 v -6.348 H -9.638 V -25.451 H 0 V -31.8 H -17.083 V 6.58 H 0 Z"
             style="fill:#000000;fill-opacity:1;fill-rule:nonzero;stroke:none"
             id="path54" /></g><g
           id="g56"
           transform="translate(272.6743,219.2645)"><path
             d="m 0,0 v 1.962 c 0,2.308 -0.577,4.559 -2.424,4.559 -1.789,0 -2.424,-2.423 -2.424,-4.559 v -17.66 c 0,-2.944 0.635,-4.559 2.424,-4.559 1.847,0 2.424,1.789 2.424,4.559 v 1.905 h 7.445 v -0.808 c 0,-8.08 -3.521,-12.062 -9.869,-12.062 -6.637,0 -9.869,4.097 -9.869,11.369 V 1.5 c 0,7.273 3.232,11.37 9.869,11.37 6.522,0 9.869,-4.04 9.869,-12.177 V 0 Z"
             style="fill:#000000;fill-opacity:1;fill-rule:nonzero;stroke:none"
             id="path58" /></g><g
           id="g60"
           transform="translate(304.2988,231.5575)"><path
             d="m 0,0 v -27.587 c 0,-7.272 -3.347,-11.369 -9.984,-11.369 -6.637,0 -9.927,4.097 -9.927,11.369 V 0 h 7.445 v -27.991 c 0,-2.135 0.693,-4.559 2.482,-4.559 1.904,0 2.539,2.365 2.539,4.559 V 0 Z"
             style="fill:#000000;fill-opacity:1;fill-rule:nonzero;stroke:none"
             id="path62" /></g><g
           id="g64"
           transform="translate(322.2455,221.746)"><path
             d="m 0,0 c 0,2.25 -1.039,3.232 -3.059,3.232 h -1.962 v -9.638 h 1.904 c 2.137,0 3.117,0.75 3.117,3.463 z m 7.445,-2.02 c 0,-3.867 -1.731,-6.984 -4.271,-8.656 L 9.177,-28.568 H 1.386 l -4.387,15.813 h -2.02 v -15.813 h -7.445 v 38.38 h 9.927 c 6.637,0 9.984,-3.579 9.984,-10.216 z"
             style="fill:#000000;fill-opacity:1;fill-rule:nonzero;stroke:none"
             id="path66" /></g><g
           id="g68"
           transform="translate(352.1967,224.9779)"><path
             d="m 0,0 h -9.638 v -8.138 h 7.849 v -6.348 H -9.638 V -25.451 H 0 V -31.8 H -17.083 V 6.58 H 0 Z"
             style="fill:#000000;fill-opacity:1;fill-rule:nonzero;stroke:none"
             id="path70" /></g><path
           d="m 184.207,182.343 h 7.445 v -38.379 h -7.445 z"
           style="fill:#000000;fill-opacity:1;fill-rule:nonzero;stroke:none"
           id="path72" /><g
           id="g74"
           transform="translate(210.1767,172.5892)"><path
             d="m 0,0 c 0,1.616 -0.635,3.174 -2.54,3.174 h -2.77 v -25.451 h 2.77 c 1.905,0 2.54,1.789 2.54,3.405 z m 7.445,-18.411 c 0,-6.636 -3.348,-10.214 -9.985,-10.214 H -12.755 V 9.754 H -2.54 c 6.637,0 9.985,-3.579 9.985,-10.216 z"
             style="fill:#000000;fill-opacity:1;fill-rule:nonzero;stroke:none"
             id="path76" /></g><g
           id="g78"
           transform="translate(240.0112,175.7636)"><path
             d="m 0,0 h -9.638 v -8.138 h 7.849 v -6.348 H -9.638 V -25.451 H 0 V -31.8 H -17.083 V 6.58 H 0 Z"
             style="fill:#000000;fill-opacity:1;fill-rule:nonzero;stroke:none"
             id="path80" /></g><g
           id="g82"
           transform="translate(265.4609,143.9638)"><path
             d="m 0,0 h -7.387 l -7.446,22.508 h -0.23 V 0 h -6.002 v 38.379 h 7.387 l 7.445,-23.95 h 0.231 v 23.95 H 0 Z"
             style="fill:#000000;fill-opacity:1;fill-rule:nonzero;stroke:none"
             id="path84" /></g><g
           id="g86"
           transform="translate(275.9628,143.9638)"><path
             d="m 0,0 v 31.8 h -6.81 v 6.579 H 14.486 V 31.8 H 7.445 V 0 Z"
             style="fill:#000000;fill-opacity:1;fill-rule:nonzero;stroke:none"
             id="path88" /></g><path
           d="m 294.198,182.343 h 7.445 v -38.379 h -7.445 z"
           style="fill:#000000;fill-opacity:1;fill-rule:nonzero;stroke:none"
           id="path90" /><g
           id="g92"
           transform="translate(312.145,143.9638)"><path
             d="m 0,0 v 31.8 h -6.81 v 6.579 H 14.486 V 31.8 H 7.445 V 0 Z"
             style="fill:#000000;fill-opacity:1;fill-rule:nonzero;stroke:none"
             id="path94" /></g><g
           id="g96"
           transform="translate(344.0014,154.9301)"><path
             d="M 0,0 V -10.966 H -7.445 V 0.057 l -8.138,27.356 h 7.733 l 3.983,-17.199 h 0.289 l 4.04,17.199 h 7.733 z"
             style="fill:#000000;fill-opacity:1;fill-rule:nonzero;stroke:none"
             id="path98" /></g><g
           id="g100"
           transform="translate(352.1967,56.6928)"><path
             d="M 0,0 H -295.504 V 226.772 H 0 v -41.073 h -7.994 v 33.078 H -287.509 V 7.995 H -7.994 V 40.867 H 0 Z"
             style="fill:#55af92;fill-opacity:1;fill-rule:nonzero;stroke:none"
             id="path102" /></g></g></g></g></svg>
