<svg width="1000" height="288" viewBox="0 0 1000 288" fill="none" xmlns="http://www.w3.org/2000/svg">
<path d="M119.189 22.4298C135.664 -6.54307 176.852 -6.54298 193.327 22.4299L306.717 221.836C323.192 250.809 302.599 287.025 269.648 287.025L42.8675 287.025C9.91719 287.025 -10.6767 250.809 5.79847 221.836L119.189 22.4298Z" fill="#4C49E4"/>
<path d="M151.646 71.3989C167.138 44.0897 205.866 44.0897 221.358 71.399L308.818 225.579C324.309 252.888 304.945 287.025 273.962 287.025H99.0422C68.0594 287.025 48.6952 252.888 64.1866 225.579L151.646 71.3989Z" fill="#3376E7"/>
<path d="M199.683 119.776C211.161 99.6177 239.858 99.6177 251.337 119.776L320.747 241.669C332.226 261.827 317.878 287.024 294.92 287.024H156.1C133.142 287.024 118.794 261.827 130.272 241.669L199.683 119.776Z" fill="#26F3A8"/>
<path d="M418.841 222.413C460.308 222.413 478.714 204.84 478.714 179.298C478.714 153.143 459.673 141.496 432.17 135.979L412.071 131.892C397.685 128.827 393.031 123.515 393.031 116.159C393.031 107.372 400.858 100.833 418.63 100.833C437.671 100.833 445.922 110.029 446.768 121.063H476.175C475.964 94.2947 452.268 75.7002 419.053 75.7002C384.78 75.7002 363.2 92.047 363.2 116.159C363.2 142.109 381.394 152.53 406.994 157.843L428.573 162.338C442.537 165.199 448.883 170.307 448.883 179.911C448.883 190.741 439.998 197.484 418.841 197.484C400.647 197.484 389.011 189.515 387.741 173.372H358.334C359.815 203.001 380.337 222.413 418.841 222.413Z" fill="#0A2128"/>
<path d="M490.427 267.367H518.776V209.131H519.623C525.123 216.078 534.22 222.413 550.088 222.413C578.649 222.413 595.151 199.119 595.151 167.651C595.151 134.957 577.803 112.481 550.088 112.481C534.22 112.481 525.123 118.815 519.623 125.762H518.776L515.814 114.32H490.427V267.367ZM542.048 198.301C524.065 198.301 517.718 184.202 517.718 167.651C517.718 150.896 524.488 136.592 542.048 136.592C560.031 136.592 566.378 150.896 566.378 167.651C566.378 184.202 560.243 198.301 542.048 198.301Z" fill="#0A2128"/>
<path d="M606.452 220.574H633.321V168.468C633.321 149.261 643.053 138.022 659.978 138.022H669.921V112.685H661.882C647.919 112.685 638.187 120.45 633.321 130.462H632.474L630.359 114.32H606.452V220.574Z" fill="#0A2128"/>
<path d="M749.088 114.32V175.007C749.088 188.493 743.164 196.871 728.778 196.871C714.18 196.871 708.256 188.493 708.256 175.007V114.32H679.907V179.298C679.907 202.184 695.139 222.413 728.566 222.413H728.778C761.994 222.413 777.438 202.184 777.438 179.298V114.32H749.088Z" fill="#0A2128"/>
<path d="M842.098 222.413C873.198 222.413 889.276 204.431 890.969 180.524H862.408C861.138 191.15 853.734 198.301 841.463 198.301C825.384 198.301 817.345 187.472 817.345 167.447C817.345 147.626 825.384 136.592 841.463 136.592C853.522 136.592 861.138 143.948 862.196 154.778H890.757C889.276 131.075 873.198 112.481 841.463 112.481C806.978 112.481 788.36 135.162 788.36 167.447C788.36 200.14 807.613 222.413 842.098 222.413Z" fill="#0A2128"/>
<path d="M949.224 222.413C977.574 222.413 995.557 206.679 998.519 187.472H970.804C968.688 194.01 961.918 199.732 949.224 199.732C932.934 199.732 925.317 189.515 925.106 175.007H999.999V164.382C999.999 135.366 981.593 112.481 948.801 112.481C913.47 112.481 896.122 137.409 896.122 167.651C896.122 198.301 915.162 222.413 949.224 222.413ZM925.317 156.821C925.952 144.765 932.934 135.366 948.801 135.366C963.61 135.366 970.592 144.765 971.015 156.821H925.317Z" fill="#0A2128"/>
</svg>
