<?xml version="1.0" encoding="UTF-8" standalone="no"?>
<!DOCTYPE svg PUBLIC "-//W3C//DTD SVG 1.1//EN" "http://www.w3.org/Graphics/SVG/1.1/DTD/svg11.dtd">
<svg width="100%" height="100%" viewBox="0 0 1421 750" version="1.1" xmlns="http://www.w3.org/2000/svg" xmlns:xlink="http://www.w3.org/1999/xlink" xml:space="preserve" xmlns:serif="http://www.serif.com/" style="fill-rule:evenodd;clip-rule:evenodd;stroke-linejoin:round;stroke-miterlimit:2;">
    <g transform="matrix(1,0,0,1,218.5,232.5)">
        <path d="M564.839,0.639C485.358,0.639 426.823,61.102 426.823,141.919C426.823,219.028 475.482,283.178 567.288,283.178C611.647,283.178 653.558,265.297 676.973,238.166C681.273,233.221 684.359,227.659 684.359,221.5C684.447,218.326 683.887,215.167 682.713,212.218C681.54,209.268 679.776,206.59 677.532,204.347C675.288,202.104 672.61,200.343 669.662,199.173C666.714,198.002 663.559,197.447 660.389,197.541C653.003,197.541 646.234,201.867 641.296,206.791C620.968,225.929 601.854,237.033 569.818,237.033C518.69,237.033 489.72,204.937 486.654,162.375L670.862,162.375C687.507,162.375 693.042,152.508 693.042,142.64C692.98,63.636 642.469,0.639 564.839,0.639ZM487.827,115.385C493.362,77.15 522.311,46.908 564.839,46.908C606.73,46.908 634.444,78.365 639.382,115.385L487.827,115.385Z" style="fill:rgb(79,134,142);fill-rule:nonzero;"/>
    </g>
    <g transform="matrix(1,0,0,1,218.5,232.5)">
        <path d="M839.885,0.639C762.256,0.639 711.827,63.636 711.827,142.537C711.827,152.405 717.362,162.272 734.007,162.272L918.235,162.272C915.149,204.834 886.179,236.909 835.05,236.909C803.015,236.909 783.901,225.826 763.573,206.688C758.655,201.764 751.866,197.438 744.479,197.438C741.296,197.335 738.125,197.887 735.162,199.059C732.2,200.232 729.51,202.001 727.257,204.256C725.005,206.511 723.238,209.205 722.067,212.171C720.896,215.137 720.345,218.312 720.448,221.5C720.448,227.68 723.534,233.221 727.834,238.166C751.248,265.297 793.139,283.178 837.519,283.178C929.325,283.178 977.984,219.028 977.984,141.919C977.902,61.102 919.366,0.639 839.885,0.639ZM765.322,115.385C770.26,78.304 797.974,46.908 839.865,46.908C882.393,46.908 911.342,77.15 916.897,115.385L765.322,115.385Z" style="fill:rgb(79,134,142);fill-rule:nonzero;"/>
    </g>
    <g transform="matrix(1,0,0,1,218.5,232.5)">
        <path d="M292.53,0C257.059,0 225.291,17.037 204.057,43.756C182.845,16.975 151.098,0 115.585,0C51.803,0 0.036,54.942 0.036,122.451L0.036,256.356C-0.064,259.983 0.564,263.594 1.881,266.974C3.198,270.354 5.179,273.436 7.706,276.037C10.233,278.638 13.255,280.705 16.594,282.117C19.932,283.529 23.52,284.256 27.144,284.256C30.768,284.256 34.355,283.529 37.694,282.117C41.032,280.705 44.054,278.638 46.581,276.037C49.108,273.436 51.089,270.354 52.406,266.974C53.724,263.594 54.351,259.983 54.251,256.356L54.251,122.451C54.251,84.875 81.76,54.304 115.585,54.304C149.41,54.304 176.898,84.855 176.919,122.43L176.919,256.336C176.919,263.533 179.773,270.436 184.854,275.528C189.936,280.619 196.828,283.482 204.016,283.487C209.418,283.482 214.696,281.868 219.18,278.852C219.9,278.358 220.6,277.843 221.238,277.287C224.32,274.737 226.802,271.537 228.506,267.915C230.21,264.293 231.093,260.339 231.093,256.336L231.093,122.43C231.093,84.855 258.602,54.304 292.427,54.304C326.252,54.304 353.823,84.875 353.823,122.451L353.823,256.356C353.823,263.557 356.68,270.463 361.765,275.555C366.851,280.647 373.748,283.508 380.94,283.508C388.132,283.508 395.03,280.647 400.116,275.555C405.201,270.463 408.058,263.557 408.058,256.356L408.058,122.451C408.079,54.942 356.23,0 292.53,0Z" style="fill:rgb(79,134,142);fill-rule:nonzero;"/>
    </g>
</svg>
